<svg width="177" height="215" viewBox="0 0 177 215" fill="none" xmlns="http://www.w3.org/2000/svg">
<path d="M144.109 54.2996C136.263 50.1374 123.791 43.2632 127.59 32.4878C129.026 28.4126 133.246 25.3236 137.409 27.934C141.571 30.5445 142.905 36.0264 143.833 40.3047C144.993 45.6996 147.227 52.8058 142.862 57.3161C141.759 58.4618 143.384 59.9991 144.573 59.0274C149.634 54.8507 147.879 47.3529 146.748 41.8274C145.617 36.302 144.21 30.0949 139.7 26.4693C135.538 23.1192 129.882 24.2069 126.865 28.4706C123.849 32.7343 123.544 38.9269 126.329 43.4227C130.012 49.3687 136.857 53.2554 142.934 56.3154C144.268 56.9826 145.443 55.0102 144.109 54.2996Z" fill="#565656"/>
<path d="M134.061 48.1218C134.003 47.9913 134.003 48.0058 134.061 48.1218C134.032 48.0493 134.018 47.9913 134.003 47.9188C134.003 47.8753 133.916 47.4402 133.945 47.7012C133.916 47.4257 133.916 47.1501 133.945 46.8746C133.96 46.7296 133.96 46.7151 133.945 46.8166C133.945 46.7296 133.974 46.6425 133.989 46.5555C134.018 46.3815 134.061 46.2075 134.105 46.0334C134.192 45.7144 134.293 45.3953 134.409 45.0908C134.859 43.8871 135.686 42.4658 136.454 41.4941C137.31 40.4355 138.267 39.6523 139.645 39.3768C141.124 39.0867 142.415 39.6233 143.648 40.508C144.126 40.8415 144.851 40.6385 145.17 40.2034C145.533 39.7248 145.489 39.1012 145.083 38.6517C144.01 37.4624 142.299 36.9259 140.747 36.8533C139.195 36.7808 137.484 37.3029 136.193 38.3036C134.134 39.8989 132.611 42.5818 131.872 45.0473C131.451 46.454 131.32 47.9913 132.002 49.3255C132.292 49.9056 133.104 50.0651 133.641 49.7606C134.235 49.4125 134.366 48.7019 134.076 48.1218H134.061Z" fill="#565656"/>
<path d="M141.354 29.9641C146.879 31.1678 152.318 34.0828 155.349 39.0137C156.843 41.4501 157.698 44.1041 156.524 46.8595C155.421 49.4555 153.144 51.4713 150.824 52.9651C148.895 54.2123 146.705 54.8649 144.762 56.0251C143.283 56.9098 141.963 58.0845 140.73 59.2882C137.482 62.4498 134.639 66.0609 132.029 69.7445C129.621 73.1381 126.909 76.8798 125.691 80.9115C125.213 82.5067 127.547 83.0578 128.128 81.5786C129.65 77.7499 132.043 74.2113 134.407 70.8757C137.192 66.9455 140.266 63.0154 143.906 59.8393C145.342 58.5921 146.778 57.867 148.489 57.0983C151.129 55.9236 153.638 54.3138 155.697 52.2835C159.758 48.2663 160.628 43.2049 157.727 38.2305C154.406 32.5166 148.272 29.0359 141.934 27.7452C140.484 27.4552 139.86 29.6596 141.325 29.9786L141.354 29.9641Z" fill="#565656"/>
<path d="M125.331 40.4935C117.325 48.9629 114.991 61.6671 118.877 72.5875C119.863 75.3575 121.198 78.0115 122.88 80.4334C124.417 82.6378 126.346 85.1902 129.334 85.0017C132.321 84.8132 134.743 82.3042 136.802 80.4624C139.239 78.287 141.472 75.8796 143.503 73.3127C147.955 67.6567 151.363 61.2466 153.451 54.3579C153.915 52.8206 151.551 52.1825 151.058 53.6908C147.607 64.1326 141.385 73.5592 132.8 80.4914C131.639 81.4341 129.928 82.8553 128.318 82.3187C126.926 81.8547 125.925 80.2739 125.128 79.1282C123.663 77.0398 122.445 74.7774 121.546 72.399C119.805 67.8017 119.182 62.7983 119.805 57.9255C120.56 52.0085 123.184 46.657 127.013 42.1468C127.985 41.0156 126.404 39.3768 125.36 40.4935H125.331Z" fill="#565656"/>
<path d="M146.359 44.7569C144.865 43.9883 143.168 44.2783 141.79 45.163C141.109 45.598 140.5 46.1491 139.905 46.7147C139.397 47.2078 138.89 47.7444 138.585 48.3825C138.324 48.9336 138.237 49.3832 138.353 49.9633C138.411 50.2824 138.542 50.6014 138.672 50.906C139.049 51.8196 139.499 52.7043 139.992 53.5454C140.456 54.3141 140.993 55.2277 141.892 55.5468C142.428 55.7353 143.052 55.3727 143.255 54.8797C143.473 54.3431 143.284 53.7485 142.791 53.4439C142.689 53.3859 143.037 53.705 142.907 53.5164C142.907 53.5164 142.791 53.3714 142.791 53.3859C142.921 53.5599 142.95 53.5889 142.878 53.4874C142.849 53.4584 142.834 53.4149 142.805 53.3859C142.747 53.3134 142.704 53.2409 142.646 53.1684C142.399 52.8203 142.182 52.4577 141.964 52.0952C141.703 51.6601 141.471 51.2105 141.254 50.7464C141.152 50.5289 141.051 50.3114 140.949 50.0938C140.862 49.8908 141.036 50.3259 140.92 50.0068C140.891 49.9198 140.862 49.8473 140.833 49.7603C140.79 49.6152 140.761 49.4557 140.703 49.3252C140.63 49.1512 140.703 49.6733 140.703 49.4267C140.703 49.3107 140.703 49.3832 140.659 49.6442C140.659 49.5862 140.688 49.5427 140.703 49.4847C140.674 49.5717 140.688 49.5427 140.746 49.3977C140.79 49.3252 140.833 49.2382 140.891 49.1657C140.964 49.0496 140.993 49.0206 141.123 48.8756C141.355 48.6146 141.616 48.368 141.877 48.1215C142.399 47.6139 142.965 47.1208 143.647 46.8163C143.85 46.7292 144.241 46.6277 144.43 46.6132C144.734 46.5842 144.981 46.5987 145.213 46.7002C145.778 46.9613 146.446 46.8598 146.779 46.2942C147.084 45.7866 146.924 45.0179 146.373 44.7279L146.359 44.7569Z" fill="#565656"/>
<path d="M155.785 52.7476C159.091 56.5327 161.165 61.6956 162.398 66.5395C163.544 71.0643 164.124 76.0821 159.642 78.8811C155.161 81.6801 149.534 80.6214 144.313 81.0855C141.471 81.3321 138.73 81.9412 135.989 82.6808C133.248 83.4204 130.565 83.9715 128.027 82.4342C126.664 81.6076 125.605 83.609 126.809 84.5081C129.144 86.2774 132.117 86.1759 134.858 85.5958C138.28 84.8707 141.485 83.841 145.009 83.5945C151.057 83.1594 156.974 84.2616 162.108 80.2444C166.43 76.8653 166.14 71.5719 165.008 66.699C163.747 61.2606 161.383 55.1405 157.453 51.0943C156.394 49.9921 154.813 51.6309 155.799 52.7476H155.785Z" fill="#565656"/>
<path d="M124.213 30.9216C118.789 31.9223 113.583 34.6633 109.493 38.3324C107.753 39.8987 106.534 41.668 106.65 44.0754C106.752 46.1783 107.129 48.3827 106.331 50.413C105.389 52.8059 102.662 54.0387 101.372 56.2575C100.081 58.4764 99.9938 61.0724 100.472 63.5233C101.415 68.4397 104.635 72.9209 108.579 75.894C110.755 77.5182 113.22 78.7364 115.845 79.4326C118.688 80.1867 121.849 80.3317 123.923 82.6666C125.025 83.8993 126.736 82.1155 125.721 80.8683C122.835 77.3442 117.745 77.7793 113.873 76.1115C109.565 74.2552 106.027 70.7601 104.04 66.5253C102.938 64.1614 102.169 61.3189 102.923 58.7375C103.677 56.156 106.027 55.0393 107.55 53.096C108.797 51.5007 109.188 49.4849 109.232 47.498C109.261 45.9027 108.652 43.8869 109.29 42.3786C110.407 39.7537 113.945 37.7523 116.309 36.4181C118.992 34.8953 121.864 33.9091 124.837 33.155C126.287 32.7925 125.663 30.6896 124.228 30.9506L124.213 30.9216Z" fill="#565656"/>
<path d="M106.838 75.6766C108.273 78.316 108.273 81.5211 109.085 84.3781C109.738 86.684 110.681 88.9899 112 91.0057C114.77 95.2405 118.889 97.4448 123.878 97.8654C128.417 98.2425 133.189 97.4013 136.481 94.0512C139.773 90.7012 141.542 86.1039 145.617 83.9285C147.111 83.1309 145.777 80.8539 144.298 81.6516C140.802 83.5369 138.801 87.148 136.452 90.1936C135.248 91.7598 133.885 93.3841 132.057 94.2398C129.911 95.255 127.301 95.4725 124.966 95.4C119.933 95.2404 115.96 93.0361 113.465 88.6128C112.276 86.5244 111.507 84.2185 110.971 81.8836C110.391 79.3457 110.173 76.7787 108.897 74.4583C108.157 73.1096 106.098 74.3133 106.838 75.6621V75.6766Z" fill="#565656"/>
<path d="M122.647 81.8256C122.459 83.1888 122.909 84.465 123.387 85.7268C123.866 86.9885 124.272 88.1197 124.663 89.3379C125.055 90.5561 125.417 91.7888 125.693 93.036C125.78 93.4131 125.94 93.8917 125.722 94.2542C125.475 94.6458 124.852 94.7908 124.489 95.0374C123.402 95.7915 124.054 97.4883 125.403 97.1983C126.607 96.9372 127.839 95.951 128.158 94.7328C128.536 93.3261 127.883 91.6873 127.491 90.3386C127.1 88.9898 126.621 87.5541 126.099 86.1908C125.577 84.8276 124.779 83.3483 124.982 81.8111C125.055 81.1875 124.388 80.6509 123.822 80.6509C123.126 80.6509 122.735 81.1875 122.662 81.8111L122.647 81.8256Z" fill="#565656"/>
<path d="M156.013 95.2545C157.956 94.5293 160.117 94.7469 162.075 95.2835C163.83 95.7621 165.962 96.5742 166.919 98.2275C167.499 99.2137 166.948 100.055 166.339 100.881C165.686 101.766 165.019 102.622 164.265 103.419C162.96 104.812 161.495 105.812 159.581 106.059C158.464 106.204 157.318 106.233 156.187 106.305C155.186 106.363 154.099 106.349 153.127 106.639C151.851 107.016 152.039 109.104 153.446 109.032C155.65 108.916 157.913 108.814 160.088 108.51C162.539 108.176 164.526 106.842 166.179 105.029C167.064 104.057 167.876 103.013 168.63 101.955C169.457 100.78 169.964 99.3732 169.5 97.9374C168.688 95.443 166.078 93.9927 163.728 93.2386C161.132 92.412 157.956 91.9914 155.375 93.0501C154.809 93.2821 154.389 93.8187 154.577 94.4568C154.737 95.0079 155.404 95.472 155.984 95.2545H156.013Z" fill="#565656"/>
<path d="M151.389 110.642C153.767 108.974 155.362 106.32 155.971 103.506C156.726 100.026 155.638 96.7627 155.478 93.3111C155.449 92.6005 155.377 91.7883 155.507 91.0777C155.609 90.4831 156.145 90.2366 156.667 90.0335C157.654 89.642 158.683 89.7725 159.612 90.2511C161.047 91.0052 162.454 92.586 162.715 94.2102C162.802 94.8048 163.498 95.1384 164.035 95.0659C164.673 94.9789 164.992 94.4858 165.079 93.8767C165.282 92.2814 163.919 90.5411 162.875 89.4969C161.41 88.0322 159.408 87.017 157.291 87.278C156.116 87.4231 155.014 87.9162 154.101 88.6558C153.085 89.4969 152.984 90.7586 152.969 91.9914C152.94 95.0949 153.956 98.1114 153.825 101.2C153.694 104.289 152.23 106.813 150.011 108.872C149.083 109.728 150.315 111.396 151.389 110.656V110.642Z" fill="#565656"/>
<path d="M154.623 106.624C156.523 105.856 158.423 105.044 160.308 104.246C161.831 103.593 163.426 102.651 163.832 100.91C164.267 98.9816 163.252 97.1978 161.396 96.5597C159.67 95.9796 157.639 96.4437 156.233 97.5603C154.666 98.8076 153.883 101.244 154.565 103.158C154.753 103.695 155.232 104.072 155.827 103.985C156.334 103.912 156.9 103.434 156.827 102.854C156.769 102.419 156.726 102.245 156.726 101.795C156.726 101.65 156.726 101.491 156.726 101.345C156.726 101.316 156.755 101.055 156.74 101.186C156.74 101.273 156.784 100.968 156.784 100.968C156.813 100.823 156.856 100.678 156.9 100.548C156.972 100.345 156.929 100.446 157.03 100.258C157.103 100.127 157.175 100.011 157.248 99.8808C157.378 99.6777 157.32 99.7792 157.291 99.8227C157.349 99.7502 157.422 99.6777 157.494 99.6052C157.872 99.2281 158.321 98.9671 158.843 98.8221C159.22 98.7205 159.22 98.7205 159.583 98.706C159.757 98.706 159.931 98.706 160.105 98.706C160.105 98.706 160.308 98.7205 160.192 98.706C160.061 98.6915 160.366 98.7351 160.395 98.7496C160.554 98.7786 160.714 98.8221 160.874 98.8946C160.729 98.8366 161.106 99.0396 161.135 99.0541C161.033 98.9816 161.265 99.1846 161.309 99.2281C161.439 99.3587 161.236 99.0976 161.323 99.2571C161.367 99.3297 161.41 99.4167 161.468 99.4892C161.367 99.3006 161.512 99.6487 161.541 99.7067C161.541 99.7212 161.584 99.8953 161.555 99.7647C161.526 99.6197 161.555 99.8372 161.555 99.8662C161.555 99.9968 161.555 100.113 161.555 100.243C161.57 99.9968 161.512 100.403 161.483 100.49C161.483 100.519 161.396 100.722 161.454 100.591C161.512 100.461 161.425 100.649 161.396 100.678C161.367 100.722 161.207 100.954 161.294 100.852C161.193 100.983 161.077 101.099 160.961 101.2C160.903 101.258 160.845 101.302 160.772 101.36C160.888 101.273 160.7 101.404 160.671 101.433C160.134 101.795 159.525 102.056 158.945 102.317C157.204 103.071 155.464 103.811 153.753 104.594C153.245 104.826 153.086 105.537 153.289 106.001C153.492 106.465 154.086 106.871 154.623 106.653V106.624Z" fill="#565656"/>
<path d="M168.43 100.693C169.518 101.287 170.606 102.216 171.041 103.419C171.476 104.623 170.606 105.725 170.055 106.769C169.127 108.539 168.126 110.482 166.371 111.555C164.167 112.918 162.035 112.512 159.729 111.628C157.423 110.743 155.132 109.873 152.811 109.003C150.491 108.133 148.083 107.291 145.647 107.712C143.515 108.089 141.717 109.626 140.571 111.41C139.425 113.194 139.382 114.76 140.586 116.486C141.137 117.284 141.818 118.038 141.905 119.038C141.949 119.488 141.905 119.996 141.818 120.445C141.746 120.837 141.325 121.431 141.789 121.243C140.368 121.837 140.934 124.172 142.442 123.607C143.95 123.041 144.226 121.475 144.342 120.054C144.501 118.27 143.965 117.008 142.949 115.558C142.413 114.804 141.905 114.398 142.268 113.469C142.659 112.454 143.501 111.541 144.371 110.903C146.329 109.467 148.838 110.221 150.926 110.946C153.014 111.671 155.19 112.44 157.263 113.281C159.178 114.064 161.208 115.036 163.326 114.992C166.937 114.934 169.649 112.44 171.374 109.481C172.361 107.77 173.956 105.551 173.579 103.477C173.202 101.403 171.461 99.5471 169.591 98.6334C168.256 97.9808 167.096 99.9096 168.416 100.649L168.43 100.693Z" fill="#565656"/>
<path d="M172.098 102.462C174.129 99.2571 173.635 94.3407 170.88 91.7157C169.473 90.367 167.704 89.4388 166.181 88.2206C164.397 86.7704 162.628 85.2911 160.699 84.0439C157.465 81.9555 152.984 80.1717 149.228 81.9555C146.168 83.4058 142.557 86.6834 143.804 90.367C144.326 91.8898 146.748 91.2372 146.226 89.6999C145.689 88.0756 146.617 87.1474 147.748 86.0888C148.764 85.1461 149.967 84.1454 151.374 83.8844C154.724 83.2753 157.944 85.1316 160.569 86.9734C162.033 88.0031 163.397 89.1488 164.789 90.2655C165.891 91.1501 167.095 91.8608 168.226 92.7019C170.895 94.6743 171.692 98.3434 170.068 101.273C169.343 102.593 171.286 103.724 172.098 102.462Z" fill="#565656"/>
<path d="M154.942 88.7865C153.027 87.3217 150.214 87.1767 147.937 87.6553C145.544 88.1629 143.398 89.6131 142.411 91.9045C141.338 94.428 141.73 97.3285 142.397 99.9099C143.166 102.912 145.08 105.696 144.79 108.872C144.674 110.091 146.574 110.584 147.11 109.496C148.329 107.045 146.617 104 145.733 101.694C144.848 99.3878 144.094 96.8789 144.384 94.4279C144.92 89.8887 150.301 89.091 153.752 90.8023C155.13 91.4839 156.116 89.6856 154.942 88.772V88.7865Z" fill="#565656"/>
<path d="M171.676 104.405C172.981 105.247 174.475 106.305 174.49 108.017C174.504 109.278 173.736 110.293 172.894 111.164C170.327 113.789 169.109 117.385 165.295 118.487C160.857 119.778 157.348 117.53 154.027 114.847C151.315 112.657 148.139 109.307 144.353 109.626C142.744 109.757 142.729 112.295 144.353 112.164C146.862 111.961 148.864 113.992 150.706 115.442C152.547 116.892 154.346 118.531 156.405 119.72C160.263 121.968 165.397 122.113 169.153 119.503C170.806 118.342 171.865 116.646 173.01 115.021C174.04 113.542 175.548 112.411 176.36 110.787C178.086 107.335 176.114 103.985 172.88 102.39C171.517 101.722 170.414 103.593 171.691 104.42L171.676 104.405Z" fill="#565656"/>
<path d="M160.103 118.748C158.812 117.559 156.405 117.269 154.722 117.385C153.04 117.501 151.546 118.009 150.053 118.676C147.602 119.764 145.252 121.547 142.439 121.243C141.09 121.098 140.8 123.331 142.12 123.607C145.035 124.201 147.732 122.505 150.227 121.272C151.503 120.648 152.852 120.054 154.273 119.865C154.998 119.764 155.752 119.764 156.477 119.88C157.449 120.039 158.334 120.532 159.305 120.648C160.277 120.764 160.755 119.357 160.088 118.748H160.103Z" fill="#565656"/>
<path d="M142.628 121.475C137.669 120.677 133.825 115.239 133.231 110.438C133.115 109.467 133.361 109.046 133.68 107.987C134.145 106.363 134.449 104.652 135.203 103.129C137.103 99.2425 140.729 96.545 144.064 93.9781C145.34 92.9919 144.195 90.8165 142.759 91.7447C138.872 94.2826 134.754 97.8647 132.781 102.157C132.027 103.796 131.665 105.566 131.171 107.291C130.794 108.611 130.504 109.568 130.707 110.917C131.578 116.573 136.044 122.911 142.019 123.708C143.47 123.911 144.137 121.692 142.643 121.46L142.628 121.475Z" fill="#565656"/>
<path d="M33.6897 46.0904C31.6594 46.7431 30.0641 48.2513 28.8024 49.9336C27.6277 51.4999 26.627 53.4867 26.801 55.4881C26.9025 56.6773 27.4246 57.736 28.4253 58.4031C29.426 59.0702 30.6732 59.2152 31.7899 59.4183C34.1103 59.8388 36.5902 60.0274 38.7366 58.8527C39.6502 58.3596 40.4914 57.707 41.318 57.0979C42.1447 56.4887 43.0148 55.9232 43.8125 55.285C44.7551 54.5454 43.7255 52.8051 42.6233 53.2547C40.854 53.9653 39.4472 55.4881 37.8229 56.4742C35.8071 57.6925 33.2981 57.1994 31.0212 56.7063C30.0641 56.5033 29.2954 56.2712 29.2519 55.169C29.2084 54.2409 29.5565 53.3272 29.9916 52.5296C30.9052 50.8038 32.37 48.9764 34.2698 48.2948C35.6476 47.8017 35.082 45.6409 33.6607 46.0904H33.6897Z" fill="#565656"/>
<path d="M45.7097 53.0371C43.1862 52.8921 40.9093 52.0945 39.1255 50.2527C37.3417 48.4108 36.2105 45.8149 34.3542 43.8861C33.4115 42.9144 32.4253 42.6098 31.1056 42.8129C30.2065 42.9579 29.3653 43.335 28.6547 43.9151C27.393 44.9447 26.8274 46.511 26.6968 48.0773C26.5953 49.368 26.7404 51.2968 27.8425 52.167C28.8432 52.9501 30.511 51.964 29.7279 50.7022C29.6844 50.6442 29.5248 50.3252 29.6844 50.6442C29.6409 50.5427 29.4088 49.8901 29.5393 50.2817C29.4378 49.9916 29.3508 49.6871 29.2928 49.3825C29.2638 49.223 29.2638 49.2085 29.2928 49.339C29.2928 49.252 29.2783 49.165 29.2638 49.0635C29.2638 48.8749 29.2493 48.6864 29.2638 48.4979C29.2638 48.0628 29.2783 47.9323 29.3798 47.5407C29.5393 46.8446 29.7859 46.2645 30.3515 45.8004C30.8011 45.4378 31.7582 44.9882 32.3238 45.3653C32.8314 45.7134 33.2955 46.366 33.6726 46.8446C34.1511 47.4392 34.5572 48.0918 34.9778 48.7299C35.8189 50.0061 36.6601 51.3113 37.7913 52.3555C39.8651 54.2699 42.8527 55.6041 45.7097 55.285C47.1454 55.1255 47.1889 53.0952 45.7097 53.0226V53.0371Z" fill="#565656"/>
<path d="M40.8947 52.3845C39.3139 52.8196 37.7476 53.2982 36.1668 53.7623C35.5432 53.9363 34.8471 54.1828 34.1945 54.0378C33.8319 53.9508 33.5129 53.6897 33.4404 53.3272C33.4404 53.3272 33.4404 53.1967 33.4259 53.2402C33.4549 53.0951 33.4839 53.0081 33.5274 52.9211C33.6579 52.6601 33.8174 52.5005 34.064 52.2975C34.3975 52.022 34.9776 51.7754 35.3257 51.7319C35.8913 51.6739 36.2974 51.7609 36.7324 52.0075C37.211 52.283 37.4866 52.6601 37.8346 53.1242C38.1827 53.5882 38.7048 53.8493 39.2704 53.6027C39.749 53.3852 40.1405 52.7906 39.9375 52.2395C39.4009 50.8618 38.0812 49.7451 36.6164 49.455C35.0792 49.136 33.5419 49.6 32.3672 50.6152C31.1925 51.6304 30.5834 53.5157 31.5695 54.9225C32.5557 56.3292 34.296 56.6483 35.9638 56.2567C36.892 56.0392 37.7911 55.7201 38.7048 55.4446C39.6184 55.169 40.5611 54.879 41.4748 54.5744C42.8525 54.1248 42.2869 52.0075 40.8802 52.399L40.8947 52.3845Z" fill="#565656"/>
<path d="M27.6257 57.0257C27.0166 58.389 26.7991 59.9407 27.2196 61.4055C27.6692 62.9863 28.6989 63.6534 30.1491 64.248C33.4847 65.6112 37.1394 66.7569 40.4169 64.5815C41.7367 63.7114 42.5778 62.2611 43.3029 60.9124C44.1006 59.4186 44.9562 57.9684 45.7829 56.5036C46.6095 55.0389 47.3781 53.4436 48.7269 52.4574C49.7711 51.7033 52.4395 51.3697 53.4547 52.4574C53.9043 52.936 53.7738 53.9802 53.8898 54.6328C54.0203 55.4159 54.2813 56.0686 54.7744 56.6922C55.6156 57.7363 57.1528 59.1721 58.6176 58.6935C60.0824 58.2149 59.5023 55.909 57.965 56.3296C57.7329 56.3876 56.6598 55.1549 56.5002 54.8503C56.1087 54.1107 56.2392 53.1391 56.0797 52.3269C55.7316 50.6446 54.2523 49.8615 52.6571 49.5279C48.7704 48.7158 46.2034 50.8331 44.3181 54.0237C43.4045 55.5755 42.4618 57.1417 41.6351 58.7515C40.7215 60.5063 39.9093 62.3482 37.9225 63.0733C35.9357 63.7984 33.9343 63.0878 32.0345 62.3772C31.0918 62.0291 29.9026 61.8406 29.5545 60.7964C29.2355 59.8682 29.424 58.853 29.7576 57.9684C30.2072 56.7502 28.1623 55.8655 27.6257 57.0692V57.0257Z" fill="#565656"/>
<path d="M28.8444 58.9253C27.6407 58.4902 26.698 57.6346 26.0309 56.5469C25.2042 55.1982 25.1752 53.9944 25.5813 52.4862C26.2774 49.8322 26.6255 47.0767 27.4086 44.4373C28.0612 42.2329 29.1779 39.666 31.4113 38.6508C32.441 38.1867 33.7172 38.2157 34.8194 38.2737C36.0231 38.3317 36.9223 38.4622 37.4299 39.6514C38.068 41.1307 40.2289 39.8545 39.6053 38.3752C38.329 35.3587 33.9638 35.2862 31.2373 36.0403C28.1483 36.896 26.2629 39.9705 25.2913 42.813C24.7402 44.4228 24.4066 46.1196 24.1021 47.8019C23.7685 49.6437 23.1594 51.4565 22.9128 53.2983C22.4488 56.7064 24.9577 60.2305 28.2353 61.1732C29.7145 61.5938 30.2511 59.4184 28.8589 58.9108L28.8444 58.9253Z" fill="#565656"/>
<path d="M33.4713 44.3936C34.1964 42.7984 35.2551 41.5512 36.9229 40.913C38.4747 40.3184 40.0264 40.5215 41.2737 41.6672C42.7529 43.0159 43.6666 44.9302 44.3482 46.7721C45.0298 48.6139 45.7695 51.6304 47.9593 52.37C49.1775 52.7906 49.9897 51.1373 49.163 50.2962C48.786 49.9046 48.4089 49.5855 48.1334 49.107C47.8288 48.5704 47.5823 48.0048 47.3647 47.4247C46.8716 46.163 46.4366 44.8577 45.813 43.654C44.8268 41.7252 43.449 39.6948 41.4622 38.6942C39.4754 37.6935 37.3 37.882 35.3276 38.8537C33.5438 39.7383 31.6875 41.4641 31.2959 43.4945C31.0639 44.6982 32.8622 45.6844 33.4423 44.3936H33.4713Z" fill="#565656"/>
<path d="M27.5943 61.0136C26.6081 63.1889 26.4921 65.8864 28.4499 67.5687C30.4078 69.251 32.9892 68.99 35.2661 69.5701C36.7599 69.9471 38.2682 70.2952 39.8054 70.0776C41.1977 69.8891 42.5899 69.3525 43.7791 68.5984C46.3171 66.9886 47.7528 64.4797 48.4054 61.5937C48.797 59.9114 49.058 58.1856 49.3916 56.4888C49.6526 55.1546 49.8992 53.4578 51.1029 52.6166C52.4371 51.703 51.1754 49.5131 49.8267 50.4267C47.2452 52.1815 46.9697 55.5026 46.4476 58.3451C45.8385 61.6372 45.2149 64.8712 42.0533 66.6405C40.6756 67.4237 39.1528 67.7572 37.572 67.4962C35.8317 67.2061 34.193 66.6405 32.4236 66.481C31.481 66.394 30.4513 66.162 29.8277 65.3933C29.001 64.3927 29.4071 63.0439 29.7262 61.9272C30.0742 60.68 28.1309 59.7809 27.5653 61.0136H27.5943Z" fill="#565656"/>
<path d="M46.5647 65.5237C47.1158 65.0887 47.3623 64.233 47.8264 63.6964C48.2615 63.1888 48.6676 62.8408 49.1751 62.5217C50.2048 61.8836 51.249 61.5646 52.4962 61.2455C54.6571 60.7089 57.4706 60.3753 58.9353 58.4755C59.3269 57.9679 59.4284 57.2718 58.9353 56.7787C58.4713 56.3146 57.6881 56.3146 57.2385 56.7787C56.4844 57.5474 55.8028 57.8664 54.7151 58.1855C53.5404 58.5335 52.3222 58.7511 51.1475 59.0846C49.8713 59.4472 48.5805 59.9403 47.5074 60.7234C46.9128 61.1585 46.3762 61.6371 45.9266 62.2027C45.4045 62.8698 44.6359 63.8415 44.6649 64.7261C44.7084 65.7558 45.8251 66.1038 46.5647 65.5092V65.5237Z" fill="#565656"/>
<path d="M59.0818 58.4899C62.0838 55.2558 61.9678 50.3975 60.4451 46.4963C59.9085 45.1185 59.2268 43.5958 57.9506 42.7546C55.9493 41.4349 53.9189 39.9846 51.5985 39.2885C48.1904 38.2734 44.2602 38.1718 40.7506 38.6794C39.3004 38.897 39.6629 41.2609 41.0987 41.2174C44.6228 41.1158 48.1614 40.7823 51.555 42.015C52.7007 42.4356 53.7159 43.1462 54.7311 43.8133C55.3547 44.2194 56.0073 44.5965 56.6309 45.0025C56.7759 45.0895 56.4569 44.814 56.7179 45.075C56.8194 45.1766 56.9209 45.2926 57.0225 45.4086C56.8919 45.2346 57.182 45.6551 57.211 45.6986C57.327 45.8727 57.4285 46.0467 57.5155 46.2352C57.7186 46.5978 57.8926 46.9894 58.0521 47.3809C58.4582 48.3961 58.7483 49.4838 58.9078 50.5715C59.2123 52.7469 58.9368 55.1688 57.443 56.8656C56.4569 57.9823 58.0666 59.6211 59.0963 58.5189L59.0818 58.4899Z" fill="#565656"/>
<path d="M104.925 132.265C102.634 131.395 100.719 129.031 100.502 126.566C100.284 124.1 102.17 121.722 104.664 121.272C105.853 121.069 107.173 121.432 108.116 122.186C108.478 122.476 108.71 122.984 108.826 123.201C108.971 123.462 108.681 123.303 108.826 123.259C108.87 123.259 108.942 123.23 108.797 123.259C108.478 123.332 108.13 123.259 107.811 123.245C106.564 123.158 105.157 122.868 104.069 123.622C102.982 124.376 102.503 125.681 102.518 126.957C102.547 130.685 106.346 132.135 108.725 134.267L109.247 132.28C106.984 133.034 104.548 132.323 102.822 130.743C101.749 129.771 100.226 131.279 101.227 132.338C103.359 134.6 106.912 135.543 109.885 134.557C110.683 134.296 111.103 133.208 110.407 132.57C109.102 131.395 107.521 130.554 106.23 129.365C105.317 128.524 104.664 127.479 104.969 126.319C105.041 126.044 105.07 125.928 105.259 125.681C105.288 125.638 105.462 125.522 105.491 125.522C105.708 125.464 105.868 125.478 106.172 125.507C106.593 125.536 107.013 125.565 107.434 125.594C108.246 125.652 109.029 125.768 109.798 125.42C110.567 125.072 111.074 124.376 111.176 123.535C111.379 121.794 109.943 120.344 108.507 119.634C106.941 118.85 105.215 118.589 103.518 119.097C100.415 119.996 98.0364 122.94 98.1379 126.218C98.2539 129.93 100.893 133.208 104.345 134.412C104.911 134.615 105.563 134.18 105.723 133.629C105.897 133.005 105.505 132.468 104.94 132.251L104.925 132.265Z" fill="#565656"/>
<path d="M104.159 130.815C105.101 131.627 106.102 132.454 107.335 132.744C108.669 133.063 110.105 132.744 110.902 131.569C111.279 131.004 111.381 130.322 111.279 129.669C111.221 129.365 111.091 129.075 110.946 128.814C110.873 128.683 110.801 128.567 110.714 128.451C110.685 128.393 110.656 128.35 110.627 128.292C110.496 128.074 110.656 128.35 110.612 128.234C110.569 128.103 110.612 128.292 110.612 128.321C110.612 128.393 110.583 128.451 110.554 128.524C110.482 128.698 109.887 128.93 110.163 128.901C110.221 128.901 110.279 128.872 110.337 128.857C110.627 128.785 110.917 128.683 111.163 128.509C111.686 128.132 112.063 127.581 112.15 126.943C112.382 125.406 111.424 124.158 110.163 123.39C109.67 123.085 109.017 123.245 108.669 123.694C108.321 124.144 108.321 124.84 108.756 125.217C108.988 125.42 109.206 125.623 109.409 125.841C109.438 125.87 109.655 126.131 109.51 125.942C109.597 126.058 109.67 126.189 109.742 126.319C109.626 126.102 109.742 126.363 109.771 126.421C109.8 126.551 109.8 126.537 109.771 126.377C109.771 126.435 109.771 126.493 109.771 126.566C109.8 126.392 109.8 126.377 109.771 126.508C109.728 126.638 109.742 126.624 109.8 126.464L109.757 126.537C109.684 126.653 109.699 126.638 109.8 126.508C109.699 126.595 109.728 126.595 109.844 126.479C109.728 126.537 109.742 126.537 109.887 126.479C109.771 126.508 109.655 126.522 109.554 126.551C109.075 126.682 108.654 126.943 108.393 127.378C107.987 128.06 108.132 128.886 108.495 129.539C108.567 129.669 108.64 129.785 108.727 129.901C108.756 129.945 108.945 130.279 108.858 130.09C108.887 130.148 108.901 130.221 108.916 130.293C108.901 130.134 108.887 130.134 108.887 130.264C108.872 130.047 108.887 130.206 108.858 130.322C108.916 130.192 108.916 130.177 108.858 130.308C108.785 130.424 108.785 130.424 108.858 130.308C108.814 130.351 108.771 130.409 108.713 130.453C108.814 130.38 108.829 130.366 108.756 130.409C108.495 130.525 108.843 130.438 108.611 130.482C108.538 130.496 108.466 130.525 108.393 130.54C108.524 130.525 108.509 130.525 108.379 130.54C108.263 130.54 108.147 130.54 108.031 130.54C108.248 130.554 107.813 130.482 107.77 130.467C107.712 130.453 107.407 130.351 107.465 130.366C107.538 130.395 107.509 130.38 107.378 130.322C107.306 130.279 107.233 130.25 107.161 130.206C106.595 129.901 106.189 129.582 105.754 129.234C105.29 128.857 104.579 128.741 104.13 129.234C103.738 129.669 103.637 130.438 104.13 130.859L104.159 130.815Z" fill="#565656"/>
<path d="M107.87 133.803C109.625 136.094 113.135 134.934 114.904 133.31C115.832 132.468 116.601 131.381 116.789 130.119C117.007 128.669 115.977 127.567 116.122 126.131C116.267 124.695 116.543 123.52 116.296 122.099C116.093 120.91 115.629 119.735 114.947 118.735C114.208 117.618 113.222 116.516 111.916 116.081C110.611 115.646 109.204 115.892 108.218 116.806C107.232 117.719 108.508 119.431 109.712 118.735C111.365 117.777 112.612 119.532 113.294 120.881C113.657 121.621 113.903 122.447 113.961 123.274C114.019 124.231 113.787 125.159 113.7 126.102C113.599 127.132 113.889 127.929 114.237 128.872C114.556 129.742 114.222 130.453 113.613 131.105C113.048 131.729 112.366 132.28 111.554 132.497C110.611 132.758 109.988 132.338 109.117 132.135C108.247 131.932 107.232 132.933 107.87 133.759V133.803Z" fill="#565656"/>
<path d="M109.075 121.2C110.075 119.445 110.075 117.139 108.886 115.471C107.697 113.803 105.884 113.18 103.839 113.209C102.055 113.223 100.083 113.615 99.1259 115.283C99.0389 115.428 98.9229 115.848 98.8068 115.935C98.8939 115.863 98.4443 115.892 98.3283 115.892C98.0527 115.892 97.7772 115.935 97.5016 115.979C96.588 116.124 95.7323 116.544 95.0362 117.153C93.2959 118.662 93.0929 121.301 94.2531 123.215C95.0507 124.535 97.0085 123.375 96.3124 122.012C95.6163 120.649 96.0079 118.966 97.5741 118.488C98.4588 118.212 99.3579 118.531 100.185 117.98C100.576 117.719 100.837 117.327 101.055 116.921C101.185 116.675 101.287 116.399 101.49 116.211C101.997 115.761 102.897 115.718 103.535 115.689C104.361 115.66 105.275 115.616 106 116.066C107.523 117.023 107.537 118.792 106.986 120.315C106.537 121.533 108.437 122.287 109.06 121.185L109.075 121.2Z" fill="#565656"/>
<path d="M101.591 121.171C99.6183 119.575 96.7758 119.691 94.8325 121.287C93.1357 122.664 92.367 124.956 92.5991 127.102C92.8311 129.248 93.9043 131.38 95.5721 132.816C95.9782 133.164 96.4132 133.483 96.8773 133.759C97.0513 133.86 97.3124 133.947 97.4429 134.107C97.6314 134.31 97.6894 134.73 97.8055 134.991C98.284 136.021 99.0817 136.877 99.9953 137.558C102.185 139.212 105.071 139.531 107.74 139.371C109.262 139.284 109.291 136.964 107.74 136.978C105.463 136.978 102.925 136.906 101.127 135.296C100.72 134.933 100.372 134.527 100.111 134.063C99.8213 133.541 99.7198 132.932 99.3137 132.483C98.6031 131.67 97.5009 131.308 96.7468 130.51C95.4561 129.132 94.7019 127.044 95.2095 125.173C95.8331 122.853 98.11 121.852 100.227 122.969C101.301 123.534 102.649 122.041 101.605 121.185L101.591 121.171Z" fill="#565656"/>
<path d="M105.52 134.586C105.883 136.804 106.942 139.516 108.928 140.778C110.915 142.04 113.613 141.329 115.237 139.705C116.006 138.936 116.455 137.936 117.166 137.152C117.528 136.761 118.021 136.587 118.457 136.311C118.892 136.036 119.341 135.688 119.689 135.296C121.14 133.672 121.618 131.395 121.125 129.292C120.559 126.856 118.718 124.68 116.571 123.477C115.135 122.664 113.932 124.767 115.28 125.666C116.934 126.769 118.486 128.335 118.761 130.394C118.892 131.322 118.703 132.294 118.224 133.106C117.688 133.991 116.803 134.281 116.006 134.876C114.367 136.079 113.787 138.893 111.408 138.994C110.277 139.038 109.624 138.313 109.073 137.428C108.421 136.355 107.986 135.209 107.725 133.976C107.42 132.512 105.274 133.15 105.506 134.586H105.52Z" fill="#565656"/>
<path d="M119.588 128.016C122.227 126.638 123.692 123.738 123.271 120.794C122.822 117.589 120.516 115.283 117.659 114.006C116.252 113.368 114.686 112.846 113.627 111.657C112.728 110.642 112.206 109.351 111.394 108.278C109.436 105.639 106.216 105.247 103.214 106.233C99.9801 107.292 96.9781 110.743 98.3993 114.326C98.9649 115.747 100.879 115.196 100.662 113.702C100.154 110.207 103.185 108.321 106.347 108.292C109.508 108.263 110.146 111.744 112.032 113.658C114.207 115.863 117.746 115.993 119.66 118.502C121.574 121.011 121.096 124.376 118.384 126.029C117.108 126.812 118.239 128.712 119.544 128.03L119.588 128.016Z" fill="#565656"/>
<path d="M101.766 114.471C99.4016 112.107 95.776 110.584 92.4694 111.744C91.0772 112.237 89.8299 113.137 89.0323 114.398C88.0751 115.935 88.3942 117.545 88.0606 119.228C87.7416 120.808 86.5089 122.085 85.9433 123.578C85.3777 125.072 85.3632 126.914 85.8708 128.495C86.8714 131.613 90.0185 134.774 93.3686 135.224C94.5723 135.383 95.6019 133.73 94.2822 133.048C93.0495 132.425 91.8023 132.004 90.7146 131.12C89.6269 130.235 88.7713 129.118 88.3507 127.799C87.9591 126.58 87.9446 125.29 88.4957 124.115C89.0468 122.94 89.859 121.896 90.323 120.663C90.8161 119.358 90.5696 117.995 90.8596 116.661C91.1062 115.573 91.9328 114.746 92.9335 114.297C95.3844 113.18 98.2559 114.456 100.185 116.037C101.287 116.936 102.839 115.486 101.78 114.442L101.766 114.471Z" fill="#565656"/>
<path d="M93.5985 129.901C91.5682 136.993 94.8457 145.868 102.822 147.232C104.765 147.565 106.433 147.116 108.29 146.623C110.581 145.999 112.858 146.521 115.193 146.565C118.383 146.623 122.401 144.694 122.212 140.967C122.125 139.371 119.863 139.386 119.747 140.967C119.486 144.578 114.99 144.07 112.495 143.882C110.842 143.751 109.247 143.78 107.637 144.215C106.027 144.65 104.736 145.071 103.127 144.766C100.444 144.244 98.0798 142.344 96.7746 139.966C95.1938 137.065 95.1358 133.672 95.7594 130.496C96.035 129.089 93.9901 128.48 93.584 129.901H93.5985Z" fill="#565656"/>
<path d="M114.223 138.98C116.442 142.17 121.126 142.518 124.157 140.3C127.609 137.762 129.508 132.323 128.102 128.248C127.725 127.146 126.971 126.058 126.956 124.869C126.956 123.622 127.812 122.49 128.087 121.301C128.624 119.053 127.71 116.689 126.782 114.674C125.172 111.193 120.923 107.35 116.862 109.598C115.63 110.279 116.456 112.382 117.834 111.918C121.503 110.7 123.911 114.166 125.013 117.197C125.723 119.126 125.723 120.446 124.969 122.345C124.317 123.984 124.201 125.42 124.81 127.102C125.491 129.002 126.158 130.496 125.781 132.57C125.491 134.15 124.911 135.775 123.925 137.065C121.938 139.69 118.269 140.082 116.036 137.588C115.165 136.616 113.44 137.907 114.194 139.009L114.223 138.98Z" fill="#565656"/>
<path d="M117.862 114.746C119.776 106.378 111.756 97.4301 103.055 98.9383C100.938 99.3009 100.067 100.65 98.7186 102.129C97.1814 103.811 94.6869 103.985 92.6711 104.783C89.0455 106.204 86.203 109.105 84.8832 112.774C83.5635 116.443 83.4185 122.012 87.4937 123.738C88.5669 124.187 89.524 122.49 88.6394 121.765C85.5213 119.227 86.5365 114.238 88.5379 111.251C89.6401 109.598 91.2353 108.263 93.0482 107.451C94.861 106.639 97.0799 106.393 98.8927 105.334C100.546 104.377 101.431 102.027 103.287 101.563C105.375 101.041 107.942 101.853 109.77 102.839C113.772 105.015 116.368 109.54 115.6 114.137C115.353 115.587 117.514 116.254 117.862 114.761V114.746Z" fill="#565656"/>
<path d="M83.7953 115.892C79.6621 120.576 77.1967 126.885 78.1683 133.193C79.082 139.154 85.028 142.214 89.2628 145.738C91.8877 147.928 93.8601 150.625 96.311 152.975C98.0658 154.657 100.256 155.962 102.75 155.658C105.245 155.353 107.521 154.352 109.653 153.25C110.683 152.714 111.626 152.003 112.684 151.539C114.338 150.814 116.136 150.625 117.905 150.437C121.284 150.074 124.286 149.335 126.781 146.855C128.898 144.737 130.261 141.068 127.23 139.096C125.998 138.298 124.446 140.227 125.635 141.155C128.347 143.287 122.894 146.71 121.139 147.246C118.862 147.928 116.44 147.841 114.12 148.377C110.088 149.32 106.985 152.409 102.808 153.12C100.488 153.511 98.6604 151.873 97.1811 150.263C95.3248 148.218 93.599 146.159 91.4962 144.36C89.5383 142.707 87.4645 141.199 85.4631 139.603C83.6358 138.124 81.736 136.514 80.9528 134.223C79.0385 128.596 81.8665 121.852 85.3906 117.502C86.2898 116.399 84.767 114.804 83.7953 115.906V115.892Z" fill="#565656"/>
<path d="M123.053 139.43C125.461 142.852 131.044 141.663 133.944 139.546C137.599 136.863 138.469 131.018 137.817 126.798C137.454 124.492 136.468 122.389 134.974 120.591C134.206 119.663 133.277 118.822 132.712 117.748C132.088 116.588 131.871 115.225 131.653 113.934C131.247 111.541 130.841 109.308 129.608 107.176C128.463 105.204 126.911 103.492 125.083 102.129C120.66 98.7936 114.033 97.4014 108.942 100.026C107.666 100.679 108.551 102.84 109.928 102.361C115.28 100.534 120.921 101.462 125.025 105.537C126.809 107.307 128.085 109.453 128.637 111.918C129.115 114.108 129.217 116.385 130.145 118.445C131.073 120.504 132.857 121.78 133.973 123.665C135.424 126.102 135.467 128.727 135.163 131.468C134.873 134.049 134.017 136.674 131.566 137.95C129.826 138.864 126.374 139.807 124.895 137.979C124.068 136.95 122.284 138.313 123.053 139.401V139.43Z" fill="#565656"/>
<path d="M79.9086 128.466C76.921 123.419 74.7167 117.56 76.6455 111.686C77.2401 109.859 77.9507 108.8 79.72 108.119C80.6917 107.741 81.5908 107.393 82.49 106.842C85.0279 105.276 87.5079 103.565 89.8428 101.694C91.9747 99.9826 93.9905 98.2423 95.0782 95.7044C96.2964 92.8329 101.169 92.4703 103.867 92.4993C110.03 92.5428 115.425 95.8494 117.92 101.505C118.5 102.811 120.646 101.882 120.226 100.534C118.732 95.8349 114.526 92.3978 109.943 90.8751C105.36 89.3523 98.1962 89.2363 94.179 92.5428C93.4104 93.181 93.0333 93.9061 92.6708 94.8052C92.0907 96.2555 91.0465 97.2272 89.9008 98.2858C87.6964 100.302 85.2455 102.013 82.7656 103.652C81.7069 104.348 80.6917 105.044 79.517 105.508C78.5598 105.885 77.4721 106.19 76.66 106.842C74.8327 108.322 74.0495 111.135 73.716 113.354C72.8458 118.995 74.5281 125.377 78.1247 129.829C78.9514 130.859 80.5757 129.539 79.9231 128.437L79.9086 128.466Z" fill="#565656"/>
<path d="M84.9077 80.7227C84.3131 80.0556 83.9795 79.2144 83.8345 78.2718C83.8635 78.4603 83.82 78.0252 83.82 78.0542C83.82 77.9672 83.82 77.8802 83.82 77.7932C83.82 77.5321 83.82 77.2566 83.849 76.9955C83.849 76.8795 83.878 76.7635 83.936 76.5315C83.994 76.2559 84.081 75.9804 84.1825 75.7048C84.2695 75.4873 84.0665 75.9369 84.2405 75.5598C84.2985 75.4438 84.3566 75.3277 84.4291 75.2117C84.5016 75.0957 84.5596 74.9797 84.6466 74.8782C84.7771 74.6896 84.7336 74.7476 84.6901 74.8057C84.8351 74.6026 85.0237 74.4286 85.1977 74.2546C85.2702 74.182 85.3427 74.124 85.4297 74.0515C85.4297 74.0515 85.5603 73.9645 85.6328 73.9065C86.0534 73.6309 86.3144 73.5004 86.677 73.3844C86.88 73.3119 87.0685 73.2539 87.2716 73.2104C87.3876 73.1814 87.5181 73.1524 87.6341 73.1379C87.4456 73.1669 87.8807 73.1089 87.9242 73.1089C88.1272 73.1089 88.3303 73.1089 88.5333 73.1089C88.5333 73.1089 88.9394 73.1379 88.6928 73.1089C88.7943 73.1089 88.8959 73.1379 88.9829 73.1669C89.2004 73.2104 89.4034 73.2684 89.6065 73.3409C89.94 73.4569 89.4469 73.2394 89.7515 73.4134C89.853 73.4714 89.9545 73.5294 90.0561 73.5874C90.0561 73.5874 90.3751 73.8195 90.2011 73.6745C90.2881 73.747 90.3751 73.834 90.4621 73.9065C90.6362 74.0805 90.8102 74.2691 90.9552 74.4576C91.1002 74.6461 91.2308 74.8492 91.3468 75.0522C91.4628 75.2987 91.2598 74.8202 91.4193 75.2262C91.4483 75.2987 91.4483 75.4583 91.4338 75.3422L91.4918 75.2262C91.4483 75.3278 91.4048 75.4293 91.3613 75.5308C91.3468 75.5743 91.3323 75.6323 91.3033 75.6758C91.2598 75.8208 91.2163 75.9659 91.1872 76.1109C91.1002 76.4444 91.0422 76.7925 90.9842 77.1261C90.8247 77.9527 90.6652 78.7939 90.3751 79.577C90.3751 79.606 90.2301 79.9396 90.3461 79.6785C90.3026 79.7655 90.2591 79.867 90.2156 79.9541C90.1721 80.0411 90.1141 80.1136 90.0706 80.2006C90.0415 80.2586 89.998 80.3021 89.969 80.3601C90.0706 80.2441 90.0706 80.2296 89.998 80.3311C89.969 80.3601 89.911 80.4181 89.882 80.4471C89.7805 80.5342 89.795 80.5197 89.94 80.4181C89.8965 80.4471 89.853 80.4761 89.8095 80.5052C89.795 80.4471 90.0561 80.4761 89.766 80.5052C89.998 80.4761 89.766 80.5052 89.6645 80.5052C88.4898 80.5632 87.2281 80.3601 86.1984 81.0852L86.793 80.9257C86.5754 80.8967 86.0824 80.8242 85.7198 80.7227C85.6328 80.6937 85.5458 80.6792 85.4588 80.6502C85.4588 80.6502 85.1687 80.5487 85.3137 80.6067C85.4588 80.6647 85.2122 80.5632 85.1832 80.5487C85.0962 80.5051 85.0237 80.4471 84.9367 80.4036C84.7481 80.3021 85.0092 80.4761 84.9077 80.4036C84.8497 80.3456 84.7916 80.3021 84.7336 80.2441C84.7191 80.2296 84.5306 80.0266 84.6321 80.1426C84.7336 80.2586 84.5596 80.0411 84.5451 80.0121C84.4436 79.838 84.3566 79.664 84.2695 79.49C84.2695 79.461 84.168 79.2434 84.226 79.374C84.1825 79.2579 84.139 79.1274 84.0955 78.9969C83.6314 77.6191 81.6156 78.1702 81.9201 79.5915C82.1957 80.8967 82.9353 82.0859 84.1825 82.6515C84.7771 82.9271 85.3862 83.0866 86.0244 83.1881C86.5609 83.2751 86.996 83.3476 87.4891 83.0721C87.6776 82.9561 87.5761 83.0141 87.5181 83.0286C87.5906 82.9996 87.6776 82.9706 87.7502 82.9561C87.8227 82.9416 87.9097 82.9126 87.9967 82.8981C87.8662 82.9126 87.9967 82.8981 88.0547 82.8981C89.3889 82.8401 90.7812 83.0721 91.7528 81.9264C92.5505 80.9837 92.8841 79.722 93.1306 78.5328C93.2466 78.0107 93.3336 77.4886 93.4351 76.9665C93.4787 76.7635 93.5222 76.546 93.5947 76.3429C93.6092 76.2849 93.6817 76.0384 93.6237 76.2559C93.5367 76.5315 93.6962 76.1109 93.7252 76.0094C93.7687 75.8498 93.7977 75.6903 93.8267 75.5163C93.9137 74.6316 93.4787 73.805 92.9566 73.1089C92.4635 72.4707 91.9414 71.8761 91.2453 71.4556C88.7798 69.9618 85.1832 70.7014 83.2689 72.7753C80.847 75.3858 80.9195 79.6785 83.3414 82.26C83.762 82.695 84.5016 82.6805 84.9222 82.26C85.3717 81.8104 85.3282 81.1288 84.9222 80.6792L84.9077 80.7227Z" fill="#565656"/>
<path d="M92.5943 74.7475C94.3636 73.7178 95.4368 71.586 94.8567 69.5556C94.2766 67.5253 91.9272 66.2926 89.9404 66.104C88.9397 66.0025 88.0405 66.4086 87.2719 66.9307C87.3299 66.8872 87.4314 66.9597 87.4459 66.9017C87.4459 66.9017 87.1124 66.7276 87.1414 66.7421C86.9093 66.6406 86.6773 66.5391 86.4307 66.4666C85.9232 66.3216 85.3866 66.2781 84.8645 66.3361C83.1532 66.5101 82.022 67.5253 81.3114 69.0335C80.4847 70.7738 80.1802 72.9202 81.6159 74.443C82.0655 74.9071 82.8631 74.8926 83.3127 74.443C83.8058 73.9499 83.7188 73.2538 83.3127 72.7462C83.0517 72.4271 83.0081 71.847 83.0807 71.4119C83.2112 70.7158 83.3997 70.2807 83.7478 69.7151C83.8348 69.5846 83.9218 69.4541 84.0088 69.3236C83.8493 69.5411 84.1103 69.2076 84.1393 69.1786C84.2264 69.077 84.4874 68.9465 84.1829 69.106C84.3279 69.0335 84.4294 68.961 84.5889 68.903C84.937 68.7725 85.314 68.7725 85.6911 68.845C86.1117 68.9465 86.4743 69.2221 86.8948 69.3381C87.4459 69.4831 88.026 69.3526 88.5191 69.0915C88.8092 68.932 89.0847 68.6565 89.4183 68.584C90.1869 68.4244 91.1876 69.019 91.8112 69.4106C92.3478 69.7442 92.6088 70.3388 92.5508 70.9624C92.4638 71.818 91.8257 72.4561 91.2166 72.9782C90.2159 73.8339 91.5066 75.4001 92.5943 74.762V74.7475Z" fill="#565656"/>
<path d="M84.0665 82.4629C83.5154 83.7826 83.3269 85.1314 83.4429 86.5526C83.5734 88.0754 84.2696 89.2356 85.7198 89.8302C87.3006 90.4683 88.9829 90.0332 90.4621 89.2936C91.0712 88.989 91.5498 88.6845 92.2314 88.6555C93.0436 88.6265 93.7832 88.4959 94.5083 88.1189C95.7411 87.4808 96.5967 86.2916 97.3943 85.2039C97.8874 84.5223 98.25 83.7681 98.4385 82.927C98.8591 81.0997 98.7431 79.1273 97.9744 77.416C96.9883 75.2406 94.6969 74.24 92.4055 74.8346C91.7384 75.0086 91.3323 75.7482 91.5208 76.4008C91.7239 77.1115 92.4055 77.416 93.0871 77.2855C93.3626 77.242 93.2901 77.242 93.4642 77.2275C93.6672 77.213 93.8557 77.2275 94.0443 77.2275C94.2618 77.2275 93.8557 77.184 94.0588 77.2275C94.1313 77.2275 94.2183 77.2565 94.2908 77.271C94.3633 77.2855 94.4358 77.3145 94.5083 77.329C94.5663 77.3435 94.6099 77.358 94.6679 77.387C94.5518 77.329 94.5228 77.329 94.6099 77.3725C94.7404 77.445 94.8564 77.5175 94.9869 77.59C94.8419 77.4595 95.1465 77.6916 94.9869 77.59C95.0594 77.6481 95.1174 77.7061 95.1755 77.7786C95.2335 77.8366 95.48 78.1411 95.3205 77.9381C95.422 78.0686 95.509 78.2137 95.5815 78.3587C95.6105 78.4167 95.8136 78.8373 95.7265 78.6197C95.7846 78.7648 95.8426 78.9098 95.8861 79.0548C95.9876 79.4029 96.0746 79.7509 96.1181 80.099C96.0891 79.8524 96.1326 80.3165 96.1326 80.36C96.1326 80.5196 96.1471 80.6791 96.1471 80.8386C96.1471 81.2012 96.1471 81.5492 96.0891 81.9118C96.1181 81.6653 96.0601 82.0713 96.0456 82.1438C96.0166 82.2889 95.9731 82.4339 95.9441 82.5789C95.9006 82.7384 95.8426 82.8835 95.7991 83.0285C95.7411 83.2025 95.8861 82.84 95.7991 83.014C95.7701 83.0865 95.7266 83.159 95.6975 83.2315C95.2915 84.0002 94.6824 84.7543 94.0733 85.3634C93.7832 85.6535 93.4497 85.9145 93.0726 86.0595C92.4925 86.2771 91.8254 86.1465 91.2308 86.2771C90.0126 86.5381 89.0699 87.4373 87.8372 87.6548C87.3441 87.7418 86.8365 87.7128 86.4014 87.4518C86.0099 87.2197 85.9228 87.0022 85.8648 86.6251C85.7053 85.3779 85.8648 84.2177 86.2854 83.0575C86.5029 82.4774 86.0389 81.7958 85.4878 81.6363C84.8207 81.4477 84.3131 81.8683 84.0665 82.4339V82.4629Z" fill="#565656"/>
<path d="M97.336 83.3331C99.8014 83.3186 101.89 81.7233 102.876 79.4899C103.935 77.068 103.413 74.5011 101.846 72.4417C101.15 71.5281 100.251 70.6144 100.004 69.4542C99.7579 68.294 100.004 66.9888 99.8159 65.7851C99.3663 63.0731 96.6689 61.8259 94.1744 61.5793C91.535 61.3328 88.0834 62.841 87.6773 65.7706C87.5903 66.3652 87.7643 66.9162 88.3589 67.1628C88.852 67.3658 89.5771 67.2208 89.8237 66.6842C90.2733 65.7125 90.8099 64.8859 91.8105 64.4363C92.9562 63.9287 94.276 64.0447 95.4217 64.4363C96.5674 64.8279 97.2925 65.408 97.394 66.6697C97.4955 67.9314 97.3215 69.0771 97.626 70.2518C98.2061 72.5432 100.628 73.892 100.947 76.2559C101.237 78.4748 99.6274 80.7952 97.336 81.0127C95.8857 81.1432 95.8277 83.3331 97.336 83.3186V83.3331Z" fill="#565656"/>
<path d="M90.3602 67.1775C89.8381 65.1327 88.5329 63.2329 86.604 62.3047C84.6752 61.3765 82.3258 61.42 80.5855 62.6673C79.6573 63.3344 79.1497 64.2625 78.4826 65.1617C77.8155 66.0609 76.8873 66.4524 76.0027 67.0035C74.0013 68.2217 72.7396 70.0636 72.4931 72.3985C72.2465 74.7334 73.3487 77.8514 75.4226 79.2001C76.4088 79.8383 77.685 78.562 77.0469 77.5759C76.4088 76.5897 75.6401 75.8356 75.2776 74.7044C74.973 73.7472 74.9295 72.7755 75.205 71.8039C75.8577 69.527 78.1201 69.0629 79.7153 67.6416C80.5275 66.9165 80.9335 65.9158 81.6587 65.1327C82.2968 64.4511 83.2249 64.2045 84.1386 64.248C86.0964 64.3496 87.5177 66.0754 88.1848 67.7722C88.6924 69.1064 90.7373 68.6133 90.3602 67.1775Z" fill="#565656"/>
<path d="M81.5133 75.2408C79.3669 75.1248 77.3511 76.7926 76.0168 78.3154C74.4506 80.0847 73.2033 82.2601 73.4644 84.6965C73.7399 87.3214 75.0887 89.8594 77.3656 91.2806C78.7288 92.1218 80.2081 92.1653 81.7018 92.5859C83.1956 93.0064 84.3268 93.9491 85.6175 94.6597C87.9379 95.9359 91.9116 96.5741 93.3909 93.6735C94.116 92.2378 92.1726 91.1501 91.259 92.4263C89.6637 94.6597 86.3281 92.1363 84.7619 91.2371C84.0947 90.8601 83.3841 90.4975 82.6445 90.2654C81.8033 89.9899 80.9332 89.9319 80.0775 89.7289C78.8448 89.4243 77.8151 88.6847 77.09 87.6405C76.3649 86.5963 75.9443 85.3491 75.9153 84.0874C75.8863 83.0722 76.3359 82.144 76.8725 81.2884C77.4961 80.2877 78.3227 79.3886 79.2364 78.6489C79.86 78.1558 80.7011 77.5467 81.5133 77.5032C82.9635 77.4307 82.9635 75.3278 81.5133 75.2553V75.2408Z" fill="#565656"/>
<path d="M88.3027 88.8155C88.4913 91.861 91.5513 93.8768 94.4518 93.6448C97.5988 93.3838 100.847 91.0924 102.399 88.3514C103.24 86.8576 103.284 85.0593 104.241 83.6381C105.198 82.2168 106.648 81.2741 107.316 79.6064C108.273 77.1844 108.998 72.9642 106.663 71.1079C105.633 70.2812 104.357 69.7737 103.11 69.3676C101.993 69.005 100.673 68.5699 99.4842 68.6715C97.8309 68.8165 97.8744 71.0064 99.4842 71.2094C100.282 71.3109 101.399 71.572 102.283 71.862C103.168 72.1521 104.459 72.5146 105.126 73.2107C105.981 74.1244 105.517 76.2563 105.285 77.373C105.14 78.0691 104.966 78.8087 104.56 79.4033C104.081 80.1284 103.342 80.6795 102.776 81.3322C101.66 82.6084 101.123 84.0586 100.673 85.6684C100.224 87.2782 99.2666 88.4239 98.0194 89.4681C96.7722 90.5123 95.2204 91.3679 93.5962 91.1939C92.0589 91.0343 90.9132 90.0047 90.6086 88.5109C90.3476 87.2347 88.2302 87.4957 88.3172 88.8155H88.3027Z" fill="#565656"/>
<path d="M113.622 12.8802C113.825 12.5901 113.492 13.0107 113.724 12.7497C113.796 12.6626 113.869 12.5901 113.956 12.5031C114.014 12.4451 114.072 12.4016 114.115 12.3436C114.347 12.1116 113.956 12.4306 114.231 12.2421C114.391 12.1406 114.536 12.039 114.695 11.9375C114.797 11.8795 114.898 11.836 114.985 11.778C115.275 11.6185 114.811 11.836 115.116 11.72C115.304 11.6475 115.507 11.5895 115.71 11.5315C115.797 11.5024 115.899 11.4879 115.986 11.4734C116.334 11.4009 115.768 11.4734 116.131 11.4589C116.32 11.4444 116.508 11.4299 116.697 11.4299C116.813 11.4299 116.929 11.4299 117.045 11.4444C117.291 11.4444 116.914 11.4009 117.19 11.4589C117.378 11.5024 117.567 11.5315 117.755 11.5895C117.871 11.6185 117.973 11.662 118.089 11.7055C117.871 11.6185 118.219 11.7635 118.234 11.778C118.669 11.9955 118.828 12.1261 119.075 12.3436C119.409 12.6481 119.554 12.8512 119.713 13.0832C119.829 13.2573 119.931 13.4313 120.018 13.6198C120.047 13.6923 120.076 13.7503 120.119 13.8228C120.177 13.9534 120.177 13.9534 120.119 13.8519C120.148 13.9244 120.177 13.9824 120.192 14.0549C120.25 14.2289 120.293 14.403 120.337 14.577C120.366 14.6785 120.38 14.7945 120.395 14.896C120.366 14.664 120.395 14.8525 120.395 14.896C120.395 15.0991 120.395 15.3166 120.395 15.5196C120.351 15.7372 120.395 15.5777 120.395 15.5196C120.366 15.6502 120.337 15.7807 120.293 15.9112C120.293 15.9112 120.177 16.2158 120.25 16.0562C120.322 15.8967 120.177 16.1868 120.177 16.1868C120.076 16.3608 119.96 16.5348 119.844 16.6943C119.771 16.7814 119.554 17.0424 119.394 17.1729C119.438 17.1294 119.525 17.1004 119.336 17.2019C119.206 17.2745 119.191 17.2745 119.307 17.2164C119.38 17.2019 119.438 17.2164 119.496 17.2164C119.235 17.2599 118.901 17.1294 118.625 17.1149C118.277 17.1149 117.915 17.1149 117.567 17.1149C117.219 17.1149 116.885 17.1149 116.552 17.1149C116.378 17.1149 116.203 17.1149 116.029 17.0859C115.928 17.0859 115.826 17.0714 115.725 17.0569C116.015 17.0859 115.667 17.0569 115.609 17.0279C115.406 16.9844 115.217 16.9409 115.029 16.8829C114.927 16.8539 114.913 16.7814 115.072 16.9119C115 16.8539 114.884 16.7814 114.797 16.7524C114.971 16.8249 114.942 16.8684 114.855 16.7959C114.768 16.6943 114.782 16.7234 114.898 16.8684C114.869 16.8249 114.84 16.7814 114.826 16.7379C114.956 16.8684 114.884 16.9119 114.826 16.7524C114.797 16.6508 114.768 16.5493 114.739 16.4478C114.492 15.5051 114.289 14.5045 113.535 13.8228L113.883 14.664C113.84 14.2869 113.796 13.9099 113.782 13.5328C113.782 13.3733 113.782 13.2137 113.811 13.0542C113.782 13.1992 113.811 13.1992 113.811 13.0542C113.825 12.9817 113.84 12.9092 113.869 12.8512C113.883 12.7932 113.912 12.7497 113.927 12.6917C113.825 12.9672 113.927 12.7352 113.956 12.6772C113.985 12.6336 114.014 12.5756 114.043 12.5321C113.912 12.7497 113.999 12.5901 114.043 12.5321C114.086 12.4741 114.159 12.4306 114.202 12.3726C114.42 12.1551 114.101 12.4451 114.231 12.3436C114.391 12.2131 114.565 12.097 114.739 11.9955C115.261 11.6765 115.449 10.9804 115.145 10.4438C114.811 9.86366 114.159 9.79115 113.593 10.0377C112.505 10.5163 111.65 11.4589 111.461 12.6626C111.36 13.2573 111.374 13.8374 111.432 14.432C111.461 14.664 111.476 14.9105 111.563 15.1281C111.635 15.2876 111.722 15.4181 111.838 15.5487C111.867 15.5777 112.012 15.7227 111.911 15.6067C111.838 15.5196 111.998 15.7517 112.027 15.8097C112.056 15.8532 112.114 16.0127 112.027 15.8097C112.056 15.8967 112.085 15.9692 112.114 16.0562C112.462 17.1584 112.549 18.2751 113.651 18.9132C114.623 19.4788 115.841 19.5223 116.929 19.5223C117.407 19.5223 117.9 19.5078 118.379 19.5223C118.422 19.5223 118.872 19.5513 118.872 19.5513C118.857 19.6094 118.567 19.4933 118.727 19.5368C118.785 19.5368 118.828 19.5513 118.886 19.5658C119.177 19.6094 119.438 19.6239 119.742 19.5658C120.554 19.3918 121.149 18.7827 121.642 18.1591C122.063 17.6225 122.411 17.0424 122.57 16.3753C123.165 13.9099 121.729 11.0819 119.554 9.87816C116.871 8.39891 113.303 9.18204 111.621 11.778C111.287 12.2856 111.519 13.0107 112.027 13.3153C112.578 13.6488 113.216 13.4168 113.564 12.9092L113.622 12.8802Z" fill="#565656"/>
<path d="M119.931 18.4055C121.208 19.8122 123.557 20.3633 125.181 19.2031C126.051 18.5795 126.458 17.7093 126.675 16.6797C126.849 15.8095 126.965 14.8668 126.675 14.0112C126.53 13.5471 126.298 13.141 125.964 12.7785C125.863 12.677 125.689 12.4304 125.558 12.3724C125.428 12.3144 125.573 12.3434 125.558 12.4304C125.558 12.4304 125.558 12.5755 125.587 12.59C125.587 12.59 125.718 11.7343 125.718 11.7923C125.718 11.6038 125.718 11.4298 125.718 11.2412C125.66 10.6901 125.515 10.197 125.283 9.68945C124.688 8.47124 123.485 7.84763 122.223 7.58658C120.599 7.25302 118.771 7.45606 117.829 8.96432C117.481 9.51542 117.713 10.2841 118.264 10.6031C118.873 10.9657 119.511 10.6901 119.902 10.168C119.772 10.3421 119.96 10.168 120.018 10.0955C120.12 10.0085 119.96 10.1245 119.96 10.139C120.004 10.11 120.033 10.081 120.076 10.0665C120.178 10.0085 120.396 9.93599 120.163 10.0085C120.265 9.9795 120.381 9.95049 120.483 9.92149C120.773 9.84898 120.381 9.90699 120.599 9.90699C120.7 9.90699 120.802 9.90699 120.903 9.90699C121.019 9.90699 121.135 9.90699 121.266 9.92149C121.324 9.92149 121.367 9.92149 121.425 9.93599C121.251 9.92149 121.324 9.92149 121.454 9.93599C121.672 9.9795 121.875 10.023 122.078 10.081C122.165 10.11 122.252 10.139 122.339 10.168C122.382 10.168 122.426 10.197 122.469 10.2115C122.614 10.255 122.252 10.0955 122.455 10.2115C122.6 10.2841 122.73 10.3566 122.875 10.4436C123.064 10.5451 122.803 10.3711 122.817 10.3856C122.861 10.4871 122.962 10.5306 122.991 10.5741C123.18 10.8351 123.194 10.9077 123.282 11.2267C123.325 11.3862 123.325 11.6473 123.282 11.7923C123.078 12.735 123.209 13.4746 123.905 14.1707C124.123 14.3738 124.253 14.4753 124.34 14.6638C124.34 14.6928 124.413 14.7943 124.34 14.6638C124.355 14.7218 124.369 14.7943 124.398 14.8523C124.413 14.8814 124.427 14.9829 124.398 14.8523C124.413 14.9684 124.413 15.0844 124.413 15.1859C124.413 15.6645 124.355 16.2301 124.152 16.7377C124.123 16.8102 124.079 16.8682 124.05 16.9262C123.934 17.1147 124.224 16.7377 123.978 17.0277C123.978 17.0277 123.833 17.1727 123.905 17.1002C123.963 17.0422 123.789 17.1727 123.775 17.1873C123.717 17.2163 123.659 17.2598 123.601 17.2743C123.746 17.2018 123.499 17.3033 123.47 17.3178C123.412 17.3323 123.34 17.3468 123.282 17.3613C123.412 17.3323 123.282 17.3613 123.224 17.3613C122.571 17.3613 121.976 17.0422 121.382 16.6072C120.932 16.2736 120.221 16.4911 119.917 16.8972C119.569 17.3613 119.612 17.9559 120.004 18.391L119.931 18.4055Z" fill="#565656"/>
<path d="M112.159 12.3147C109.94 11.8796 106.489 12.1407 106.01 14.9251C105.749 16.3899 106.358 17.7096 107.243 18.8408C107.547 19.2324 107.982 19.595 108.2 20.0445C108.476 20.6101 108.548 21.2627 108.911 21.7993C109.578 22.8 110.578 23.4381 111.652 23.9312C112.507 24.3228 113.276 24.6418 114.233 24.7288C115.799 24.8739 117.583 24.4533 118.874 23.5251C120.716 22.2054 121.18 19.9575 120.092 17.9707C119.759 17.3616 118.932 17.173 118.352 17.5211C117.699 17.8982 117.612 18.6233 117.902 19.2614C117.946 19.3774 118.091 19.798 118.149 20.0445C118.149 19.856 118.192 20.2476 118.149 20.0445C118.149 20.1025 118.149 20.1606 118.149 20.2186C118.149 20.2911 118.149 20.3636 118.149 20.4361C118.149 20.1606 118.149 20.3926 118.149 20.4651C118.12 20.5811 118.091 20.6971 118.047 20.8132C118.163 20.5376 117.989 20.8857 117.946 20.9582C117.917 21.0017 117.801 21.1467 117.96 20.9582C117.917 21.0162 117.873 21.0742 117.83 21.1177C117.728 21.2192 117.627 21.3208 117.525 21.4078C117.337 21.5528 117.482 21.4368 117.525 21.4078C117.467 21.4513 117.409 21.4948 117.351 21.5383C117.235 21.6108 117.134 21.6688 117.018 21.7413C116.902 21.8138 116.786 21.8573 116.669 21.9154C116.887 21.8138 116.452 21.9879 116.379 22.0169C116.104 22.1039 115.828 22.1764 115.538 22.2344C115.466 22.2489 115.393 22.2634 115.306 22.2779C115.321 22.2779 115.509 22.2489 115.364 22.2779C115.205 22.2924 115.031 22.3069 114.857 22.3069C114.712 22.3069 114.567 22.3069 114.422 22.3069C114.364 22.3069 114.016 22.2634 114.175 22.2924C114.32 22.3214 114.016 22.2634 113.958 22.2489C113.827 22.2199 113.696 22.1764 113.551 22.1329C113.392 22.0749 113.74 22.2199 113.493 22.1039C113.421 22.0749 113.334 22.0314 113.261 22.0024C113.058 21.9154 112.841 21.8138 112.638 21.7123C112.246 21.5238 111.826 21.3208 111.478 21.0307C110.81 20.4796 110.781 19.682 110.404 18.9423C109.94 18.0722 109.114 17.4631 108.664 16.5929C108.418 16.1143 108.258 15.1862 108.664 14.9687C109.491 14.5336 110.665 14.4611 111.565 14.6061C112.174 14.6931 112.797 14.4466 112.986 13.8084C113.145 13.2428 112.797 12.5177 112.188 12.3872L112.159 12.3147Z" fill="#565656"/>
<path d="M113.841 23.815C114.363 25.8888 116.161 27.4261 118.235 27.8612C120.541 28.3397 122.673 27.4406 124.108 25.6278C124.659 24.9317 125.196 24.047 126.052 23.6844C126.907 23.3219 127.879 23.3219 128.735 23.0173C131.113 22.1472 131.737 19.6817 131.403 17.3613C131.07 15.0409 129.039 12.1694 126.342 12.416C125.095 12.532 124.674 14.3593 126.023 14.7219C126.951 14.9684 127.748 15.302 128.3 16.1286C128.851 16.9553 129.01 17.9994 128.923 18.9856C128.822 20.0298 128.474 20.5084 127.487 20.7549C126.501 21.0015 125.588 21.1175 124.688 21.5671C122.948 22.4517 122.339 24.7576 120.468 25.3667C118.728 25.9323 116.669 24.9172 116.045 23.1914C115.537 21.8136 113.449 22.3357 113.812 23.8005L113.841 23.815Z" fill="#565656"/>
<path d="M125.877 15.1862C127.994 14.1275 129.517 11.8796 129.256 9.45768C129.125 8.25397 128.647 7.12277 127.82 6.22362C126.935 5.26645 125.746 5.06341 124.673 4.4253C123.6 3.78719 122.976 2.71401 122.019 1.98888C120.989 1.20574 119.742 0.799672 118.451 0.770667C116.116 0.72716 113.216 2.27893 112.491 4.64284C112.143 5.78854 113.651 6.61518 114.478 5.80304C115.13 5.15043 115.565 4.3963 116.377 3.90321C117.074 3.48264 117.857 3.29411 118.669 3.35212C120.627 3.51164 121.526 5.35346 122.976 6.39765C123.745 6.94874 124.687 7.10827 125.47 7.61586C126.094 8.02193 126.486 8.67454 126.631 9.39967C126.95 10.9514 125.935 12.3727 124.702 13.2283C123.469 14.084 124.528 15.8243 125.848 15.1862H125.877Z" fill="#565656"/>
<path d="M117.409 8.95016C117.046 7.10834 115.248 5.71609 113.711 4.84594C112.029 3.87427 109.984 3.16365 108.04 3.68574C105.764 4.29485 103.82 5.99164 103.037 8.22503C102.587 9.48675 102.805 10.705 102.834 12.0102C102.863 13.3154 102.312 14.5916 101.978 15.8679C101.384 18.2173 101.819 21.6689 104.603 22.394C105.909 22.7276 106.866 20.7407 105.546 20.1461C103.313 19.1164 104.473 16.3609 104.951 14.6061C105.154 13.852 105.314 13.0834 105.328 12.3002C105.328 11.6331 105.212 10.9805 105.212 10.3134C105.198 9.26921 105.589 8.29754 106.3 7.52891C107.721 6.02065 109.433 5.7306 111.318 6.45572C112.652 6.97781 114.77 8.13802 115.234 9.57377C115.698 11.0095 117.685 10.3859 117.409 8.97916V8.95016Z" fill="#565656"/>
<path d="M107.489 16.9412C104.98 17.6083 103.994 20.5668 104.632 22.8727C105.386 25.6282 108.04 27.9486 110.665 28.9058C112.086 29.4279 113.638 29.1378 115.045 29.6599C116.524 30.1965 117.597 31.3422 119.222 31.5887C121.397 31.9223 125.11 31.8353 126.212 29.5004C126.719 28.4272 126.865 27.1945 126.937 26.0343C126.995 25.0191 127.082 23.8009 126.719 22.8292C126.255 21.5965 124.066 21.64 124.225 23.1628C124.414 24.8596 124.443 26.6144 123.92 28.2532C123.906 28.3112 123.674 28.6592 123.848 28.4562C123.79 28.5142 123.297 28.7317 123.079 28.8043C122.441 29.0073 121.76 29.0798 121.093 29.0943C120.353 29.1088 119.57 29.1378 118.874 28.8478C118.178 28.5577 117.583 28.0356 116.93 27.6876C115.611 26.9624 114.262 26.8029 112.797 26.6724C111.332 26.5419 109.911 25.7587 108.78 24.7581C107.156 23.3078 105.763 20.2623 108.403 19.0586C109.636 18.493 108.751 16.5931 107.504 16.9267L107.489 16.9412Z" fill="#565656"/>
<path d="M71.9019 108.539C64.5346 103.622 56.0216 107.204 48.5819 109.858C46.2324 110.7 43.825 111.106 41.6351 109.612C39.6628 108.249 38.14 105.972 37.1249 103.825C34.7174 98.6915 37.8065 94.1667 41.0115 90.28L38.8797 89.3954C39.2422 92.3249 40.4894 95.0079 42.6938 97.0092C45.2173 99.3151 48.3208 100.069 51.6564 100.301C55.5576 100.591 59.0092 100.968 62.4173 103.042C65.6223 105 68.1603 107.712 70.6692 110.453C71.7714 111.657 73.4682 109.902 72.4385 108.684C68.3778 103.84 63.0844 99.1991 56.6453 98.1839C53.3097 97.6618 49.6405 98.1694 46.537 96.6177C43.4335 95.0659 41.7657 92.2669 41.3161 89.0618C41.1856 88.1627 39.7788 87.8146 39.2277 88.5107C36.1677 92.3539 32.8756 96.7337 33.8908 101.955C34.7029 106.088 38.0385 111.106 42.0992 112.643C46.682 114.354 51.5114 111.164 55.8041 109.829C60.735 108.292 66.1589 107.596 70.6982 110.584C71.9744 111.425 73.1491 109.38 71.8874 108.539H71.9019Z" fill="#565656"/>
<path d="M41.5366 90.3962C41.4061 88.4239 41.6962 86.379 43.0739 84.8853C44.1761 83.6816 45.6553 82.7824 47.1491 82.1443C48.4978 81.5787 50.2817 81.0131 51.7319 81.4482C53.1822 81.8833 53.8348 83.58 54.1973 84.8563C54.4004 85.5669 54.5309 86.321 54.4584 87.0607C54.3859 87.9163 54.0523 88.7429 53.9943 89.6131C53.8638 91.4549 54.5454 93.1662 55.3285 94.776C56.8368 97.8505 58.6496 101.462 61.9562 102.926C63.3919 103.565 64.6681 101.563 63.2179 100.766C60.3899 99.1848 58.9252 96.2988 57.5474 93.4853C56.7788 91.919 56.3147 90.3962 56.7498 88.6559C57.1123 87.2637 57.0833 85.8859 56.7498 84.4792C56.0972 81.7962 54.4439 79.1568 51.5144 78.8087C48.5849 78.4607 45.7424 79.7369 43.48 81.2741C40.2894 83.4495 38.5056 86.7996 39.3322 90.7008C39.5933 91.9335 41.6236 91.6725 41.5366 90.3962Z" fill="#565656"/>
<path d="M58.4455 96.6757C56.5022 95.617 54.5589 94.5438 52.659 93.4126C50.9332 92.3975 49.0479 91.4113 47.4961 90.1206C46.2489 89.0909 45.7993 87.6551 45.4223 86.1179C45.1032 84.8417 46.2489 83.2029 47.1336 82.3617C48.1343 81.4046 46.829 79.6643 45.6398 80.4329C44.7842 80.984 44.1896 81.8686 43.769 82.7823C43.3919 83.5944 42.9569 84.5371 42.8843 85.4508C42.8118 86.4514 43.2904 87.3361 43.566 88.2642C43.856 89.2649 44.1606 90.1061 44.8422 90.9327C46.2634 92.644 48.4968 93.7607 50.3821 94.8774C52.6445 96.2261 54.9359 97.5024 57.2998 98.6771C58.6196 99.3297 59.7653 97.4008 58.46 96.6902L58.4455 96.6757Z" fill="#565656"/>
<path d="M51.9764 77.9966C49.5545 74.5305 44.8412 73.7763 40.882 73.9939C35.8931 74.2549 33.0651 77.373 32.398 82.2168C32.0209 84.9578 32.0209 87.6988 31.3103 90.3962C30.5997 93.0937 29.2365 95.5446 28.2793 98.1841C26.6985 102.52 27.4817 107.437 30.7302 110.816C33.6162 113.818 40.2149 116.414 43.5795 112.759C44.6526 111.599 42.9703 109.902 41.8392 111.019C40.0843 112.73 36.8938 111.903 34.9795 110.903C32.7751 109.757 31.1218 107.814 30.3822 105.45C28.7869 100.403 32.34 96.0522 33.6452 91.3679C34.2543 89.149 34.5009 86.9011 34.6749 84.6242C34.8779 82.0573 35.1535 78.7507 37.6624 77.3149C39.5187 76.2563 42.1002 76.4013 44.1596 76.6333C46.509 76.8944 48.5103 77.7065 50.1491 79.4468C51.0338 80.3895 52.7595 79.1278 51.9764 78.0256V77.9966Z" fill="#565656"/>
<path d="M35.0656 115.195C36.5884 118.43 39.0683 121.287 42.4184 122.693C45.5219 123.999 49.3506 123.897 52.1641 121.925C53.7884 120.793 54.7891 119.024 56.3698 117.864C57.8636 116.776 59.6329 116.138 61.1267 115.065C63.6791 113.223 65.695 109.293 62.896 106.683C61.7358 105.609 60.1115 107.248 61.1557 108.423C63.4906 111.019 59.1688 113.455 57.327 114.456C56.1088 115.108 54.9051 115.805 53.9044 116.762C52.7877 117.82 51.9321 119.184 50.6123 120.025C48.3064 121.504 45.2174 121.403 42.81 120.199C40.214 118.894 38.3722 116.559 37.0525 114.021C36.3708 112.701 34.4565 113.861 35.0801 115.181L35.0656 115.195Z" fill="#565656"/>
<path d="M72.4378 107.988C67.7245 100.432 71.9592 90.5555 66.7818 83.1592C65.7521 81.6945 64.4614 80.5198 62.8951 79.6496C61.0823 78.649 59.5741 77.4017 57.8628 76.2705C55.5859 74.7623 51.3221 74.7188 50.7565 78.1124C50.4955 79.6496 52.8449 80.3167 53.1204 78.765C53.7151 75.4004 59.168 80.4618 60.3137 81.0854C61.851 81.9265 63.3157 82.6516 64.4324 84.0584C65.4766 85.3781 66.1582 86.9589 66.5933 88.5832C68.4061 95.3414 66.1582 103.086 70.4655 109.162C71.3066 110.351 73.2354 109.278 72.4523 108.002L72.4378 107.988Z" fill="#565656"/>
<path d="M70.7421 99.9968C70.3215 97.0093 72.7434 94.5584 74.1501 92.1945C75.3103 90.2511 75.9775 88.1338 76.1225 85.8714C76.4125 81.7236 74.8898 76.6188 71.4962 74.0083C69.6979 72.6306 67.392 72.3695 65.4776 71.1803C63.5633 69.9911 62.0405 68.3378 60.3437 66.8876C56.9501 64.0016 52.9475 62.5513 48.5242 63.813C44.1009 65.0747 39.7502 69.324 38.4449 73.9648C38.0824 75.241 39.9387 76.0532 40.6058 74.8785C41.8965 72.5871 42.9697 70.3827 44.9856 68.6134C47.1029 66.757 49.9454 65.6548 52.7734 65.9159C57.8638 66.3655 60.6193 71.4994 64.825 73.7618C67.2324 75.067 69.8139 75.241 71.4382 77.6919C72.9609 79.9833 73.7151 82.8548 73.5845 85.5813C73.4395 88.6849 71.9313 90.9182 70.336 93.4562C68.9292 95.6896 68.0446 97.9375 68.5087 100.606C68.7552 102.085 70.9306 101.433 70.7275 99.9968H70.7421Z" fill="#565656"/>
<path d="M72.3812 111.367C73.3964 111.41 74.049 110.598 74.6726 109.902C75.3687 109.119 75.9923 108.263 76.5289 107.364C77.6311 105.508 78.3998 103.42 78.7333 101.288C79.3859 97.1255 78.6318 92.1076 75.9198 88.743C74.9917 87.5828 73.3674 89.0621 73.962 90.2513C74.7451 91.8321 75.5573 93.2533 75.9923 94.9936C76.4274 96.7339 76.5434 98.5177 76.3404 100.287C76.1519 101.94 75.6733 103.579 74.9482 105.073C74.5856 105.827 74.165 106.552 73.7009 107.234C73.4399 107.611 73.1788 107.973 72.8888 108.321C72.7293 108.524 72.3812 109.076 72.1202 109.148C70.8584 109.496 71.163 111.309 72.4247 111.367H72.3812Z" fill="#565656"/>
<path d="M54.6616 119.212C58.3017 121.518 63.5226 120.619 66.5682 117.733C67.3658 116.965 68.0329 115.964 69.0771 115.5C69.9618 115.094 70.9479 114.978 71.8326 114.543C73.6164 113.658 75.2697 110.467 73.3264 108.988C72.9493 108.698 72.4272 108.814 72.0501 108.988L71.9196 109.046C70.5564 109.67 71.5715 111.584 72.8768 111.323L73.0218 111.294L71.7891 110.975C71.557 110.743 71.6731 110.395 71.586 110.975C71.557 111.178 71.5135 111.396 71.441 111.599C71.3395 111.903 71.1655 112.092 70.9044 112.266C70.2953 112.672 69.4977 112.773 68.8306 113.02C67.0323 113.658 66.0606 114.978 64.6828 116.21C62.2464 118.415 58.6933 118.56 55.7928 117.284C54.5021 116.718 53.4144 118.429 54.6616 119.227V119.212Z" fill="#565656"/>
<path d="M77.4978 127.972C71.0297 141.343 52.829 137.312 41.198 141.039L42.5177 142.765C44.5335 138.791 46.6944 134.875 48.8553 130.96C50.8711 127.291 53.09 123.839 56.0776 120.88C57.1362 119.822 55.541 118.241 54.4388 119.242C47.9706 125.188 44.7076 134.078 40.5018 141.575C40.0088 142.446 40.8209 143.577 41.8216 143.301C49.4789 141.111 57.5568 141.75 65.2286 139.705C71.0442 138.138 76.9612 134.875 79.4121 129.089C79.9487 127.813 78.1359 126.681 77.5123 127.972H77.4978Z" fill="#565656"/>
<path d="M45.419 132.918C41.6629 134.151 37.5732 135.398 33.585 134.716C29.5968 134.034 27.0298 131.192 23.5927 129.553L22.6936 131.671C30.757 132.889 34.2231 124.057 40.2126 120.663C41.5033 119.924 40.3721 118.082 39.0669 118.691C36.1084 120.083 34.0345 122.694 31.8447 125.028C29.6548 127.363 26.7398 129.945 23.3172 129.423C22.1425 129.249 21.1273 130.916 22.418 131.54C24.2308 132.41 25.8116 133.643 27.5084 134.731C29.3067 135.876 31.2356 136.703 33.3384 137.007C37.6602 137.66 41.9384 136.442 45.9991 135.079C47.3624 134.615 46.7823 132.454 45.4045 132.903L45.419 132.918Z" fill="#565656"/>
<path d="M73.858 44.7126C63.8513 45.9744 55.5124 54.9369 53.3225 64.5666C53.1194 65.4948 54.1636 66.5244 55.0628 65.9008C58.6739 63.3774 62.9957 62.2752 67.3754 62.4057C69.8699 62.4782 72.2193 63.0728 74.6412 63.5949C76.483 64.001 78.3393 64.088 80.2101 64.3056C81.7184 64.4796 83.2267 64.6681 84.6624 64.0445C86.0112 63.4499 87.0989 62.4492 87.911 61.2455C89.2017 59.3312 90.2024 56.3872 89.0857 54.1828C88.3751 52.776 86.3157 54.0088 86.9973 55.401C87.8965 57.2718 85.9241 60.3754 84.4884 61.3905C83.2267 62.2897 81.8779 62.0867 80.4277 61.9271C78.6004 61.7241 76.7876 61.6226 74.9892 61.231C71.2186 60.4044 67.564 59.7373 63.6918 60.2303C60.1677 60.6654 56.8031 61.8546 53.8881 63.885L55.6284 65.2192C57.6442 56.4742 65.1275 48.3383 74.1916 46.9895C75.4533 46.801 75.1778 44.5676 73.887 44.7271L73.858 44.7126Z" fill="#565656"/>
<path d="M86.2572 52.2687C81.5148 49.8758 76.6565 47.6569 73.9735 42.7696C70.986 37.3166 72.1752 31.4141 73.0599 25.5986C73.2774 24.2208 71.2906 23.5827 70.9135 25.004C69.2602 31.1965 68.6221 37.9547 71.7256 43.8137C74.4376 48.9476 80.0356 52.4863 85.4015 54.3426C86.6052 54.7631 87.4174 52.8488 86.2717 52.2832L86.2572 52.2687Z" fill="#565656"/>
<path d="M87.6342 53.0226C85.2703 46.1774 87.1121 38.8971 85.5458 31.9359C84.8062 28.6148 83.1819 25.6273 81.2386 22.8573C79.4983 20.3919 77.6275 17.7379 75.2781 15.8381C73.1607 14.1268 70.4342 13.0681 67.6932 13.2712C65.7644 13.4162 62.9944 13.9238 61.5732 15.3595C60.326 16.6213 60.1664 18.7096 60.7465 20.3339C61.0946 21.3056 61.9793 21.7987 62.9219 22.0742C64.3432 22.5093 65.7354 22.8138 67.0841 23.4374C73.5523 26.4105 78.9037 31.9359 83.1674 37.5484C84.1101 38.7811 86.2275 37.5629 85.2703 36.3157C82.1813 32.2695 78.7152 28.5133 74.6835 25.3808C72.6966 23.829 70.5937 22.4223 68.3023 21.3491C67.3162 20.885 66.2865 20.4789 65.2423 20.1599C64.7637 20.0148 64.2561 19.9133 63.7776 19.7683C63.0524 19.5508 63.0234 19.3622 62.9509 18.6371C62.7334 16.4472 65.2858 16.1427 66.9971 15.8091C69.8541 15.258 72.6241 16.5487 74.6399 18.5211C78.6571 22.4658 82.4278 27.9187 83.3995 33.5457C84.5742 40.2459 82.9934 47.091 85.4443 53.6027C85.9519 54.9514 88.1128 54.4003 87.6342 52.9936V53.0226Z" fill="#565656"/>
<path d="M85.9238 44.6114C91.6958 41.9284 99.5271 40.7682 103.544 35.3152C104.937 33.4299 105.589 30.776 104.922 28.4846C104.139 25.7871 100.89 23.6262 98.4104 22.6545C98.1204 22.5385 97.1342 22.0309 96.9022 22.1034L96.7281 22.0164C96.4816 22.7706 96.6266 23.0171 97.1632 22.7561C97.3518 22.7996 97.6998 22.7561 97.9029 22.7561C99.6722 22.8721 101.528 23.5537 103.095 24.3368C106.068 25.8306 108.765 28.1655 110.404 31.095C111.593 33.2414 111.231 34.7932 109.534 36.49C108.417 37.6066 107.112 38.5058 105.734 39.2889C102.95 40.8407 99.9187 41.8559 96.9457 42.9581C93.9727 44.0603 90.5356 45.264 87.8526 47.2508C85.1696 49.2377 85.0101 51.7321 86.3879 54.5456C87.084 55.9668 89.2013 54.7196 88.5052 53.2984C87.8091 51.8771 87.6206 50.6444 88.8968 49.5277C90.173 48.411 91.7103 47.7439 93.1605 47.0913C96.1626 45.7136 99.3241 44.7564 102.384 43.5237C107.329 41.5368 116.075 37.2731 112.884 30.6309C111.463 27.6724 108.983 25.1925 106.271 23.3942C103.762 21.7409 100.426 20.2471 97.3518 20.3486C96.3946 20.3776 95.2054 20.6677 94.6978 21.5959C94.1032 22.6981 94.8138 23.7422 95.8 24.2498C97.0617 24.8879 98.3234 25.1925 99.5126 26.0046C101.079 27.0488 102.66 28.18 102.732 30.2104C102.863 33.865 99.7012 36.0694 96.8007 37.6066C92.9285 39.6515 88.6793 40.7682 84.7491 42.6535C83.4148 43.2916 84.575 45.2495 85.9093 44.6404L85.9238 44.6114Z" fill="#565656"/>
<path d="M101.704 42.3926C100.849 45.3656 99.3114 48.2226 96.8895 50.2095C94.4675 52.1963 91.1755 52.8924 88.0574 52.3703C87.4048 52.2688 86.7377 52.5444 86.5491 53.226C86.3896 53.8061 86.7522 54.6182 87.4048 54.7342C91.306 55.3869 95.1637 54.6327 98.2962 52.1528C101.168 49.8759 103.01 46.5113 103.923 43.0017C104.3 41.5659 102.11 40.9568 101.704 42.3926Z" fill="#565656"/>
<path d="M77.181 18.1297C77.8626 16.3894 79.0808 14.6926 80.5311 13.5179C82.3294 12.0676 84.9253 11.9226 87.1152 12.3142C88.0869 12.4882 89.0876 12.7493 89.9577 13.2278C90.4798 13.5179 90.8859 13.8514 91.2629 14.301C91.408 14.6201 91.495 14.5911 91.524 14.214C91.379 14.3735 91.2194 14.5186 91.0454 14.6491C89.6822 15.4757 88.0579 15.4612 86.8107 16.6069C83.5911 19.5799 85.2589 24.3513 86.3031 27.9044C86.9702 30.1958 87.5503 32.5452 87.7098 34.9381C87.8694 37.331 87.4778 39.2454 86.7672 41.4207C86.3176 42.784 88.3914 43.6396 89.0731 42.3924C91.6545 37.6646 90.0737 31.53 88.551 26.7297C87.8258 24.4528 86.4336 21.0157 88.0869 18.8113C89.3486 17.1435 91.8285 17.4626 93.2498 15.9398C94.8016 14.272 93.0903 12.3287 91.582 11.357C89.6387 10.0953 87.0572 9.61671 84.7658 9.68922C80.1685 9.81974 76.1803 13.0393 74.9766 17.5206C74.585 18.9708 76.6589 19.4639 77.181 18.1297Z" fill="#565656"/>
<path d="M90.4064 17.5064C90.5804 17.4483 90.7545 17.4048 90.943 17.3758C90.7399 17.4193 90.9865 17.3758 91.03 17.3758C91.1315 17.3758 91.2185 17.3758 91.32 17.3758C91.4216 17.3758 91.5086 17.3758 91.6101 17.3758C91.6826 17.3758 91.8711 17.4048 91.7116 17.3758C91.9147 17.4048 92.1032 17.4483 92.3062 17.5064C92.5093 17.5644 92.6978 17.6224 92.8863 17.6949C92.7413 17.6369 92.9443 17.7239 92.9878 17.7384C93.0748 17.7819 93.1474 17.8254 93.2344 17.8689C93.3939 17.9559 93.5534 18.0575 93.713 18.159C93.7275 18.1735 93.974 18.3475 93.858 18.2605C93.7565 18.188 94.003 18.3765 94.003 18.3765C94.148 18.4925 94.2786 18.6231 94.4091 18.7536C94.4671 18.8116 94.5106 18.8551 94.5541 18.9131C94.5541 18.9131 94.8006 19.2032 94.6411 19.0146C94.8587 19.2902 95.0327 19.5802 95.1777 19.8993C95.2212 19.9863 95.2647 20.0733 95.2937 20.1603C95.2067 19.9718 95.3227 20.2183 95.3227 20.2473C95.4243 20.4939 95.5258 20.7259 95.6273 20.9725C95.8593 21.48 96.1494 21.9006 96.599 22.2197C97.005 22.5097 97.6867 22.3937 98.0057 22.0311C98.3828 21.6106 98.3973 21.1175 98.1942 20.6244C98.1072 20.4214 97.9767 20.2473 97.8752 20.0588C97.8172 19.9573 97.7737 19.8558 97.7157 19.7397C97.6867 19.6817 97.6141 19.4932 97.6722 19.6527C97.4836 19.2032 97.3096 18.7536 97.0631 18.333C96.5845 17.5209 95.9318 16.8392 95.1632 16.2736C93.655 15.1569 91.5666 14.7074 89.7683 15.302C89.2027 15.4905 88.7676 16.0996 88.9706 16.7087C89.1592 17.2743 89.7683 17.6949 90.3774 17.5064H90.4064Z" fill="#565656"/>
<path d="M96.4242 24.3079C97.8309 24.3079 97.8309 22.1326 96.4242 22.1326C95.0175 22.1326 95.0175 24.3079 96.4242 24.3079Z" fill="#565656"/>
<path d="M96.5545 22.0744C95.5394 21.5668 94.6982 20.8417 93.567 20.5661C92.4358 20.2906 91.2611 20.6531 90.2604 21.2767C88.0706 22.6545 89.4483 24.9749 90.7825 26.4686C91.5947 27.3678 92.6679 28.0349 93.5525 28.8616C94.5532 29.7897 95.3943 30.8339 96.0325 32.0521C96.5981 33.1543 97.0041 34.503 96.8156 35.7648C96.6271 37.0265 95.9164 37.6936 94.9013 38.3462C93.7991 39.0568 94.4807 40.8696 95.8149 40.5071C98.1063 39.869 99.339 37.3165 99.31 35.0831C99.2665 32.4147 97.8163 29.8622 96.047 27.9624C95.2058 27.0632 94.2486 26.2946 93.277 25.526C92.8564 25.1924 92.4938 24.8298 92.1603 24.4238C92.0588 24.3078 91.4062 23.1621 91.4352 23.1621C91.3771 23.1621 91.3336 23.5536 91.2176 23.4956C91.2466 23.5101 91.5367 23.2926 91.5947 23.2491C91.9717 23.017 92.4068 22.756 92.8709 22.785C93.8716 22.8575 94.8142 23.7132 95.7279 24.0757C96.8736 24.5543 97.6857 22.6255 96.569 22.0599L96.5545 22.0744Z" fill="#565656"/>
<path d="M71.596 35.6488C67.6948 31.6897 62.0968 30.2249 56.6729 30.0509C53.5548 29.9493 50.4078 30.3409 47.3623 30.979C44.6793 31.5301 42.1269 32.4293 40.024 34.2131C39.1683 34.9382 39.9225 36.2289 40.8796 36.287C45.5494 36.5335 50.1177 38.4478 53.6999 41.4208C55.5852 42.9871 57.1225 44.8869 58.8918 46.5692C60.516 48.1065 62.4449 49.7018 64.8233 49.5858C66.3461 49.5133 66.3606 47.2654 64.8233 47.2073C62.2563 47.1203 60.2115 44.4664 58.5872 42.7551C56.9629 41.0438 55.2371 39.3905 53.2358 38.0418C49.5811 35.5763 45.2884 34.0826 40.8796 33.8505L41.7353 35.9244C43.6351 34.3291 46.1005 33.691 48.479 33.2269C51.1764 32.6903 53.9174 32.3858 56.6729 32.4728C61.4732 32.6178 66.4331 33.8795 69.9572 37.2731C71.0304 38.3028 72.6257 36.7075 71.5815 35.6488H71.596Z" fill="#565656"/>
<path d="M140.483 122.969C145.428 124.52 149.837 127.58 152.955 131.728C154.492 133.787 155.725 136.079 156.537 138.515C157.349 140.952 157.349 143.881 158.857 146.086L160.612 144.331C156.45 141.749 152.056 139.588 147.458 137.906C143.731 136.528 139.293 135.861 136.857 132.395C135.987 131.163 134.29 132.207 134.87 133.555C136.524 137.442 141.556 138.501 145.138 139.733C150.112 141.445 154.869 143.751 159.321 146.535C160.366 147.188 161.801 145.854 161.076 144.78C160.206 143.504 160.018 142.01 159.713 140.531C159.438 139.211 159.06 137.935 158.567 136.688C157.567 134.136 156.203 131.786 154.492 129.654C151.099 125.391 146.371 122.156 141.092 120.764C139.671 120.387 139.09 122.519 140.483 122.954V122.969Z" fill="#565656"/>
<path d="M138.524 137.79C144.34 149.537 134.594 162.227 128.808 171.886L131.055 172.843C132.346 168.217 132.448 163.17 129.968 158.906C128.808 156.905 127.212 155.179 125.603 153.555C123.659 151.597 121.759 149.436 119.613 147.696C118.453 146.738 117.003 148.174 117.96 149.349C120.831 152.815 124.674 155.454 127.227 159.196C129.779 162.938 129.91 167.753 128.677 172.205C128.3 173.554 130.214 174.366 130.925 173.162C137.219 162.604 147.023 149.32 140.511 136.645C139.829 135.31 137.843 136.485 138.51 137.819L138.524 137.79Z" fill="#565656"/>
<path d="M73.0467 134.049C72.2926 136.152 72.5101 138.298 72.8582 140.444C73.2788 143.098 73.9459 145.694 74.5115 148.305C75.5702 153.25 76.2083 158.384 74.2939 163.199C73.8009 164.461 75.4976 165.041 76.3243 164.374C82.2848 159.588 88.0713 153.598 91.639 146.768C92.3641 145.39 90.4352 144.288 89.5651 145.549C87.3897 148.74 85.3304 151.901 82.7779 154.831C80.2255 157.76 77.5715 160.298 74.613 162.662L76.6433 163.837C78.4272 159.356 78.1516 154.483 77.2815 149.828C76.8029 147.29 76.1648 144.781 75.6282 142.243C75.0916 139.705 74.41 137.08 75.1931 134.614C75.6282 133.237 73.5398 132.7 73.0612 134.02L73.0467 134.049Z" fill="#565656"/>
<path d="M40.6626 68.0479C25.0144 63.0445 12.3537 76.2273 3.24613 86.9737C2.40498 87.9599 3.50718 89.7727 4.73989 88.9025C8.97463 85.944 14.1665 86.3066 18.9089 87.6698C23.6512 89.0331 27.6104 91.2519 32.4397 90.8024C33.9915 90.6573 34.0205 88.2354 32.4397 88.3514C27.0013 88.772 22.2299 85.712 17.0235 84.6533C12.3972 83.7251 7.46636 83.9862 3.49267 86.7562L4.98643 88.685C13.4994 78.6492 25.3045 65.6985 40.0535 70.2378C41.4748 70.6729 42.0694 68.4685 40.6626 68.0189V68.0479Z" fill="#565656"/>
<path d="M29.9169 135.514C26.9149 142.852 25.3631 150.669 23.2602 158.282C20.9253 166.708 17.5317 174.627 13.0214 182.11C11.3246 184.924 9.51183 187.665 7.6265 190.348C5.23358 193.756 2.4636 196.932 0.186703 200.398C-0.567428 201.558 1.14387 202.878 2.10104 201.877C4.60997 199.238 6.71284 196.105 8.83021 193.147C10.6575 190.609 12.4123 188.027 14.0656 185.373C16.7486 181.109 19.1705 176.672 21.1864 172.045C24.3044 164.881 26.1462 157.383 28.1041 149.857C29.3078 145.216 30.7435 140.691 32.2373 136.137C32.7304 134.643 30.497 134.121 29.9314 135.499L29.9169 135.514Z" fill="#565656"/>
<path d="M73.5393 143.809C65.8675 151.524 58.3262 159.283 50.3208 166.679C41.0392 175.265 32.3232 184.184 25.1589 194.655C21.3303 200.253 17.8641 206.213 15.6308 212.638C15.1377 214.074 17.3131 214.61 17.8641 213.247C22.5195 201.718 29.8432 191.421 38.0952 182.197C45.651 173.757 54.396 166.476 62.4884 158.558C66.8247 154.309 71.1319 149.973 75.2216 145.491C76.2513 144.36 74.627 142.692 73.5248 143.795L73.5393 143.809Z" fill="#565656"/>
<path d="M26.1458 148.87C26.1023 151.524 26.0298 154.265 27.9151 156.368C30.105 158.804 33.2811 160.342 36.1236 161.85C41.1269 164.489 46.3188 166.389 51.9313 167.216C53.4396 167.433 54.1502 165.214 52.5839 164.866C50.046 164.286 47.4791 163.837 44.9846 163.054C42.7367 162.328 40.5904 161.357 38.4875 160.284C35.8915 158.949 33.1506 157.615 30.8737 155.759C29.873 154.947 29.0318 154.106 28.7273 152.8C28.4227 151.495 28.5243 150.161 28.4807 148.87C28.4227 147.376 26.1748 147.362 26.1458 148.87Z" fill="#565656"/>
<path d="M23.9688 160.371C26.8258 163.489 30.2049 166.186 33.8305 168.362C35.5998 169.42 37.4271 170.349 39.3125 171.161C41.1978 171.973 43.4022 172.988 45.5195 173.351C46.7377 173.554 47.7674 171.77 46.4332 171.175C44.5334 170.334 42.4885 169.826 40.5742 169.014C38.6598 168.202 36.934 167.332 35.2227 166.302C31.6696 164.199 28.5806 161.574 25.6221 158.717C24.5344 157.659 22.9391 159.269 23.9688 160.371Z" fill="#565656"/>
<path d="M21.7218 166.824C24.2888 169.638 27.1458 172.306 30.3363 174.409C31.8011 175.381 33.3383 176.207 34.9481 176.918C36.7609 177.73 38.8058 178.673 40.7781 178.977C41.3727 179.064 41.9383 178.876 42.1849 178.296C42.4024 177.803 42.2429 177.063 41.6918 176.816C39.9225 176.004 37.9937 175.555 36.2098 174.772C34.6436 174.075 33.1353 173.263 31.6996 172.335C28.6105 170.319 26.0291 167.723 23.3896 165.171C22.3019 164.112 20.7212 165.708 21.7363 166.824H21.7218Z" fill="#565656"/>
<path d="M19.0544 172.654C23.7097 177.397 28.9741 182.008 35.8918 182.603C37.197 182.719 37.4436 180.645 36.1963 180.341C33.1943 179.615 30.3953 178.731 27.7994 177.005C25.2034 175.279 23.0281 173.06 20.7512 170.972C19.62 169.928 17.9812 171.552 19.0544 172.669V172.654Z" fill="#565656"/>
<path d="M14.4695 180.515C15.9488 182.777 18.1242 184.532 20.3576 186.026C21.6773 186.91 23.0695 187.693 24.4908 188.39C26.0281 189.144 27.7539 190.057 29.4507 190.318C30.0308 190.405 30.5964 190.217 30.8284 189.637C31.0314 189.115 30.8719 188.448 30.3498 188.172C28.9576 187.447 27.3913 187.012 25.9701 186.33C24.5488 185.649 23.2001 184.894 21.8948 184.053C19.9225 182.777 17.8631 181.254 16.5144 179.311C15.6588 178.078 13.6284 179.224 14.4695 180.5V180.515Z" fill="#565656"/>
<path d="M9.42489 189.245C13.6596 193.088 18.9095 196.366 24.4785 197.845C25.9433 198.237 26.4073 196.192 25.0876 195.641C22.5932 194.611 20.0987 193.538 17.7638 192.189C15.4289 190.84 13.21 189.274 11.1507 187.534C9.97598 186.533 8.26468 188.186 9.43939 189.245H9.42489Z" fill="#565656"/>
<path d="M5.59715 194.118C7.0184 196.989 9.20828 199.397 11.8042 201.253C13.095 202.181 14.5017 202.907 15.9665 203.501C17.4312 204.096 19.099 204.676 20.6508 204.603C21.985 204.545 22.217 202.732 20.9553 202.297C19.6066 201.833 18.1853 201.63 16.8366 201.094C15.4879 200.557 14.3132 199.89 13.182 199.092C10.8761 197.497 9.01975 195.336 7.65651 192.9C6.90238 191.537 4.91553 192.74 5.59715 194.103V194.118Z" fill="#565656"/>
<path d="M1.15799 202.355C2.44871 205.531 4.53707 208.345 7.20554 210.506C8.52527 211.579 9.94651 212.507 11.4838 213.247C13.021 213.986 14.8339 214.828 16.5452 214.799C17.6474 214.784 18.271 213.102 17.1398 212.58C15.733 211.942 14.1958 211.681 12.789 211.013C11.3823 210.346 10.106 209.578 8.93134 208.635C6.52392 206.692 4.63859 204.241 3.33336 201.442C2.76777 200.238 0.650397 201.108 1.15799 202.355Z" fill="#565656"/>
<path d="M35.8049 136.093C32.9769 142.155 30.8595 148.609 29.4528 155.15C29.1337 156.629 31.3816 157.253 31.7152 155.773C33.2234 149.32 35.2973 143.084 37.8643 136.963C38.3573 135.789 36.3415 134.933 35.8049 136.093Z" fill="#565656"/>
<path d="M41.7216 140.705C40.5614 141.735 39.9233 143.156 39.2562 144.52C38.531 145.999 37.8349 147.493 37.1823 149.015C35.8336 152.148 34.6444 155.324 33.6002 158.558C33.1361 159.994 35.3695 160.588 35.8481 159.182C36.8777 156.165 38.0234 153.163 39.2852 150.234C39.8943 148.827 40.5469 147.42 41.1995 146.028C41.7941 144.781 42.3597 143.33 43.3604 142.33C44.4191 141.271 42.8383 139.719 41.7361 140.705H41.7216Z" fill="#565656"/>
<path d="M49.2313 140.038C43.7929 146.013 41.777 154.164 38.1224 161.183C37.4118 162.532 39.4566 163.735 40.1673 162.387C43.8074 155.498 45.8377 147.783 50.8411 141.663C51.7548 140.546 50.232 138.951 49.2313 140.053V140.038Z" fill="#565656"/>
<path d="M57.3833 139.429C54.9034 143.388 52.67 147.478 50.1901 151.437C47.7102 155.396 45.1287 159.269 42.4747 163.112C41.6191 164.359 43.6349 165.519 44.5051 164.301C47.1881 160.487 49.755 156.586 52.2494 152.641C54.7439 148.696 57.2673 144.737 59.3702 140.589C60.0373 139.27 58.181 138.167 57.3833 139.429Z" fill="#565656"/>
<path d="M71.3497 135.281C66.3899 138.907 62.7352 143.954 59.2546 148.943C55.774 153.932 52.0469 159.152 47.4786 163.576C46.3909 164.634 47.9862 166.128 49.1029 165.2C53.8017 161.342 57.2533 155.991 60.6904 151.046C64.1275 146.1 67.9126 141.053 72.713 137.065C73.6991 136.253 72.3794 134.527 71.3352 135.281H71.3497Z" fill="#565656"/>
</svg>
