<svg width="191" height="7" viewBox="0 0 191 7" fill="none" xmlns="http://www.w3.org/2000/svg">
<path fill-rule="evenodd" clip-rule="evenodd" d="M95.3367 2.49812C64.4585 -0.329485 30.912 0.529072 0 2.66607C30.3373 4.67932 65.0964 6.9445 95.3356 3.40308C78.0618 4.39313 59.8143 4.17214 42.6016 2.80088C59.8001 1.41857 78.0891 1.46277 95.3356 2.49701L95.3367 2.49812Z" fill="#E2BB75"/>
<path fill-rule="evenodd" clip-rule="evenodd" d="M95.3359 2.49812C126.213 -0.329485 159.76 0.529072 190.673 2.66607C160.335 4.67932 125.576 6.9445 95.3359 3.40308C112.612 4.39313 130.857 4.17214 148.071 2.80088C130.87 1.41857 112.581 1.46277 95.3359 2.49701V2.49812Z" fill="#E2BB75"/>
<path fill-rule="evenodd" clip-rule="evenodd" d="M95.5125 3.67165e-05C93.6717 3.67165e-05 92.1816 1.4113 92.1816 3.15345C92.1816 4.8956 93.6717 6.30908 95.5125 6.30908C97.3512 6.30908 98.8412 4.89671 98.8412 3.15456C98.8412 1.41241 97.3501 3.67165e-05 95.5125 0.00114679V3.67165e-05Z" fill="#E2BB75"/>
</svg>
