<svg width="234" height="235" viewBox="0 0 234 235" fill="none" xmlns="http://www.w3.org/2000/svg">
<path d="M197.746 203.063C197.836 202.903 197.916 202.743 197.996 202.573C197.916 202.733 197.826 202.893 197.746 203.063Z" fill="white"/>
<path d="M176.996 203.933C176.996 203.933 176.996 203.953 176.996 203.963C177.006 203.993 177.066 203.973 177.146 203.943C177.096 203.973 177.036 203.963 176.996 203.943V203.933Z" fill="white"/>
<path d="M184.996 79.3032C185.306 82.4132 186.076 85.4332 186.746 88.4832C187.046 89.8532 187.286 91.2632 187.656 92.6132C188.046 94.0432 188.806 95.3232 189.246 96.7332C189.546 97.6832 189.786 98.6732 190.176 99.6032C190.316 101.383 189.706 103.203 189.076 104.843C188.396 106.613 187.256 108.093 186.336 109.733C185.446 111.323 184.506 112.643 183.136 113.843C181.826 114.993 180.666 116.313 179.646 117.723C179.166 118.383 178.616 118.993 178.126 119.643C177.616 120.313 177.306 121.073 176.866 121.773C176.396 122.523 176.186 123.393 175.726 124.153C175.246 124.973 174.856 125.733 174.576 126.633C173.996 128.573 173.536 130.553 172.986 132.503C172.396 134.613 171.646 136.663 171.006 138.763C170.666 139.873 170.296 140.963 170.206 142.123C170.126 143.183 170.206 144.263 170.016 145.313C169.676 147.343 169.716 149.443 169.716 151.513C169.716 151.893 170.276 152.023 170.446 151.683C170.616 151.343 170.776 151.013 170.936 150.673C171.596 149.653 172.496 148.643 173.266 147.793C174.446 146.473 175.706 145.473 177.066 144.363C179.596 142.293 182.076 140.143 184.606 138.083C185.966 136.973 187.116 135.723 188.116 134.273C189.166 132.743 189.476 131.153 189.856 129.393C190.236 127.643 190.986 126.023 191.296 124.253C191.586 122.583 191.876 120.913 191.996 119.223C192.136 117.233 192.206 115.293 192.106 113.303C192.086 112.823 192.066 112.353 192.056 111.883C192.086 111.693 192.116 111.503 192.136 111.303C192.356 109.273 192.136 107.263 192.036 105.233C191.996 104.433 191.936 103.623 191.846 102.813C192.036 103.363 192.216 103.913 192.456 104.443C193.726 107.233 194.856 110.083 196.076 112.893C196.646 114.213 197.266 115.513 197.936 116.793C198.646 118.133 199.626 119.393 200.166 120.813C200.686 122.193 201.286 123.453 201.936 124.783C202.586 126.113 203.066 127.523 203.746 128.833C205.156 131.543 205.886 134.493 206.916 137.363C207.986 140.353 208.586 143.553 208.836 146.713C209.086 149.893 209.686 152.973 209.546 156.183C209.406 159.483 209.026 162.763 208.766 166.053C208.636 167.703 208.586 169.363 208.276 170.993C207.956 172.663 207.486 174.313 207.126 175.973C206.656 178.123 206.246 180.223 205.696 182.303C205.476 182.623 205.196 182.923 205.006 183.183C204.546 183.783 204.026 184.353 203.516 184.913C203.406 185.033 203.296 185.153 203.186 185.273C203.056 185.143 202.846 185.073 202.656 185.173C202.306 185.353 201.796 185.643 201.386 185.723C200.876 185.823 200.666 185.593 200.256 185.393C199.636 185.093 199.116 185.033 198.456 185.073C196.896 185.163 195.336 185.153 193.766 185.163C190.716 185.173 187.486 186.243 185.446 188.563C183.076 191.263 181.636 194.613 179.976 197.753C179.246 199.133 178.476 200.503 177.736 201.873C177.406 202.483 176.316 203.693 176.556 204.403C176.576 204.473 176.656 204.513 176.726 204.493C177.306 204.293 177.836 203.923 178.406 203.683C179.056 203.413 179.676 203.303 180.326 203.073C181.546 202.633 182.836 202.253 183.996 201.683C185.396 200.993 186.956 200.573 188.426 200.063C189.836 199.583 191.196 199.003 192.516 198.313C195.166 196.923 197.496 195.453 199.396 193.103C201.166 190.923 202.376 188.513 203.716 186.083C203.986 185.773 204.246 185.453 204.496 185.113C204.726 184.803 204.966 184.483 205.186 184.153C204.966 184.853 204.736 185.553 204.466 186.243C203.806 187.963 203.276 189.733 202.636 191.463C202.226 192.573 201.736 193.633 201.226 194.693C201.166 194.723 201.106 194.753 201.076 194.823C200.116 196.413 199.146 197.993 198.126 199.533C197.146 201.013 195.666 202.443 194.316 203.613C192.986 204.773 191.456 205.643 190.026 206.683C189.156 207.313 188.146 207.803 187.186 208.293C186.236 208.773 185.466 209.403 184.706 210.143C183.206 211.613 181.796 213.303 180.526 214.983C179.236 216.693 178.596 218.683 178.006 220.713C177.416 222.733 176.926 225.113 176.876 227.223C176.846 228.363 176.926 229.513 176.836 230.643C176.746 231.773 176.446 232.873 176.436 234.023C176.436 234.233 176.726 234.293 176.826 234.113C177.276 233.273 178.196 232.693 178.886 232.073C179.596 231.433 180.296 230.783 180.996 230.133C182.436 228.783 184.016 227.613 185.696 226.573C188.926 224.573 192.066 222.393 194.636 219.553C196.066 217.973 196.636 215.973 197.396 214.053C198.126 212.223 198.376 210.383 198.686 208.443C199.006 206.443 199.106 204.393 199.486 202.403C199.716 201.233 199.966 200.063 200.246 198.903C200.406 198.223 200.656 197.593 200.896 196.943C200.906 196.913 200.926 196.863 200.936 196.813C201.046 196.593 201.146 196.363 201.246 196.143C201.266 196.123 201.286 196.093 201.306 196.083C201.376 196.043 201.376 195.973 201.336 195.913C201.386 195.783 201.436 195.653 201.486 195.533C202.116 194.243 202.726 192.943 203.226 191.603C204.336 188.613 205.626 185.583 206.456 182.503C207.296 179.363 207.856 176.133 208.626 172.973C209.406 169.783 209.536 166.563 209.856 163.303C210.076 161.023 210.346 158.713 210.456 156.413C210.676 156.853 210.946 157.283 211.256 157.683C211.846 159.233 212.146 160.823 212.166 162.573C212.196 164.843 211.686 167.083 211.366 169.323C210.746 173.643 211.576 177.883 213.836 181.623C214.816 183.243 216.036 184.863 217.406 186.173C218.966 187.673 220.316 189.333 221.776 190.913C223.226 192.483 224.706 194.063 226.246 195.563C227.076 196.373 227.886 197.203 228.686 198.053C229.196 198.593 229.636 199.353 230.256 199.783C230.256 199.783 230.256 199.793 230.276 199.803C230.316 199.823 230.346 199.863 230.376 199.883C230.876 200.183 231.386 199.463 230.976 199.063C230.596 198.703 230.446 197.383 230.326 196.913C230.076 195.973 229.886 194.973 229.826 194.003C229.716 192.143 229.846 190.243 229.826 188.373C229.806 186.703 229.646 185.043 229.706 183.383C229.766 181.773 229.706 180.113 229.476 178.523C228.966 174.863 228.246 171.063 226.186 167.913C225.756 167.253 225.186 166.603 224.566 166.113C224.306 165.913 224.166 165.873 224.016 165.723C223.626 165.343 223.406 164.973 222.916 164.663C221.426 163.723 219.906 162.843 218.426 161.873C217.636 161.363 216.746 161.093 215.996 160.513C215.046 159.783 214.336 158.713 213.686 157.723C213.166 156.943 212.656 156.153 212.136 155.373C211.916 155.043 211.796 154.663 211.596 154.333C211.466 154.123 211.166 153.913 211.076 153.703C210.686 152.353 210.416 150.923 210.176 149.553C210.176 149.503 210.156 149.453 210.146 149.403C210.146 149.383 210.146 149.363 210.146 149.343C209.966 147.763 209.906 146.173 209.706 144.603C209.346 141.693 208.706 138.763 207.806 135.973C207.356 134.593 206.986 133.233 206.696 131.813C206.396 130.353 205.736 129.113 205.156 127.763C204.566 126.383 204.156 124.933 203.556 123.553C202.966 122.193 202.586 120.813 202.046 119.433C201.546 118.143 200.746 116.953 200.136 115.703C199.406 114.203 198.756 112.673 198.106 111.133C196.916 108.323 195.536 105.513 194.496 102.643C194.276 102.033 194.116 101.413 193.836 100.823C193.546 100.203 193.106 99.6832 192.776 99.0732C192.076 97.7732 191.836 96.2232 191.276 94.8532C190.756 93.5832 190.126 92.4432 189.786 91.1032C189.396 89.5532 189.036 87.9932 188.646 86.4432C187.846 83.3132 187.086 80.2432 186.836 77.0032C186.566 73.5832 186.676 70.1332 186.836 66.7132C186.926 64.9032 187.016 63.1032 187.046 61.2932C187.076 59.3332 187.406 57.4932 187.806 55.5832C188.106 54.1732 188.476 52.8032 188.936 51.4632C188.596 52.7532 188.346 54.0832 188.146 55.3432C187.486 59.3732 188.106 63.3232 189.736 67.0332C189.966 67.5532 190.226 68.0632 190.496 68.5732C190.686 71.7732 192.056 74.8132 193.676 77.5532C194.656 79.2132 195.776 80.8232 196.946 82.3432C198.146 83.8932 199.316 85.4832 200.886 86.6832C203.776 88.9032 207.236 90.4432 210.426 92.1832C213.846 94.0532 217.366 95.8432 220.986 97.2832C223.186 98.1532 225.386 99.0432 227.476 100.163C228.406 100.663 229.296 101.193 230.206 101.733C230.996 102.203 231.696 102.773 232.546 103.123C233.206 103.403 234.186 102.863 233.866 102.043C233.326 100.663 232.146 99.4232 231.216 98.2832C230.126 96.9432 229.166 95.5132 228.106 94.1532C227.606 93.5132 227.106 92.8632 226.586 92.2332C226.016 91.5332 225.556 90.7432 224.946 90.0832C223.666 88.7032 222.316 87.2732 221.206 85.7532C220.106 84.2532 219.056 82.7432 217.536 81.6232C216.056 80.5332 214.556 79.5032 212.796 78.9032C209.286 77.7032 205.926 76.0632 202.416 74.8832C200.506 74.2432 198.526 73.5632 196.726 72.6432C195.886 72.2132 195.036 71.6932 194.256 71.1732C193.456 70.6332 192.426 70.1932 191.896 69.3432C191.856 69.2732 191.796 69.2332 191.746 69.1932C191.706 69.1332 191.676 69.0732 191.636 69.0132C189.466 65.2732 188.206 61.1732 188.646 56.8132C188.876 54.5232 189.356 52.0332 190.106 49.8532C190.496 48.7132 190.996 47.5732 191.496 46.4732C191.676 46.0832 191.786 45.7132 191.886 45.3432C192.686 44.1432 193.626 43.0432 194.426 41.8332C195.496 40.2132 196.666 38.7132 197.866 37.1832C198.206 36.7432 197.606 36.1532 197.226 36.5832C193.276 41.0232 189.236 45.5832 187.256 51.2832C185.176 57.2632 185.116 63.6632 184.826 69.9132C184.676 73.0432 184.646 76.1932 184.966 79.3132L184.996 79.3032ZM189.666 194.633C189.456 194.713 189.246 194.793 189.036 194.883C188.606 195.063 188.206 195.303 187.786 195.513C187.276 195.763 186.796 195.853 186.236 195.933C185.816 195.993 185.416 196.093 185.016 196.203C184.566 196.323 184.106 196.363 183.646 196.433C183.136 196.513 182.706 196.573 182.186 196.523C182.146 196.523 182.116 196.523 182.076 196.523C182.596 195.703 183.136 194.873 183.716 194.083C184.836 193.983 185.966 194.083 187.086 193.893C188.346 193.693 189.646 193.373 190.846 192.953C191.736 192.643 192.626 192.273 193.516 191.963C193.456 192.023 193.396 192.083 193.326 192.133C192.186 193.053 190.886 193.793 189.676 194.643L189.666 194.633ZM189.766 189.503C191.026 189.233 192.236 188.883 193.546 188.923C194.746 188.953 195.936 188.983 197.136 188.923C196.826 189.093 196.516 189.263 196.216 189.453C195.406 189.973 194.826 190.643 194.196 191.293C192.966 191.623 191.776 192.093 190.556 192.453C189.306 192.823 187.996 193.183 186.706 193.393C186.036 193.503 185.346 193.543 184.666 193.573C184.466 193.583 184.256 193.583 184.056 193.593C185.576 191.643 187.376 190.013 189.766 189.493V189.503ZM177.856 202.763C178.546 201.903 179.186 200.963 179.816 200.053C180.456 199.133 181.086 198.083 181.756 197.013C181.956 196.983 182.156 197.023 182.356 197.043C182.866 197.093 183.296 197.013 183.806 196.953C184.766 196.843 185.686 196.603 186.636 196.453C186.986 196.403 187.306 196.293 187.616 196.163C187.036 196.593 186.446 197.013 185.826 197.383C184.746 198.023 183.626 198.583 182.616 199.333C181.656 200.053 180.786 200.883 179.836 201.613C179.016 202.243 178.126 202.693 177.346 203.353C177.556 203.093 177.796 202.843 177.856 202.763ZM176.986 203.963C176.986 203.963 176.986 203.943 176.986 203.933C177.026 203.963 177.086 203.973 177.136 203.933C177.056 203.973 176.996 203.983 176.986 203.953V203.963ZM194.366 193.653C192.456 194.973 190.806 196.613 188.906 197.953C187.166 199.183 185.086 199.903 183.286 201.053C181.546 202.163 179.466 202.643 177.666 203.623C177.646 203.633 177.366 203.823 177.166 203.913C178.036 203.303 178.886 202.683 179.786 202.103C180.966 201.343 181.866 200.173 183.076 199.463C185.436 198.073 187.906 196.903 190.216 195.393C191.516 194.533 192.966 193.833 194.176 192.853C194.396 192.673 194.586 192.473 194.786 192.273C195.066 192.093 195.336 191.893 195.606 191.663C196.186 191.193 196.786 190.803 197.436 190.433C197.766 190.253 198.096 190.073 198.426 189.903C197.016 191.083 195.886 192.593 194.356 193.643L194.366 193.653ZM187.386 215.773C187.206 215.983 187.046 216.203 186.876 216.423C186.856 216.363 186.766 216.323 186.716 216.383C186.526 216.603 186.346 216.833 186.156 217.053C185.916 217.233 185.676 217.413 185.426 217.573C184.716 218.043 184.016 218.483 183.336 218.983C182.666 219.473 181.966 219.913 181.226 220.273C180.976 220.393 180.696 220.503 180.436 220.633C180.966 219.623 181.566 218.693 182.216 217.803C182.876 217.563 183.536 217.313 184.216 217.123C185.166 216.853 186.086 216.343 186.976 215.913C187.176 215.813 187.376 215.703 187.576 215.593C187.516 215.653 187.456 215.713 187.406 215.783L187.386 215.773ZM197.996 202.573C197.916 202.743 197.836 202.903 197.746 203.063C197.826 202.903 197.916 202.743 197.996 202.573ZM184.016 215.533C184.706 214.723 185.466 213.993 186.166 213.193C186.796 212.463 187.496 211.763 188.296 211.213C189.946 210.073 191.656 208.963 192.966 207.413C194.136 206.033 195.666 204.823 196.936 203.483C196.586 204.193 196.216 204.883 195.836 205.583C195.376 206.093 194.916 206.603 194.496 207.143C193.266 208.703 191.966 210.223 190.756 211.793C190.446 212.203 190.136 212.593 189.826 212.983C189.496 213.243 189.186 213.513 188.836 213.753C188.476 213.993 188.196 214.333 187.826 214.583C187.426 214.853 187.006 215.093 186.576 215.303C185.666 215.743 184.726 216.183 183.776 216.523C183.476 216.633 183.176 216.763 182.876 216.903C183.236 216.443 183.616 215.983 184.016 215.523V215.533ZM180.076 221.293C180.266 221.203 180.476 221.123 180.636 221.053C181.026 220.883 181.426 220.723 181.816 220.533C182.176 220.353 182.556 220.193 182.906 219.983C183.276 219.763 183.606 219.493 183.936 219.233C184.256 218.983 184.596 218.763 184.926 218.533C184.636 218.883 184.346 219.243 184.046 219.593C183.836 219.833 183.656 220.103 183.466 220.353C183.256 220.623 183.226 220.833 183.156 221.153C183.036 221.723 182.656 222.213 182.506 222.763C182.406 222.923 182.306 223.083 182.196 223.243C181.886 223.683 181.706 224.193 181.436 224.653C180.846 225.663 180.346 226.743 179.776 227.773C179.246 228.713 178.796 229.913 178.056 230.713C177.956 230.823 177.866 230.943 177.766 231.063C177.786 230.963 177.826 230.863 177.836 230.753C178.016 229.713 178.066 228.653 178.146 227.593C178.306 225.473 179.136 223.213 180.066 221.293H180.076ZM188.226 221.483C186.886 222.903 185.526 224.263 184.006 225.503C182.526 226.713 181.226 228.143 179.976 229.633C180.166 229.253 180.356 228.863 180.536 228.473C181.076 227.353 181.566 226.213 181.966 225.033C182.156 224.483 182.306 223.903 182.586 223.383C182.916 222.773 183.236 222.163 183.556 221.553C183.566 221.523 183.556 221.503 183.556 221.473C183.556 221.463 183.556 221.453 183.566 221.443C183.686 221.133 183.696 220.893 183.906 220.623C184.116 220.343 184.306 220.063 184.526 219.793C184.986 219.243 185.406 218.653 185.806 218.063C186.066 217.823 186.316 217.603 186.526 217.403C187.116 216.833 187.616 216.203 188.226 215.663C189.026 214.963 189.856 214.423 190.706 213.783C190.936 213.613 191.146 213.413 191.356 213.203C191.246 213.453 191.126 213.693 191.026 213.943C190.886 214.323 190.816 214.723 190.736 215.123C190.636 215.583 190.476 216.033 190.426 216.503C190.376 216.963 190.426 217.403 190.356 217.863C190.296 218.283 190.316 218.703 190.346 219.123C190.326 219.143 190.306 219.153 190.286 219.173C189.536 219.883 188.916 220.723 188.206 221.483H188.226ZM195.926 212.193C195.466 213.143 194.806 213.883 194.196 214.733C193.606 215.543 193.126 216.463 192.466 217.213C191.976 217.773 191.376 218.243 190.806 218.743C190.996 218.203 191.066 217.603 191.066 217.033C191.066 216.543 191.186 216.113 191.296 215.643C191.406 215.173 191.466 214.673 191.626 214.213C191.926 213.343 192.416 212.543 192.736 211.673C192.746 211.643 192.756 211.623 192.766 211.593C195.016 208.733 197.596 205.673 198.496 202.073C198.526 201.953 198.416 201.893 198.326 201.933C198.476 201.633 198.616 201.343 198.766 201.043C198.916 200.783 199.056 200.533 199.186 200.283C198.706 202.263 198.436 204.223 198.076 206.223C197.706 208.333 196.866 210.293 195.936 212.203L195.926 212.193ZM226.436 194.753C224.856 193.163 223.346 191.473 222.006 189.673C220.806 188.063 219.636 186.433 218.756 184.603C217.896 182.803 217.086 180.963 216.266 179.143C214.496 175.193 214.196 171.053 213.966 166.773C213.826 164.203 213.516 161.753 212.726 159.433C212.986 159.963 213.256 160.493 213.506 161.033C214.976 164.143 216.516 167.333 217.596 170.643C217.746 171.473 217.826 172.323 217.846 173.173C217.886 174.763 218.136 176.323 218.146 177.903C218.166 180.603 218.906 182.933 220.556 185.083C222.096 187.093 223.496 189.333 224.876 191.473C226.046 193.303 227.316 195.063 228.516 196.873C227.806 196.193 227.136 195.453 226.436 194.753ZM225.116 175.823C225.346 176.843 225.556 177.933 225.856 178.923C226.256 180.213 226.646 181.473 226.996 182.753C226.016 181.593 224.926 180.523 223.886 179.373C222.856 178.223 221.866 177.123 221.086 175.773C220.566 174.873 220.056 173.953 219.476 173.093C219.396 172.723 219.306 172.363 219.196 172.013C219.026 171.463 218.806 170.843 218.516 170.283C217.966 168.793 217.366 167.333 216.736 165.883C217.166 166.473 217.516 167.133 217.936 167.733C218.356 168.333 218.866 168.873 219.316 169.463C219.746 170.023 220.286 170.553 220.796 171.063C222.246 172.523 223.676 174.023 225.036 175.573C225.056 175.663 225.086 175.743 225.106 175.823H225.116ZM228.696 195.273C228.826 195.923 229.016 196.543 229.216 197.163C228.226 195.103 226.926 193.223 225.776 191.243C225.166 190.193 224.446 189.203 223.816 188.163C223.086 186.963 222.536 185.693 221.946 184.443C221.326 183.133 220.756 181.883 220.306 180.503C219.866 179.153 219.876 178.003 219.856 176.673C219.886 176.053 219.856 175.423 219.776 174.813C219.996 175.183 220.216 175.563 220.426 175.943C221.136 177.223 222.086 178.343 223.056 179.413C224.516 181.033 225.976 182.633 227.386 184.283C227.756 185.833 228.026 187.413 228.116 189.063C228.216 191.113 228.276 193.253 228.686 195.273H228.696ZM217.066 162.433C217.856 162.813 218.606 163.483 219.246 164.093C220.456 165.243 221.456 167.113 222.126 168.633C222.436 169.333 222.836 169.963 223.226 170.623C223.746 171.513 224.036 172.433 224.356 173.403C224.416 173.583 224.476 173.753 224.536 173.923C223.576 172.863 222.596 171.813 221.626 170.753C220.596 169.633 219.616 168.473 218.696 167.253C218.256 166.663 217.876 165.963 217.386 165.423C217.166 165.173 216.876 165.023 216.646 164.793C216.346 164.503 216.106 164.153 215.806 163.863C215.586 163.393 215.386 162.913 215.156 162.443C214.856 161.833 214.536 161.223 214.216 160.623C214.446 160.813 214.676 160.993 214.896 161.163C215.576 161.693 216.276 162.053 217.046 162.423L217.066 162.433ZM175.286 127.903C175.926 125.913 176.876 123.923 178.156 122.263C179.346 120.713 180.516 119.813 182.226 118.893C183.866 118.013 185.516 117.053 186.866 115.743C188.256 114.393 189.036 112.653 189.756 110.893C190.546 108.943 190.806 106.923 190.926 104.833C190.956 104.283 191.006 103.733 191.026 103.183C191.106 103.633 191.186 104.073 191.186 104.543C191.206 105.533 191.276 106.523 191.316 107.513C191.316 108.123 191.336 108.723 191.356 109.333C191.356 109.843 191.326 110.353 191.276 110.863C191.056 112.933 190.476 114.953 189.986 116.963C189.646 118.363 189.246 119.743 188.756 121.093C188.366 121.583 187.886 121.983 187.376 122.363C186.826 122.773 186.296 123.203 185.756 123.623C184.446 124.613 183.086 125.603 181.706 126.493C180.396 127.343 178.876 127.903 177.456 128.563C176.756 128.883 176.066 129.233 175.356 129.533C175.166 129.613 174.966 129.703 174.766 129.803C174.926 129.173 175.086 128.543 175.286 127.923V127.903ZM172.736 145.653C172.956 144.033 172.696 142.333 172.976 140.723C173.266 139.063 173.486 137.373 173.716 135.693C174.066 135.513 174.476 135.383 174.786 135.233C175.416 134.913 175.986 134.503 176.616 134.173C177.176 133.883 177.826 133.683 178.356 133.343C178.606 133.183 178.816 132.953 179.056 132.773C179.376 132.543 179.706 132.353 180.046 132.153C181.266 131.423 182.396 130.593 183.546 129.763C181.686 131.973 179.756 134.093 178.206 136.573C176.316 139.583 174.436 142.553 172.736 145.663V145.653ZM185.216 127.713C185.216 127.713 185.136 127.813 185.106 127.853C184.986 127.943 184.866 128.033 184.746 128.133C184.156 128.623 183.566 129.083 182.946 129.523C181.756 130.383 180.546 131.153 179.296 131.923C178.726 132.273 178.236 132.753 177.636 133.033C177.036 133.303 176.436 133.573 175.856 133.903C175.216 134.263 174.616 134.653 173.946 134.953C173.906 134.973 173.866 134.983 173.826 135.003C174.036 133.513 174.276 132.033 174.596 130.573C174.676 130.523 174.746 130.483 174.826 130.433C175.216 130.213 175.626 130.043 176.036 129.863C176.756 129.533 177.466 129.193 178.176 128.853C179.696 128.133 181.226 127.533 182.616 126.573C183.946 125.663 185.356 124.743 186.556 123.673C186.986 123.293 187.646 122.913 188.216 122.473C187.436 124.333 186.456 126.103 185.216 127.723V127.713ZM191.486 117.773C191.346 119.623 190.996 121.443 190.476 123.223C190.196 124.173 189.956 125.123 189.486 126.003C189.066 126.793 188.586 127.563 188.196 128.363C186.696 131.373 184.586 133.913 182.716 136.673C180.856 139.403 178.466 142.023 175.866 144.073C174.926 144.813 174.036 145.583 173.206 146.423C175.026 143.603 176.876 140.783 178.646 137.933C179.806 136.063 181.066 134.203 182.506 132.543C183.836 131.003 185.216 129.563 186.436 127.923C188.676 124.913 190.056 121.323 190.876 117.683C191.106 116.673 191.356 115.653 191.576 114.633C191.596 115.683 191.576 116.743 191.506 117.783L191.486 117.773ZM195.686 79.2732C194.486 77.3932 193.096 75.4832 192.386 73.3532C192.106 72.5032 191.716 71.7332 191.466 70.8632C191.416 70.6732 191.366 70.4732 191.316 70.2832C191.516 70.6832 191.766 71.0832 191.986 71.4232C192.426 72.0732 192.896 72.7132 193.346 73.3632C194.256 74.6832 195.426 75.8032 196.756 76.7132C197.256 77.2532 197.726 77.8232 198.316 78.2832C199.106 78.9032 199.996 79.4232 200.856 79.9432C201.306 80.2132 201.766 80.4732 202.226 80.7232C202.226 80.7532 202.236 80.7832 202.266 80.8132C202.746 81.2632 203.216 81.6532 203.766 82.0032C204.306 82.3432 204.636 82.7132 204.996 83.2432C205.716 84.2932 206.446 85.3232 207.056 86.4432C207.636 87.4932 208.286 88.5232 209.006 89.4832C209.356 89.9632 209.686 90.5032 210.046 91.0132C207.926 89.9032 205.816 88.7732 203.726 87.5932C200.316 85.6632 197.766 82.5632 195.676 79.2832L195.686 79.2732ZM211.376 91.6832C210.926 91.3232 210.606 90.8132 210.296 90.3432C209.936 89.7932 209.566 89.2632 209.216 88.7032C208.556 87.6632 207.986 86.5832 207.366 85.5232C206.746 84.4532 206.136 83.4032 205.416 82.3932C205.366 82.3232 205.316 82.2632 205.256 82.2032C205.726 82.4132 206.206 82.6232 206.686 82.8332C207.396 83.1432 208.086 83.4832 208.776 83.8432C208.686 83.9232 208.676 84.0832 208.776 84.1832C209.136 84.5932 209.546 84.9532 209.926 85.3432C210.366 85.7832 210.626 86.3332 211.046 86.7832C211.456 87.2332 211.716 87.6432 212.006 88.1632C212.316 88.7032 212.756 89.1632 213.096 89.6832C213.826 90.8232 214.576 91.9132 215.426 92.9732C215.816 93.4532 216.206 93.9432 216.646 94.3732C215.496 93.8332 214.376 93.2532 213.246 92.6632C212.616 92.3432 211.996 92.0132 211.376 91.6832ZM218.236 95.0932C218.006 94.9932 217.776 94.8932 217.536 94.7832C217.336 94.6232 217.146 94.4332 217.006 94.2932C216.756 94.0532 216.536 93.7932 216.326 93.5332C215.886 93.0032 215.476 92.4432 215.076 91.8832C214.316 90.8332 213.726 89.6632 212.926 88.6532C212.556 88.1832 212.336 87.6632 212.016 87.1732C211.706 86.7132 211.336 86.3732 211.096 85.8632C210.866 85.3732 210.566 84.9832 210.216 84.5932C211.026 85.0232 211.826 85.4532 212.646 85.8632C213.486 86.2832 214.236 86.7732 214.966 87.2832C215.686 87.8732 216.316 88.4932 216.966 89.1932C217.686 89.9532 218.436 90.6732 219.156 91.4232C219.956 92.2532 220.546 93.2832 221.396 94.0732C223.016 95.6032 224.906 96.8332 226.696 98.1432C227.006 98.3732 227.326 98.6232 227.656 98.8832C226.416 98.3332 225.176 97.7832 223.916 97.2532C222.046 96.4732 220.106 95.8632 218.236 95.0832V95.0932ZM202.606 79.0532C204.296 79.7132 205.976 80.4832 207.686 81.1032C208.566 81.4232 209.406 81.8432 210.286 82.1632C211.106 82.4632 211.956 82.6632 212.736 83.0432C214.336 83.8432 215.736 84.9832 217.356 85.7732C218.216 86.1932 218.966 86.7732 219.776 87.2832C220.706 87.8632 221.656 88.3532 222.456 89.1232C223.716 90.3332 224.726 91.6032 225.816 92.9632C227.116 94.5832 228.016 96.4432 229.096 98.2032C229.496 98.8632 229.966 99.4932 230.436 100.123C230.106 99.8432 229.776 99.5632 229.436 99.3032C228.496 98.5732 227.536 97.8732 226.586 97.1532C224.876 95.8532 222.776 94.7332 221.596 92.8832C221.046 92.0232 220.556 91.1532 219.866 90.3932C219.526 90.0132 219.166 89.6732 218.796 89.3432C217.796 88.0932 216.876 86.8632 215.496 85.9632C213.916 84.9332 212.166 84.0432 210.476 83.2232C206.886 81.4932 202.946 80.4032 199.586 78.2432C199.416 78.1332 199.256 78.0132 199.096 77.8932C200.266 78.3132 201.506 78.6132 202.616 79.0532H202.606Z" fill="url(#paint0_radial_556_63)"/>
<path d="M31.1465 36.2129C31.3065 36.1229 31.4665 36.0429 31.6365 35.9629C31.4765 36.0429 31.3165 36.1329 31.1465 36.2129Z" fill="white"/>
<path d="M30.2773 56.973C30.2773 56.973 30.2573 56.973 30.2473 56.973C30.2173 56.963 30.2373 56.903 30.2673 56.813C30.2373 56.863 30.2473 56.923 30.2673 56.963L30.2773 56.973Z" fill="white"/>
<path d="M164.307 49.103C170.567 48.813 176.957 48.743 182.937 46.673C188.637 44.693 193.197 40.653 197.637 36.703C198.067 36.323 197.467 35.723 197.037 36.063C195.507 37.263 194.007 38.433 192.387 39.503C191.177 40.303 190.087 41.243 188.877 42.043C188.507 42.143 188.137 42.253 187.747 42.433C186.657 42.933 185.507 43.433 184.367 43.823C182.187 44.573 179.697 45.053 177.407 45.283C173.047 45.723 168.937 44.463 165.207 42.293C165.147 42.253 165.087 42.223 165.027 42.183C164.997 42.123 164.947 42.073 164.877 42.033C164.027 41.503 163.587 40.473 163.047 39.673C162.517 38.893 162.007 38.043 161.577 37.203C160.657 35.403 159.977 33.423 159.337 31.513C158.157 27.993 156.517 24.643 155.317 21.133C154.717 19.373 153.687 17.873 152.597 16.393C151.477 14.873 149.967 13.823 148.467 12.723C146.947 11.613 145.517 10.263 144.137 8.98298C143.477 8.37298 142.687 7.91298 141.987 7.34298C141.357 6.83298 140.707 6.33298 140.067 5.82298C138.707 4.76298 137.277 3.80298 135.937 2.71298C134.797 1.78298 133.557 0.602982 132.177 0.0629816C131.357 -0.257018 130.817 0.712981 131.097 1.38298C131.457 2.23298 132.027 2.93298 132.487 3.72298C133.027 4.63298 133.557 5.52298 134.057 6.45298C135.167 8.54298 136.067 10.743 136.937 12.943C138.377 16.573 140.167 20.083 142.037 23.503C143.777 26.693 145.317 30.153 147.537 33.043C148.747 34.613 150.327 35.783 151.877 36.983C153.397 38.163 155.007 39.283 156.667 40.253C159.407 41.863 162.447 43.243 165.647 43.433C166.157 43.703 166.667 43.963 167.187 44.193C170.907 45.833 174.857 46.443 178.877 45.783C180.127 45.583 181.467 45.333 182.757 44.993C181.417 45.453 180.047 45.823 178.637 46.123C176.727 46.523 174.887 46.853 172.927 46.883C171.117 46.913 169.317 47.003 167.507 47.093C164.077 47.253 160.637 47.363 157.217 47.093C153.987 46.833 150.917 46.073 147.777 45.283C146.227 44.893 144.667 44.533 143.117 44.143C141.777 43.803 140.637 43.173 139.367 42.653C137.997 42.093 136.457 41.853 135.147 41.153C134.547 40.823 134.027 40.393 133.397 40.093C132.807 39.813 132.187 39.653 131.577 39.433C128.707 38.393 125.907 37.013 123.087 35.823C121.557 35.173 120.017 34.523 118.517 33.793C117.267 33.183 116.077 32.383 114.787 31.883C113.407 31.353 112.027 30.973 110.667 30.373C109.287 29.773 107.837 29.363 106.457 28.773C105.107 28.193 103.857 27.533 102.407 27.233C100.987 26.943 99.6266 26.563 98.2466 26.123C95.4566 25.223 92.5266 24.593 89.6166 24.223C88.0466 24.023 86.4466 23.973 84.8766 23.783C84.8566 23.783 84.8366 23.783 84.8166 23.783C84.7666 23.783 84.7166 23.763 84.6666 23.753C83.2966 23.513 81.8566 23.243 80.5166 22.853C80.3066 22.773 80.0966 22.463 79.8866 22.333C79.5566 22.133 79.1866 22.013 78.8466 21.793C78.0566 21.283 77.2766 20.763 76.4966 20.243C75.5066 19.583 74.4366 18.873 73.7066 17.933C73.1266 17.183 72.8566 16.293 72.3466 15.503C71.3866 14.023 70.5066 12.503 69.5566 11.013C69.2466 10.523 68.8766 10.303 68.4966 9.91298C68.3566 9.77298 68.3166 9.62298 68.1066 9.36298C67.6166 8.74298 66.9666 8.17299 66.3066 7.74299C63.1466 5.68299 59.3466 4.96299 55.6966 4.45298C54.1066 4.23299 52.4466 4.16298 50.8366 4.22298C49.1766 4.28298 47.5066 4.13299 45.8466 4.10299C43.9766 4.08299 42.0766 4.21299 40.2166 4.10299C39.2366 4.04299 38.2466 3.86299 37.3066 3.60299C36.8366 3.47299 35.5266 3.33298 35.1566 2.95298C34.7566 2.54298 34.0366 3.04298 34.3366 3.55298C34.3566 3.59298 34.3966 3.62298 34.4166 3.65298C34.4166 3.65298 34.4266 3.65299 34.4366 3.67299C34.8666 4.29299 35.6266 4.73299 36.1666 5.24299C37.0066 6.04299 37.8466 6.85298 38.6566 7.68298C40.1566 9.21298 41.7366 10.693 43.3066 12.153C44.8866 13.613 46.5566 14.953 48.0466 16.523C49.3566 17.893 50.9766 19.123 52.5966 20.093C56.3366 22.353 60.5866 23.183 64.8966 22.563C67.1366 22.243 69.3666 21.733 71.6466 21.763C73.3966 21.783 74.9866 22.093 76.5366 22.673C76.9466 22.983 77.3666 23.253 77.8066 23.473C75.5066 23.583 73.2066 23.853 70.9166 24.073C67.6566 24.393 64.4366 24.523 61.2466 25.303C58.0866 26.073 54.8566 26.633 51.7166 27.473C48.6366 28.293 45.6066 29.583 42.6166 30.703C41.2766 31.203 39.9766 31.803 38.6866 32.443C38.5566 32.493 38.4266 32.543 38.3066 32.593C38.2566 32.563 38.1766 32.563 38.1366 32.633C38.1266 32.653 38.0966 32.673 38.0766 32.693C37.8466 32.793 37.6266 32.903 37.4066 33.003C37.3566 33.023 37.3066 33.033 37.2766 33.043C36.6266 33.283 35.9966 33.533 35.3166 33.693C34.1666 33.973 32.9866 34.223 31.8166 34.453C29.8266 34.833 27.7766 34.943 25.7766 35.253C23.8366 35.563 22.0066 35.803 20.1666 36.543C18.2466 37.313 16.2466 37.873 14.6666 39.303C11.8266 41.883 9.64658 45.013 7.64658 48.243C6.60658 49.923 5.43658 51.503 4.08658 52.943C3.43658 53.643 2.78658 54.343 2.14658 55.053C1.52658 55.743 0.946581 56.663 0.106581 57.113C-0.0734188 57.203 -0.0134188 57.503 0.196581 57.503C1.33658 57.503 2.43658 57.193 3.57658 57.103C4.71658 57.013 5.85658 57.093 6.99658 57.063C9.10658 57.013 11.4866 56.513 13.5066 55.933C15.5366 55.343 17.5266 54.713 19.2366 53.413C20.9166 52.143 22.6066 50.733 24.0766 49.233C24.8166 48.473 25.4566 47.713 25.9266 46.753C26.4066 45.793 26.8966 44.783 27.5366 43.913C28.5766 42.483 29.4466 40.963 30.6066 39.623C31.7766 38.273 33.1966 36.803 34.6866 35.813C36.2266 34.793 37.8166 33.823 39.3966 32.863C39.4566 32.823 39.4966 32.773 39.5266 32.713C40.5766 32.203 41.6466 31.713 42.7566 31.303C44.4866 30.673 46.2566 30.133 47.9766 29.473C48.6766 29.203 49.3666 28.973 50.0666 28.753C49.7366 28.973 49.4166 29.213 49.1066 29.443C48.7766 29.693 48.4466 29.953 48.1366 30.223C45.7066 31.563 43.2966 32.773 41.1166 34.543C38.7766 36.443 37.2966 38.773 35.9066 41.423C35.2166 42.743 34.6366 44.103 34.1566 45.513C33.6466 46.983 33.2266 48.533 32.5366 49.943C31.9666 51.103 31.5866 52.393 31.1466 53.613C30.9166 54.263 30.8066 54.883 30.5366 55.533C30.2966 56.113 29.9266 56.633 29.7266 57.213C29.7066 57.283 29.7466 57.363 29.8166 57.383C30.5366 57.623 31.7366 56.533 32.3466 56.203C33.7266 55.453 35.0866 54.693 36.4666 53.963C39.6066 52.303 42.9566 50.863 45.6566 48.493C47.9766 46.453 49.0466 43.213 49.0566 40.173C49.0566 38.603 49.0566 37.053 49.1466 35.483C49.1866 34.823 49.1366 34.293 48.8266 33.683C48.6266 33.273 48.3966 33.063 48.4966 32.553C48.5766 32.143 48.8666 31.643 49.0466 31.283C49.1466 31.083 49.0866 30.873 48.9466 30.753C49.0666 30.643 49.1866 30.533 49.3066 30.423C49.8666 29.923 50.4366 29.393 51.0366 28.933C51.2966 28.733 51.5966 28.463 51.9166 28.243C53.9966 27.703 56.0966 27.283 58.2466 26.813C59.9066 26.453 61.5566 25.983 63.2266 25.663C64.8566 25.343 66.5166 25.303 68.1666 25.173C71.4566 24.923 74.7366 24.533 78.0366 24.393C81.2466 24.263 84.3266 24.853 87.5066 25.113C90.6666 25.363 93.8566 25.953 96.8566 27.033C99.7266 28.063 102.677 28.793 105.387 30.203C106.697 30.893 108.107 31.363 109.437 32.013C110.767 32.663 112.027 33.263 113.407 33.783C114.827 34.323 116.087 35.303 117.427 36.013C118.697 36.693 119.997 37.303 121.327 37.873C124.137 39.093 126.987 40.233 129.777 41.493C130.307 41.733 130.857 41.913 131.407 42.103C130.597 42.023 129.797 41.963 128.987 41.913C126.957 41.803 124.947 41.593 122.917 41.813C122.727 41.833 122.537 41.873 122.337 41.893C121.867 41.883 121.387 41.863 120.917 41.843C118.927 41.743 116.987 41.813 114.997 41.953C113.307 42.073 111.637 42.363 109.967 42.653C108.197 42.963 106.567 43.713 104.827 44.093C103.067 44.473 101.477 44.783 99.9466 45.833C98.4966 46.833 97.2366 47.983 96.1366 49.343C94.0766 51.873 91.9366 54.353 89.8566 56.883C88.7466 58.243 87.7366 59.503 86.4266 60.683C85.5666 61.453 84.5666 62.353 83.5466 63.013C83.2066 63.173 82.8666 63.333 82.5366 63.503C82.1966 63.673 82.3266 64.233 82.7066 64.233C84.7666 64.233 86.8766 64.273 88.9066 63.933C89.9566 63.753 91.0366 63.823 92.0966 63.743C93.2566 63.653 94.3566 63.283 95.4566 62.943C97.5466 62.303 99.5966 61.553 101.717 60.963C103.667 60.413 105.647 59.963 107.587 59.373C108.487 59.103 109.257 58.713 110.067 58.223C110.837 57.773 111.697 57.553 112.447 57.083C113.157 56.643 113.907 56.333 114.577 55.823C115.237 55.333 115.837 54.783 116.497 54.303C117.907 53.283 119.227 52.123 120.377 50.813C121.587 49.443 122.907 48.503 124.487 47.613C126.127 46.693 127.607 45.553 129.377 44.873C131.027 44.233 132.847 43.633 134.617 43.773C135.547 44.163 136.527 44.403 137.487 44.703C138.907 45.143 140.177 45.903 141.607 46.293C142.967 46.663 144.367 46.903 145.737 47.203C148.777 47.883 151.807 48.643 154.917 48.953C158.037 49.263 161.187 49.233 164.317 49.093L164.307 49.103ZM42.0666 40.653C42.1166 40.583 42.1766 40.533 42.2366 40.463C41.9266 41.363 41.5566 42.243 41.2466 43.133C40.8266 44.333 40.5066 45.643 40.3066 46.893C40.1266 48.013 40.2166 49.143 40.1166 50.263C39.3266 50.843 38.5066 51.383 37.6766 51.903C37.6766 51.863 37.6766 51.833 37.6766 51.793C37.6366 51.273 37.6866 50.843 37.7666 50.333C37.8366 49.873 37.8866 49.413 37.9966 48.963C38.0966 48.553 38.2066 48.153 38.2666 47.743C38.3466 47.183 38.4366 46.703 38.6866 46.193C38.8866 45.773 39.1266 45.373 39.3166 44.943C39.4066 44.733 39.4766 44.523 39.5666 44.313C40.4066 43.103 41.1466 41.813 42.0766 40.663L42.0666 40.653ZM40.5966 49.913C40.6066 49.713 40.6066 49.503 40.6166 49.303C40.6466 48.623 40.6866 47.933 40.7966 47.263C40.9966 45.973 41.3566 44.663 41.7366 43.413C42.0966 42.193 42.5666 41.003 42.8966 39.773C43.5466 39.143 44.2266 38.563 44.7366 37.753C44.9266 37.453 45.1066 37.143 45.2666 36.833C45.2066 38.033 45.2366 39.223 45.2666 40.423C45.2966 41.723 44.9566 42.943 44.6866 44.203C44.1666 46.593 42.5466 48.393 40.5866 49.913H40.5966ZM30.8566 56.623C31.5166 55.843 31.9766 54.953 32.5966 54.133C33.3266 53.183 34.1566 52.313 34.8766 51.353C35.6266 50.343 36.1866 49.223 36.8266 48.143C37.1966 47.523 37.6166 46.933 38.0466 46.353C37.9166 46.663 37.8066 46.983 37.7566 47.333C37.6066 48.283 37.3666 49.203 37.2566 50.163C37.1966 50.663 37.1166 51.093 37.1666 51.613C37.1866 51.813 37.2266 52.023 37.1966 52.213C36.1266 52.873 35.0766 53.503 34.1566 54.153C33.2466 54.783 32.3166 55.423 31.4466 56.113C31.3666 56.173 31.1166 56.413 30.8566 56.623ZM30.2666 56.823C30.2366 56.873 30.2466 56.933 30.2666 56.973C30.2666 56.973 30.2466 56.973 30.2366 56.973C30.2066 56.963 30.2266 56.903 30.2566 56.813L30.2666 56.823ZM44.2866 35.533C44.1166 35.863 43.9366 36.203 43.7566 36.523C43.3866 37.183 43.0066 37.773 42.5266 38.353C42.3066 38.623 42.0966 38.893 41.9166 39.173C41.7166 39.363 41.5166 39.563 41.3366 39.783C40.3566 41.003 39.6466 42.443 38.7966 43.743C37.2866 46.053 36.1166 48.523 34.7266 50.883C34.0166 52.093 32.8466 52.993 32.0866 54.173C31.5066 55.073 30.8866 55.923 30.2766 56.793C30.3666 56.603 30.5566 56.323 30.5666 56.293C31.5466 54.493 32.0266 52.413 33.1366 50.673C34.2866 48.873 35.0066 46.793 36.2366 45.053C37.5766 43.153 39.2166 41.503 40.5366 39.593C41.5866 38.073 43.0966 36.943 44.2766 35.523L44.2866 35.533ZM18.6066 46.413C18.4866 46.603 18.3866 46.803 18.2866 47.013C17.8466 47.893 17.3466 48.823 17.0766 49.773C16.8866 50.453 16.6366 51.113 16.3966 51.773C15.5066 52.423 14.5766 53.023 13.5666 53.553C13.6966 53.283 13.8066 53.003 13.9266 52.763C14.2866 52.013 14.7266 51.323 15.2166 50.653C15.7166 49.973 16.1566 49.263 16.6266 48.563C16.7866 48.313 16.9666 48.073 17.1466 47.833C17.3666 47.643 17.5966 47.463 17.8166 47.273C17.8766 47.223 17.8366 47.133 17.7766 47.113C17.9966 46.943 18.2166 46.783 18.4266 46.603C18.4866 46.553 18.5466 46.493 18.6166 46.433L18.6066 46.413ZM31.1466 36.213C31.3066 36.123 31.4666 36.043 31.6366 35.963C31.4766 36.043 31.3166 36.133 31.1466 36.213ZM17.2866 51.083C17.4266 50.783 17.5566 50.483 17.6666 50.183C18.0066 49.223 18.4466 48.293 18.8866 47.383C19.0966 46.953 19.3366 46.533 19.6066 46.133C19.8566 45.773 20.1966 45.493 20.4366 45.123C20.6666 44.773 20.9466 44.463 21.2066 44.133C21.5966 43.823 21.9966 43.513 22.3966 43.203C23.9766 41.993 25.4866 40.693 27.0466 39.463C27.5866 39.043 28.0966 38.573 28.6066 38.123C29.2966 37.753 29.9966 37.383 30.7066 37.023C29.3666 38.293 28.1566 39.813 26.7766 40.993C25.2266 42.313 24.1166 44.013 22.9766 45.663C22.4266 46.463 21.7266 47.153 20.9966 47.793C20.1966 48.493 19.4666 49.253 18.6566 49.943C18.1966 50.333 17.7366 50.713 17.2766 51.083H17.2866ZM6.60658 55.813C5.55658 55.893 4.49658 55.943 3.44658 56.123C3.33658 56.143 3.23658 56.173 3.13658 56.193C3.25658 56.093 3.38658 56.003 3.48658 55.903C4.28658 55.163 5.48658 54.713 6.42658 54.183C7.45658 53.603 8.52658 53.113 9.54658 52.523C10.0166 52.253 10.5166 52.073 10.9566 51.763C11.1166 51.653 11.2766 51.563 11.4366 51.453C11.9866 51.303 12.4766 50.923 13.0466 50.803C13.3766 50.733 13.5766 50.703 13.8466 50.493C14.0966 50.293 14.3566 50.113 14.6066 49.913C14.9566 49.613 15.3066 49.323 15.6666 49.033C15.4466 49.373 15.2166 49.703 14.9666 50.023C14.7066 50.353 14.4366 50.683 14.2166 51.053C14.0066 51.403 13.8466 51.783 13.6666 52.143C13.4766 52.523 13.3166 52.923 13.1466 53.323C13.0766 53.493 12.9966 53.693 12.9066 53.883C10.9966 54.813 8.72658 55.643 6.60658 55.803V55.813ZM15.0266 43.663C15.0266 43.663 15.0566 43.623 15.0766 43.603C15.4966 43.633 15.9166 43.653 16.3366 43.593C16.7966 43.533 17.2366 43.563 17.6966 43.523C18.1666 43.473 18.6166 43.313 19.0766 43.213C19.4766 43.123 19.8766 43.063 20.2566 42.923C20.5066 42.833 20.7566 42.703 20.9966 42.593C20.7866 42.803 20.5966 43.013 20.4166 43.243C19.7866 44.093 19.2366 44.913 18.5366 45.723C17.9966 46.343 17.3566 46.833 16.7966 47.423C16.5966 47.633 16.3766 47.883 16.1366 48.143C15.5366 48.543 14.9566 48.963 14.4066 49.423C14.1366 49.643 13.8566 49.833 13.5766 50.043C13.2966 50.253 13.0666 50.263 12.7566 50.383C12.7566 50.383 12.7366 50.383 12.7266 50.393C12.6966 50.393 12.6766 50.393 12.6466 50.393C12.0366 50.713 11.4266 51.033 10.8166 51.363C10.3066 51.643 9.71658 51.793 9.16658 51.983C7.98658 52.383 6.85658 52.873 5.72658 53.413C5.33658 53.603 4.94658 53.783 4.56658 53.983C6.05658 52.743 7.48658 51.433 8.69658 49.953C9.93658 48.433 11.2866 47.063 12.7166 45.733C13.4666 45.023 14.3166 44.403 15.0266 43.653V43.663ZM27.9866 35.903C29.9866 35.543 31.9466 35.273 33.9266 34.793C33.6766 34.923 33.4266 35.063 33.1666 35.213C32.8666 35.353 32.5766 35.503 32.2766 35.653C32.3066 35.563 32.2566 35.453 32.1366 35.483C28.5366 36.383 25.4766 38.963 22.6166 41.213C22.5866 41.223 22.5666 41.233 22.5366 41.243C21.6666 41.563 20.8666 42.053 19.9966 42.353C19.5366 42.513 19.0466 42.563 18.5666 42.683C18.0966 42.793 17.6566 42.903 17.1766 42.913C16.6066 42.913 16.0066 42.983 15.4666 43.173C15.9566 42.603 16.4366 41.993 16.9966 41.513C17.7466 40.853 18.6666 40.373 19.4766 39.783C20.3266 39.163 21.0666 38.513 22.0166 38.053C23.9366 37.113 25.8866 36.283 27.9966 35.913L27.9866 35.903ZM37.3266 5.45298C39.1366 6.65298 40.8966 7.92298 42.7266 9.09298C44.8666 10.473 47.1066 11.873 49.1166 13.413C51.2666 15.063 53.5966 15.803 56.2966 15.823C57.8866 15.833 59.4466 16.093 61.0266 16.123C61.8666 16.143 62.7166 16.213 63.5566 16.373C66.8666 17.453 70.0566 18.993 73.1666 20.463C73.7066 20.723 74.2366 20.983 74.7666 21.243C72.4466 20.453 69.9966 20.143 67.4266 20.003C63.1466 19.773 59.0166 19.473 55.0566 17.703C53.2266 16.883 51.3966 16.073 49.5966 15.213C47.7666 14.343 46.1366 13.173 44.5266 11.963C42.7366 10.623 41.0366 9.12298 39.4466 7.53298C38.7466 6.83298 38.0066 6.16298 37.3266 5.45298ZM58.6366 8.92299C60.1866 10.283 61.6866 11.713 63.1466 13.163C63.6566 13.663 64.1766 14.203 64.7466 14.643C65.3366 15.093 65.8666 15.603 66.4766 16.023C67.0766 16.443 67.7366 16.793 68.3266 17.223C66.8766 16.593 65.4166 15.993 63.9266 15.443C63.3666 15.153 62.7466 14.933 62.1966 14.763C61.8466 14.653 61.4866 14.563 61.1166 14.483C60.2566 13.903 59.3366 13.383 58.4366 12.873C57.0866 12.093 55.9766 11.103 54.8366 10.073C53.6866 9.04298 52.6166 7.95298 51.4566 6.96298C52.7266 7.31298 53.9966 7.71299 55.2866 8.10299C56.2766 8.41299 57.3766 8.61298 58.3866 8.84298C58.4766 8.86298 58.5566 8.89298 58.6366 8.91298V8.92299ZM45.1366 5.84298C46.7866 5.92298 48.3666 6.20298 49.9166 6.57298C51.5666 7.98298 53.1666 9.44298 54.7866 10.903C55.8666 11.873 56.9766 12.833 58.2566 13.533C58.6366 13.743 59.0166 13.963 59.3866 14.183C58.7666 14.103 58.1466 14.073 57.5266 14.103C56.1966 14.083 55.0466 14.103 53.6966 13.653C52.3166 13.203 51.0666 12.633 49.7566 12.013C48.4966 11.413 47.2266 10.863 46.0366 10.143C44.9966 9.51298 44.0066 8.79298 42.9566 8.18298C40.9766 7.03298 39.0966 5.74299 37.0366 4.74299C37.6566 4.94299 38.2766 5.13298 38.9266 5.26298C40.9366 5.66298 43.0766 5.72298 45.1366 5.83298V5.84298ZM73.0266 19.043C73.1966 19.263 73.3766 19.493 73.5666 19.723C72.9566 19.403 72.3566 19.083 71.7466 18.783C71.2766 18.553 70.7966 18.353 70.3266 18.133C70.0366 17.833 69.6866 17.603 69.3966 17.293C69.1666 17.053 69.0166 16.773 68.7666 16.553C68.2166 16.063 67.5266 15.693 66.9366 15.243C65.7266 14.323 64.5666 13.343 63.4366 12.313C62.3766 11.343 61.3266 10.363 60.2666 9.40298C60.4366 9.46298 60.6066 9.52298 60.7866 9.58298C61.7566 9.90298 62.6766 10.193 63.5666 10.713C64.2266 11.093 64.8466 11.503 65.5566 11.813C67.0766 12.483 68.9466 13.493 70.0966 14.693C70.7066 15.333 71.3766 16.083 71.7566 16.873C72.1266 17.643 72.4866 18.343 73.0166 19.023L73.0266 19.043ZM104.407 59.203C104.507 59.003 104.597 58.803 104.677 58.613C104.977 57.903 105.327 57.213 105.647 56.513C106.297 55.093 106.867 53.573 107.717 52.263C108.607 50.883 109.597 49.523 110.587 48.213C110.997 47.663 111.437 47.143 111.847 46.593C112.227 46.083 112.617 45.603 113.117 45.213C114.467 44.723 115.847 44.323 117.247 43.983C119.267 43.493 121.287 42.913 123.347 42.693C123.857 42.643 124.367 42.613 124.877 42.613C125.487 42.633 126.097 42.643 126.697 42.653C127.687 42.703 128.677 42.763 129.667 42.783C130.137 42.783 130.587 42.873 131.027 42.943C130.477 42.973 129.917 43.013 129.377 43.043C127.287 43.163 125.267 43.423 123.317 44.213C121.557 44.933 119.817 45.713 118.467 47.103C117.167 48.453 116.197 50.103 115.317 51.743C114.397 53.453 113.497 54.623 111.947 55.813C110.287 57.093 108.287 58.043 106.307 58.683C105.687 58.883 105.057 59.053 104.427 59.203H104.407ZM97.6266 55.753C100.107 54.203 102.227 52.273 104.437 50.413C103.607 51.563 102.777 52.693 102.047 53.913C101.847 54.243 101.647 54.583 101.427 54.903C101.247 55.143 101.027 55.353 100.857 55.603C100.517 56.133 100.317 56.783 100.027 57.343C99.7066 57.973 99.2866 58.543 98.9666 59.173C98.8066 59.483 98.6866 59.893 98.5066 60.243C96.8166 60.473 95.1266 60.693 93.4766 60.983C91.8666 61.263 90.1666 61.003 88.5466 61.223C91.6466 59.523 94.6166 57.633 97.6366 55.753H97.6266ZM111.737 45.743C111.287 46.313 110.917 46.973 110.537 47.403C109.477 48.613 108.547 50.013 107.637 51.343C106.687 52.743 106.087 54.263 105.357 55.783C105.017 56.493 104.667 57.203 104.347 57.923C104.157 58.333 103.997 58.743 103.777 59.133C103.727 59.213 103.687 59.293 103.637 59.363C102.177 59.683 100.697 59.923 99.2066 60.133C99.2266 60.093 99.2466 60.053 99.2566 60.013C99.5566 59.333 99.9366 58.743 100.307 58.103C100.637 57.523 100.907 56.923 101.177 56.323C101.447 55.723 101.937 55.233 102.287 54.663C103.047 53.413 103.827 52.203 104.687 51.013C105.137 50.393 105.587 49.793 106.077 49.213C106.177 49.093 106.267 48.973 106.357 48.853C106.407 48.813 106.447 48.773 106.497 48.743C108.117 47.493 109.887 46.523 111.747 45.743H111.737ZM119.577 42.403C118.557 42.633 117.537 42.883 116.527 43.103C112.887 43.923 109.307 45.303 106.287 47.543C104.647 48.763 103.207 50.143 101.667 51.473C99.9966 52.913 98.1366 54.173 96.2766 55.333C93.4166 57.103 90.6066 58.953 87.7866 60.773C88.6266 59.933 89.3966 59.053 90.1366 58.113C92.1866 55.513 94.8066 53.123 97.5366 51.263C100.297 49.383 102.837 47.273 105.847 45.783C106.647 45.383 107.417 44.913 108.207 44.493C109.087 44.023 110.027 43.793 110.987 43.503C112.757 42.983 114.587 42.623 116.437 42.493C117.487 42.413 118.537 42.403 119.587 42.423L119.577 42.403ZM146.617 30.223C145.437 28.143 144.307 26.023 143.197 23.903C143.697 24.273 144.247 24.593 144.727 24.943C145.687 25.653 146.727 26.313 147.767 26.893C148.887 27.513 149.907 28.243 150.967 28.953C151.497 29.313 151.867 29.643 152.207 30.183C152.557 30.743 152.947 31.213 153.397 31.683C153.427 31.713 153.457 31.713 153.487 31.723C153.737 32.183 153.997 32.643 154.267 33.093C154.787 33.943 155.307 34.843 155.927 35.633C156.387 36.213 156.947 36.693 157.497 37.193C158.407 38.523 159.527 39.693 160.847 40.603C161.497 41.053 162.127 41.523 162.787 41.963C163.127 42.193 163.517 42.443 163.927 42.633C163.737 42.583 163.537 42.533 163.347 42.483C162.477 42.243 161.707 41.843 160.857 41.563C158.727 40.863 156.817 39.463 154.937 38.263C151.657 36.173 148.557 33.623 146.627 30.203L146.617 30.223ZM141.537 20.723C140.957 19.603 140.377 18.473 139.827 17.323C140.257 17.763 140.747 18.163 141.227 18.543C142.277 19.393 143.377 20.143 144.517 20.873C145.047 21.213 145.497 21.653 146.037 21.963C146.557 22.253 146.977 22.523 147.417 22.923C147.867 23.333 148.417 23.603 148.857 24.043C149.247 24.423 149.607 24.833 150.017 25.193C150.117 25.283 150.277 25.273 150.357 25.193C150.707 25.873 151.057 26.573 151.367 27.283C151.577 27.763 151.787 28.233 151.997 28.713C151.937 28.663 151.877 28.603 151.807 28.553C150.797 27.833 149.747 27.223 148.677 26.603C147.617 25.983 146.537 25.413 145.497 24.753C144.947 24.403 144.407 24.033 143.857 23.673C143.387 23.363 142.867 23.043 142.517 22.593C142.187 21.963 141.857 21.343 141.537 20.723ZM136.947 10.053C136.427 8.79298 135.877 7.55299 135.317 6.31299C135.577 6.64299 135.827 6.96298 136.057 7.27298C137.367 9.06298 138.607 10.953 140.127 12.573C140.927 13.423 141.947 14.013 142.777 14.813C143.527 15.533 144.247 16.293 145.007 17.003C145.707 17.663 146.327 18.283 146.917 19.003C147.437 19.733 147.917 20.483 148.337 21.323C148.747 22.143 149.177 22.953 149.607 23.753C149.207 23.403 148.827 23.103 148.337 22.873C147.827 22.633 147.487 22.263 147.027 21.953C146.537 21.623 146.017 21.413 145.547 21.043C144.537 20.243 143.357 19.653 142.317 18.893C141.757 18.483 141.197 18.083 140.667 17.643C140.407 17.423 140.147 17.203 139.907 16.963C139.777 16.823 139.577 16.633 139.417 16.433C139.317 16.203 139.207 15.973 139.107 15.733C138.327 13.863 137.717 11.923 136.937 10.053H136.947ZM156.307 34.873C156.187 34.713 156.067 34.553 155.957 34.383C153.797 31.013 152.697 27.073 150.977 23.493C150.157 21.793 149.267 20.053 148.237 18.473C147.337 17.093 146.117 16.173 144.857 15.173C144.527 14.813 144.187 14.453 143.807 14.103C143.047 13.413 142.177 12.923 141.317 12.373C139.467 11.193 138.357 9.09299 137.047 7.38299C136.327 6.43299 135.627 5.47298 134.897 4.53298C134.637 4.20298 134.357 3.87298 134.077 3.53298C134.707 4.00298 135.337 4.46298 135.997 4.87298C137.757 5.95298 139.617 6.85298 141.237 8.15298C142.597 9.24298 143.867 10.253 145.077 11.513C145.847 12.313 146.337 13.263 146.917 14.193C147.427 15.003 148.007 15.753 148.427 16.613C149.217 18.233 150.367 19.633 151.157 21.233C151.547 22.013 151.737 22.863 152.037 23.683C152.357 24.563 152.777 25.403 153.097 26.283C153.717 28.003 154.487 29.673 155.147 31.363C155.577 32.473 155.887 33.713 156.307 34.883V34.873Z" fill="url(#paint1_radial_556_63)"/>
<path d="M185.762 31.4614C186.162 31.4914 186.562 31.5214 186.972 31.5714C187.082 31.5814 187.192 31.6115 187.302 31.6215C186.812 31.4615 186.282 31.4214 185.762 31.4614Z" fill="white"/>
<path d="M181.922 59.9914C182.012 59.6214 182.222 59.4914 182.462 59.2314C182.592 59.0914 182.702 58.9414 182.822 58.7914C183.112 58.6614 183.382 58.5114 183.642 58.3214C184.092 58.0014 184.492 57.6214 184.952 57.3214C185.142 57.2014 185.312 57.1314 185.522 57.0514C185.802 56.9514 186.032 56.7714 186.312 56.6614C186.492 56.5914 186.672 56.5214 186.862 56.4614C186.952 56.4314 187.042 56.4114 187.132 56.3814C187.622 56.2414 188.152 56.1514 188.622 55.9714C188.852 55.8814 189.042 55.7614 189.282 55.6914C189.582 55.6114 189.842 55.4714 190.132 55.3514C190.762 55.0714 191.362 54.7514 191.952 54.4114C192.102 54.3414 192.262 54.2614 192.412 54.2014C192.972 53.9614 193.432 53.6514 193.942 53.3314C194.402 53.0414 194.812 52.7214 195.232 52.3814C195.322 52.3114 195.402 52.2414 195.472 52.1614C195.482 52.1514 195.502 52.1414 195.512 52.1314C195.862 51.8114 196.192 51.4214 196.492 51.0514C196.662 50.8414 196.792 50.6014 196.922 50.3614C197.162 50.0614 197.402 49.7514 197.602 49.4214C197.922 48.9014 198.102 48.3414 198.352 47.7914C198.472 47.5414 198.582 47.4014 198.632 47.1214C198.692 46.8114 198.762 46.4914 198.812 46.1714C198.862 45.8614 198.892 45.5214 198.902 45.2014C198.902 45.2114 198.922 45.2214 198.922 45.2414C199.062 45.4614 199.152 45.6914 199.272 45.9114C199.642 46.5914 199.982 47.2914 200.292 48.0114C200.452 48.3914 200.722 48.7214 200.842 49.1114C200.982 49.5514 201.062 50.0114 201.242 50.4414C201.532 51.1714 202.132 51.9114 202.782 52.3614C203.442 52.8314 204.172 53.1814 204.862 53.5914C205.612 54.0314 206.452 54.3814 207.272 54.6714C208.882 55.2414 210.542 55.6114 212.252 55.6114C214.122 55.6114 216.132 54.9114 216.772 53.0014C216.792 52.9314 216.772 52.8814 216.752 52.8314C216.752 52.8114 216.772 52.7914 216.782 52.7714C216.922 52.6514 217.042 52.5114 217.142 52.3414C217.242 52.1814 217.302 52.0214 217.362 51.8414C217.412 51.6914 217.482 51.5614 217.462 51.4014C217.442 51.1714 217.332 50.8314 217.102 50.7414C217.042 50.7114 216.962 50.7214 216.902 50.7614C216.902 50.7614 216.892 50.7614 216.882 50.7714C216.872 50.7814 216.852 50.8014 216.842 50.8114C216.842 50.8114 216.842 50.8314 216.842 50.8414V50.8514C216.812 50.8314 216.772 50.8314 216.742 50.8714C216.312 51.3914 215.392 51.5514 214.772 51.7314C214.372 51.8514 214.002 51.8614 213.702 51.5214C213.482 51.2714 213.342 50.9514 213.182 50.6614C212.432 49.3014 212.172 47.7614 211.852 46.2514C211.582 44.9914 211.262 43.7114 210.582 42.6014C210.222 42.0214 209.752 41.5114 209.222 41.0814C208.722 40.6814 208.222 40.1814 207.642 39.9114C206.902 39.5714 206.182 39.3014 205.412 39.0314C205.202 38.9614 204.982 38.8914 204.762 38.8314C204.852 38.8314 204.942 38.8114 205.032 38.8114C205.502 38.7814 206.002 38.6314 206.452 38.5114C206.802 38.4214 207.162 38.3814 207.502 38.2514C208.382 37.9114 209.272 37.5614 210.112 37.1414C211.022 36.6814 211.892 36.1614 212.782 35.6814C213.132 35.4914 213.452 35.2614 213.772 35.0214C214.182 34.7114 214.632 34.4214 215.012 34.0714C215.652 33.4814 216.312 32.7914 216.782 32.0514C217.292 31.2314 217.682 30.2714 218.012 29.3614C218.142 29.0014 218.252 28.6314 218.262 28.2514C218.272 28.0214 218.332 27.5114 218.132 27.3314C217.912 27.1314 217.632 27.3714 217.422 27.4514C216.952 27.6214 216.472 27.7314 215.992 27.8414C215.002 28.0914 213.962 27.8714 212.972 27.7614C212.482 27.7114 211.992 27.6614 211.502 27.6314C211.032 27.6014 210.602 27.6514 210.142 27.6714C208.212 27.7714 206.462 28.6514 204.832 29.6314C204.572 29.7914 204.332 29.9814 204.062 30.1114C203.822 30.2214 203.592 30.3214 203.362 30.4614C203.862 29.8114 204.332 29.0614 204.552 28.2814C204.802 27.3414 204.842 26.3314 204.872 25.3614C204.892 24.3514 204.742 23.3414 204.492 22.3714C204.212 21.2714 203.722 20.3014 203.102 19.3514C202.512 18.4514 201.802 17.4914 200.862 16.9514C200.352 16.6614 199.822 16.4214 199.332 16.0914C198.842 15.7714 198.382 15.3914 197.882 15.1014C197.332 14.7814 196.842 14.3514 196.332 13.9714C195.912 13.6614 196.022 13.3314 196.072 12.8814C196.072 12.8314 196.052 12.7014 196.032 12.5814C196.112 12.4814 196.132 12.3514 196.062 12.2414C196.062 12.0614 195.832 11.9114 195.682 12.0614C195.632 12.0614 195.582 12.0814 195.532 12.1214C195.372 12.2714 195.302 12.2514 195.112 12.4214C194.922 12.5914 194.762 12.8314 194.662 13.0614C194.552 13.3214 194.592 13.5414 194.572 13.8114C194.552 14.1014 194.462 14.3514 194.522 14.6414C194.582 14.9114 194.682 15.1814 194.752 15.4514C194.832 15.7614 194.842 16.0714 194.882 16.3814C194.952 16.9814 195.312 17.5114 195.412 18.1014C195.452 18.3714 195.382 18.6314 195.442 18.9114C195.512 19.2614 195.562 19.5714 195.542 19.9314C195.492 20.6714 195.332 21.3714 195.072 22.0614C194.842 22.6814 194.442 23.2214 194.142 23.8114C193.822 24.4314 193.552 25.1214 193.362 25.7914C193.152 26.5314 192.932 27.2514 192.772 28.0014C192.692 28.4014 192.622 28.8014 192.562 29.2114C192.522 29.4814 192.562 29.7814 192.542 30.0614C192.522 30.0814 192.502 30.0914 192.472 30.1214C192.452 30.1414 192.442 30.1714 192.422 30.1914C192.372 30.1714 192.322 30.1414 192.272 30.1214C191.312 29.6714 190.242 29.3514 189.162 29.3814C188.652 29.4014 188.152 29.3614 187.642 29.3814C187.042 29.4014 186.482 29.5414 185.882 29.6214C184.692 29.7814 183.562 30.1214 182.352 29.8714C181.342 29.6614 180.372 29.3114 179.352 29.0914C178.332 28.8714 177.262 28.8614 176.252 29.1514C174.982 29.5114 173.842 30.0114 172.892 30.9614C172.452 31.4014 172.032 31.9914 171.722 32.5314C171.472 32.9514 171.142 33.3914 171.012 33.8614C170.982 33.9814 171.012 34.0714 171.072 34.1514C171.122 34.4614 171.362 34.7214 171.692 34.6814C172.562 35.0014 173.302 35.4014 174.032 36.0114C174.442 36.3514 174.782 36.7514 175.112 37.1614C175.432 37.5514 175.652 38.0114 175.982 38.4014C177.292 39.9514 179.092 40.9614 180.872 41.8814C181.752 42.3314 182.662 42.7414 183.592 43.0714C183.962 43.2014 184.332 43.3714 184.712 43.4714C185.162 43.5814 185.672 43.5814 186.132 43.6214C186.482 43.6514 186.852 43.5914 187.212 43.5414C187.122 43.5914 187.032 43.6414 186.952 43.7114C186.592 43.9914 186.172 44.2114 185.822 44.5114C185.282 44.9514 184.782 45.4314 184.242 45.8714C183.712 46.3014 183.272 46.9614 182.862 47.5014C182.002 48.6614 181.522 50.0214 181.012 51.3514C180.502 52.6614 180.202 54.1514 180.342 55.5514C180.412 56.2214 180.622 56.8814 180.712 57.5414C180.762 57.9114 180.882 58.2514 181.042 58.5914C181.062 58.6314 181.082 58.6714 181.102 58.7114C181.132 58.9214 181.202 59.0914 181.252 59.3014C181.282 59.4114 181.332 59.4914 181.402 59.5414C181.382 59.6914 181.382 59.8414 181.412 60.0114C181.462 60.3014 181.832 60.2814 181.902 60.0114L181.922 59.9914ZM181.842 57.4114C181.802 57.5014 181.762 57.6014 181.732 57.7014C181.702 57.4014 181.662 57.1014 181.652 56.8014C181.602 55.9414 181.502 55.0914 181.702 54.2414C181.922 53.3314 182.342 52.4014 182.832 51.6114C183.042 51.2614 183.242 50.8914 183.482 50.5514C183.732 50.2014 184.022 49.8814 184.282 49.5414C184.772 48.8914 185.352 48.3014 185.892 47.6914C186.512 47.0014 187.342 46.5514 188.052 45.9614C188.742 45.3914 189.432 44.8014 190.112 44.2214C190.722 43.7014 191.422 43.3214 192.022 42.8014C193.372 41.6414 194.332 40.1314 195.312 38.6714C195.292 38.7514 195.272 38.8414 195.242 38.9314C195.122 39.3514 195.022 39.7514 194.832 40.1414C194.622 40.5614 194.392 40.9714 194.162 41.3814C193.712 42.2014 193.262 42.9814 192.682 43.7214C192.402 44.0814 192.062 44.3914 191.752 44.7314C191.422 45.1014 191.062 45.4814 190.692 45.8214C189.982 46.4714 189.292 47.1414 188.542 47.7414C188.182 48.0214 187.812 48.2914 187.482 48.6014C187.132 48.9314 186.822 49.2814 186.482 49.6114C186.182 49.9114 185.932 50.2514 185.652 50.5714C185.322 50.9514 184.942 51.3014 184.622 51.6914C184.392 51.9714 184.262 52.3314 184.042 52.6214C183.812 52.9314 183.492 53.2014 183.342 53.5514C182.982 54.4014 182.522 55.2414 182.272 56.1314C182.152 56.5714 182.012 56.9914 181.842 57.4114ZM184.452 55.2714C184.102 55.5014 183.762 55.7414 183.442 56.0014C183.382 56.0514 183.322 56.1114 183.262 56.1614C183.482 55.5114 183.782 54.8714 184.052 54.2414C184.332 53.5714 184.712 52.9314 184.942 52.2414C185.092 51.8014 185.412 51.4214 185.682 51.0514C185.972 50.6414 186.262 50.2214 186.612 49.8614C186.902 49.5614 187.192 49.2514 187.482 48.9414C187.842 48.5614 188.272 48.2614 188.682 47.9314C189.432 47.3314 190.112 46.6514 190.842 46.0214C191.462 45.4814 192.082 44.8414 192.622 44.2114C193.162 43.5814 193.642 42.8714 194.022 42.1414C194.452 41.3214 195.032 40.5014 195.302 39.6114C195.392 39.3314 195.502 39.0214 195.562 38.7114C195.602 39.1114 195.582 39.5214 195.562 39.8114C195.512 40.5014 195.372 41.2114 195.242 41.8914C195.092 42.6414 194.662 43.3614 194.292 44.0214C193.922 44.6914 193.522 45.3514 193.082 45.9714C192.592 46.6514 192.032 47.2914 191.512 47.9514C191.042 48.5514 190.452 49.0214 189.932 49.5614C189.012 50.5214 187.952 51.3114 187.102 52.3414C186.632 52.9014 186.062 53.3814 185.522 53.8714C185.072 54.2814 184.722 54.7414 184.452 55.2614V55.2714ZM196.962 43.6314C196.962 44.0914 196.872 44.5614 196.802 45.0114C196.732 45.4814 196.642 45.8614 196.412 46.2714C196.162 46.7214 195.832 47.1014 195.512 47.5114C194.922 48.2814 194.192 48.9914 193.472 49.6314C192.772 50.2514 191.982 50.8614 191.152 51.3014C190.712 51.5314 190.312 51.8214 189.882 52.0714C189.442 52.3314 189.002 52.5514 188.572 52.8214C188.162 53.0814 187.742 53.2914 187.302 53.5014C186.832 53.7314 186.422 54.0514 185.972 54.3214C185.712 54.4814 185.442 54.6414 185.172 54.8114C185.392 54.5414 185.622 54.2814 185.892 54.0314C186.372 53.5914 186.872 53.1914 187.312 52.7114C187.772 52.2014 188.212 51.6614 188.712 51.1914C189.252 50.6814 189.752 50.1214 190.292 49.6114C190.872 49.0714 191.412 48.5214 191.902 47.9014C192.462 47.2014 193.072 46.5114 193.562 45.7614C193.972 45.1314 194.392 44.5514 194.732 43.8714C195.082 43.1914 195.452 42.5614 195.592 41.8014C195.732 41.0314 195.892 40.2614 195.892 39.4814C195.892 39.3114 195.892 39.1314 195.862 38.9614C196.002 39.2814 196.132 39.6014 196.282 39.9114C196.432 40.2114 196.532 40.5314 196.652 40.8414C196.682 40.9714 196.702 41.1114 196.722 41.2414C196.772 41.6714 196.722 42.0914 196.752 42.5214C196.772 42.9114 196.962 43.2514 196.952 43.6414L196.962 43.6314ZM212.052 55.2914C211.662 55.2914 211.262 55.3014 210.872 55.2514C210.462 55.2014 210.052 55.0714 209.642 54.9814C209.212 54.8814 208.802 54.6914 208.382 54.5414C207.962 54.3814 207.542 54.2514 207.142 54.0414C206.442 53.6614 205.742 53.2914 205.162 52.7414C204.612 52.2114 203.922 51.8214 203.392 51.2614C202.872 50.7114 202.512 50.0714 202.052 49.4714C201.572 48.8514 201.062 48.1914 200.702 47.4914C200.322 46.7714 199.962 46.0414 199.602 45.3014C199.412 44.9014 199.122 44.5614 198.932 44.1714C198.912 43.1714 198.742 42.2414 198.242 41.3514C198.002 40.9214 197.832 40.4614 197.642 40.0114C197.642 40.0114 197.652 40.0214 197.662 40.0314C198.412 40.7514 199.062 41.5314 199.722 42.3414C200.312 43.0714 200.882 43.8514 201.552 44.5014C202.342 45.2614 202.992 46.1714 203.682 47.0214C203.992 47.4014 204.192 47.8414 204.482 48.2314C204.822 48.6814 205.152 49.1214 205.492 49.5714C205.812 50.0014 206.172 50.3914 206.512 50.8114C206.852 51.2414 207.122 51.7214 207.442 52.1614C208.072 53.0314 208.792 53.7714 209.812 54.1914C210.642 54.5414 211.552 54.7914 212.462 54.7714C213.562 54.7514 214.702 54.6414 215.632 54.0014C214.702 54.8714 213.282 55.3014 212.042 55.2714L212.052 55.2914ZM216.812 51.0614C216.812 51.0614 216.842 51.0414 216.852 51.0214C216.862 51.0714 216.892 51.1214 216.912 51.1714C216.932 51.2314 216.912 51.1714 216.932 51.2314C216.942 51.2914 216.962 51.3514 216.972 51.4114C216.972 51.4514 216.962 51.4914 216.942 51.5314C216.822 51.6814 216.722 51.8314 216.592 51.9814C216.242 52.4214 215.742 52.6314 215.222 52.8114C214.302 53.1414 213.452 53.3414 212.462 53.3614C211.662 53.3614 210.822 53.1114 210.112 52.7614C209.702 52.5614 209.362 52.2314 208.982 51.9814C208.562 51.7014 208.102 51.5214 207.702 51.1914C206.892 50.5214 206.162 49.7114 205.552 48.8514C205.282 48.4614 204.952 48.1014 204.702 47.7014C204.402 47.2314 204.132 46.8014 203.782 46.3614C203.462 45.9714 203.152 45.5714 202.902 45.1414C202.772 44.9114 202.642 44.6814 202.522 44.4414C202.412 44.2314 202.412 44.0214 202.332 43.8014C202.002 42.9214 201.432 42.1614 200.842 41.4314C200.382 40.8514 199.912 40.3014 199.412 39.7714C199.882 40.0314 200.362 40.2714 200.842 40.5314C202.112 41.2214 203.232 42.1314 204.342 43.0514C204.892 43.5014 205.382 44.0314 205.902 44.5214C206.422 45.0114 206.922 45.5514 207.342 46.1314C207.772 46.7314 208.152 47.3414 208.692 47.8614C208.732 47.9014 208.772 47.9414 208.822 47.9814C208.892 48.2714 208.912 48.5714 209.032 48.8514C209.202 49.2714 209.472 49.5714 209.802 49.8714C210.422 50.4614 210.992 51.1014 211.692 51.6014C212.092 51.8914 212.612 52.0414 213.082 52.1914C213.482 52.3214 213.902 52.3714 214.322 52.3314C215.192 52.2314 216.382 51.9214 216.912 51.1714C216.952 51.1214 216.912 51.0514 216.852 51.0514L216.812 51.0614ZM180.832 38.6314C180.052 38.1814 179.312 37.6514 178.592 37.1114C177.812 36.5314 177.192 35.8014 176.452 35.1814C176.072 34.8614 175.632 34.5914 175.282 34.2414C175.132 34.1014 174.992 33.9614 174.842 33.8314C175.452 33.9014 176.092 33.9414 176.682 34.1414C177.322 34.3514 177.942 34.6014 178.542 34.9114C179.722 35.5214 180.622 36.4714 181.662 37.2714C181.962 37.5014 182.252 37.7514 182.562 37.9614C182.842 38.1414 183.132 38.2314 183.442 38.3414C184.012 38.5514 184.542 38.8314 185.112 39.0514C185.472 39.1914 185.832 39.3514 186.212 39.4514C186.522 39.5314 186.832 39.5314 187.152 39.5614C187.572 39.6114 187.992 39.5614 188.412 39.5214C188.972 39.5414 189.552 39.4914 190.082 39.3614C190.852 39.1614 191.612 38.9314 192.352 38.6214C191.772 39.2414 191.042 39.7314 190.322 40.1614C189.582 40.6014 188.852 41.2714 187.992 41.4514C187.682 41.5214 187.382 41.6214 187.062 41.6314C186.482 41.6314 185.892 41.5914 185.362 41.3514C184.572 41.0114 183.832 40.5814 183.112 40.1114C182.772 39.8814 182.382 39.7314 182.032 39.5114C181.622 39.2514 181.292 38.8714 180.862 38.6314H180.832ZM190.552 38.9814C190.182 39.0814 189.812 39.1514 189.432 39.1914C188.832 39.1514 188.222 39.2014 187.632 39.1614C187.312 39.1114 187.002 39.0614 186.682 38.9714C186.262 38.8514 185.882 38.6414 185.482 38.4714C185.432 38.4514 185.382 38.4214 185.332 38.3914C184.862 38.0814 184.422 37.7414 184.032 37.3414C183.812 37.1214 183.532 36.9614 183.282 36.7614C182.972 36.5114 182.662 36.2414 182.342 36.0014C181.812 35.5914 181.372 35.1114 180.842 34.6914C180.272 34.2514 179.662 33.8614 179.022 33.5314C178.422 33.2214 177.792 32.9914 177.152 32.7714C176.492 32.5514 175.802 32.4914 175.112 32.4014C174.942 32.3814 174.752 32.3614 174.572 32.3414C174.732 32.2214 174.902 32.1014 175.092 32.0014C175.462 31.8314 175.862 31.7314 176.272 31.6814C177.192 31.5814 177.972 31.9514 178.812 32.2614C179.562 32.5314 180.402 32.4914 181.182 32.4414C181.502 32.4214 181.782 32.4414 182.092 32.3714C182.462 32.2914 182.852 32.3714 183.232 32.3214C184.082 32.2214 184.922 32.0614 185.782 32.0114C186.642 31.9614 187.522 31.9814 188.392 32.1014C189.222 32.5014 190.082 32.8414 190.922 33.2214C191.452 33.4614 191.902 33.6714 192.342 34.0714C192.772 34.4714 193.082 34.9414 193.242 35.4914C193.302 35.6914 193.382 35.8814 193.402 36.0914C193.422 36.3314 193.382 36.5814 193.392 36.8214C193.392 36.9214 193.402 37.0514 193.412 37.1814C193.382 37.2214 193.352 37.2614 193.322 37.3114C193.172 37.5714 192.982 37.8014 192.792 38.0414C192.122 38.4914 191.312 38.7614 190.542 38.9614L190.552 38.9814ZM185.762 31.4614C186.282 31.4314 186.812 31.4614 187.302 31.6214C187.192 31.6014 187.082 31.5814 186.972 31.5714C186.572 31.5214 186.162 31.4814 185.762 31.4614ZM205.682 39.3614C206.402 39.6014 207.222 39.8714 207.842 40.3114C209.122 41.2214 210.252 42.2914 210.832 43.7714C211.112 44.4814 211.342 45.2014 211.482 45.9514C211.612 46.7114 211.772 47.4714 211.932 48.2214C212.082 48.9214 212.252 49.6214 212.552 50.2714C212.792 50.7814 213.092 51.5014 213.612 51.7814C214.062 52.0314 214.552 51.8714 215.012 51.7314C215.492 51.5914 216.052 51.5214 216.502 51.2814C215.772 51.8114 214.742 52.1214 213.882 52.0914C212.972 52.0514 211.722 51.5314 211.152 50.8014C210.822 50.3814 210.552 49.9014 210.392 49.3914C210.392 49.3714 210.392 49.3514 210.382 49.3214C210.382 49.3014 210.372 49.2814 210.362 49.2614C210.292 49.0114 210.242 48.7514 210.232 48.4914C210.222 48.3114 210.272 48.1314 210.242 47.9514C210.212 47.7414 210.142 47.5214 210.082 47.3114C209.932 46.8114 209.602 46.3914 209.392 45.9214C209.242 45.5714 209.062 45.2014 208.982 44.8214C208.882 44.3614 208.742 43.8214 208.552 43.3814C208.392 43.0114 208.182 42.6114 207.942 42.2814C207.652 41.8814 207.272 41.5714 206.912 41.2314C206.232 40.5814 205.472 39.8714 204.572 39.5414C204.162 39.3914 203.772 39.2214 203.362 39.0814C203.222 39.0414 203.092 38.9814 202.962 38.9314C203.322 38.9314 203.692 38.9014 204.052 38.8714C204.612 38.9514 205.162 39.1714 205.692 39.3414L205.682 39.3614ZM217.892 27.7014C217.892 27.7014 217.922 27.7914 217.932 27.8414C218.132 28.7214 217.582 29.7414 217.232 30.5214C216.802 31.4914 216.332 32.3414 215.582 33.1114C215.302 33.4014 215.042 33.7414 214.732 34.0014C214.352 34.3214 213.932 34.6214 213.542 34.9214C212.862 35.4414 212.102 35.8214 211.382 36.2714C210.542 36.7914 209.682 37.1314 208.772 37.4814C208.342 37.6414 207.912 37.8014 207.482 37.9414C207.132 38.0514 206.752 38.0814 206.392 38.1514C205.402 38.3414 204.382 38.3714 203.372 38.4114C202.862 38.4314 202.392 38.4514 201.872 38.4114C201.442 38.3814 201.012 38.3314 200.582 38.2814C200.792 38.2714 201.002 38.2514 201.202 38.2414C202.122 38.1814 203.012 38.0214 203.922 37.8714C204.732 37.7414 205.472 37.4714 206.152 37.0214C206.502 36.7914 206.882 36.6114 207.232 36.3914C207.622 36.1514 207.962 35.8814 208.372 35.6914C209.112 35.3514 209.782 34.8614 210.482 34.4514C210.812 34.2614 211.112 34.0314 211.442 33.8314C211.822 33.6014 212.202 33.3514 212.592 33.1214C213.242 32.7314 213.912 32.3514 214.502 31.8814C215.212 31.3114 215.832 30.6314 216.392 29.9114C216.682 29.5314 216.992 29.1614 217.272 28.7714C217.502 28.4614 217.762 28.0714 217.892 27.7014ZM201.092 36.8114C201.472 36.5714 201.852 36.3214 202.202 36.0514C202.862 35.5614 203.562 35.1214 204.222 34.6314C205.542 33.6414 206.922 32.7114 208.162 31.6214C208.412 31.4014 208.672 31.1914 208.962 31.0214C209.322 30.8014 209.662 30.7214 210.072 30.6314C210.842 30.4514 211.632 30.4214 212.422 30.2714C213.252 30.1214 214.062 29.7914 214.822 29.4314C215.512 29.1014 216.202 28.7814 216.902 28.4614C216.622 28.7814 216.352 29.1214 216.092 29.4514C215.572 30.1014 215.032 30.7714 214.402 31.3214C213.232 32.3314 211.852 32.9814 210.582 33.8314C209.912 34.2814 209.122 34.6714 208.372 34.9614C207.632 35.2514 206.912 35.5714 206.162 35.8414C205.422 36.1014 204.722 36.3414 203.932 36.4414C203.082 36.5514 202.252 36.7214 201.402 36.7914C201.312 36.7914 201.212 36.8014 201.122 36.8114H201.092ZM205.282 30.2214C206.032 29.6414 206.792 29.0514 207.652 28.6614C208.522 28.2614 209.482 28.0314 210.442 27.9814C211.392 27.9414 212.312 28.0714 213.262 28.1814C214.102 28.2714 214.962 28.4914 215.812 28.3414C216.202 28.2714 216.612 28.2014 216.992 28.0714C217.072 28.0414 217.152 28.0214 217.232 28.0014C217.182 28.0714 217.132 28.1414 217.082 28.2114C216.392 28.5214 215.702 28.8014 215.022 29.1014C214.272 29.4314 213.502 29.7614 212.702 29.9414C211.222 30.2714 209.642 29.9714 208.192 30.5214C207.472 30.7914 206.802 31.0614 206.162 31.4814C205.442 31.9514 204.742 32.4414 204.052 32.9614C202.732 33.9714 201.372 34.9714 199.942 35.8214C199.272 36.2214 198.362 36.5614 197.582 36.6014C197.162 36.6214 196.702 36.6214 196.312 36.7414C196.312 36.7414 196.292 36.7414 196.282 36.7414C196.452 36.7014 196.622 36.6614 196.782 36.6214C196.782 36.6214 196.792 36.6214 196.802 36.6214C196.902 36.6414 197.002 36.6114 197.072 36.5414C197.372 36.4314 197.642 36.2814 197.952 36.1714C198.362 36.0314 198.702 35.8614 199.072 35.6514C199.792 35.2414 200.422 34.6914 201.032 34.1314C201.742 33.4714 202.492 32.8514 203.192 32.1814C203.882 31.5314 204.522 30.8314 205.272 30.2514L205.282 30.2214ZM195.562 13.8914C195.512 13.6814 195.482 13.4614 195.562 13.2714C195.542 13.5914 195.562 13.9214 195.792 14.1614C195.922 14.3014 196.112 14.3714 196.272 14.4714C196.482 14.6114 196.672 14.7914 196.862 14.9514C197.292 15.3014 197.742 15.6214 198.182 15.9514C198.592 16.2614 199.022 16.5514 199.462 16.8114C199.902 17.0714 200.402 17.2914 200.802 17.5914C201.742 18.2814 202.402 19.3514 202.972 20.3614C203.992 22.1914 204.402 24.2614 204.362 26.3314C204.362 26.8214 204.312 27.3014 204.262 27.7914C204.212 28.3514 203.972 28.8114 203.702 29.3014C203.622 29.4414 203.542 29.5814 203.462 29.7114C203.622 29.3114 203.742 28.8914 203.812 28.4614C203.882 28.0514 203.862 27.6414 203.922 27.2314C203.952 27.0414 203.992 26.8514 204.022 26.6614C204.052 26.4614 204.022 26.2714 204.022 26.0714C204.052 25.3614 204.112 24.5914 204.022 23.8814C203.922 23.1814 203.492 22.5314 203.052 21.9914C202.822 21.7114 202.652 21.3714 202.402 21.1014C202.092 20.7614 201.692 20.4814 201.332 20.1914C200.622 19.6114 199.842 19.1714 199.132 18.6014C198.702 18.2514 198.292 17.8914 197.922 17.4814C197.592 17.1114 197.342 16.6814 197.012 16.3014C196.402 15.6114 195.872 14.7614 195.572 13.8914H195.562ZM197.042 17.7414C196.722 17.3014 196.532 16.7814 196.322 16.2714C196.142 15.8514 195.982 15.4014 195.842 14.9714C196.002 15.2714 196.182 15.5614 196.362 15.8614C196.552 16.1714 196.812 16.4314 197.012 16.7414C197.252 17.1014 197.482 17.4514 197.762 17.7814C198.292 18.3914 198.942 19.0014 199.642 19.4314C200.382 19.8914 201.032 20.4114 201.722 20.9414C202.112 21.2314 202.322 21.5414 202.592 21.9314C202.852 22.3014 203.112 22.6214 203.292 23.0414C203.442 23.4014 203.582 23.7114 203.582 24.1114C203.582 24.4614 203.512 24.8114 203.522 25.1714C203.522 25.5314 203.472 25.8814 203.422 26.2414C203.372 26.6514 203.192 26.9914 203.062 27.3914C202.942 27.7614 202.892 28.1314 202.742 28.4914C202.582 28.8914 202.432 29.2914 202.242 29.6614C201.872 30.4014 201.362 31.0814 200.842 31.7214C200.972 31.4914 201.112 31.2614 201.252 31.0414C201.792 30.1814 202.152 29.2414 202.362 28.2414C202.532 27.4014 202.692 26.4614 202.302 25.6514C201.972 24.9514 201.352 24.4114 201.072 23.7114C200.992 23.5214 200.852 23.3514 200.772 23.1614C200.692 22.9714 200.592 22.7814 200.502 22.5914C200.282 22.1414 200.042 21.7014 199.732 21.3014C199.112 20.5214 198.522 19.7314 197.902 18.9514C197.592 18.5614 197.352 18.1414 197.062 17.7414H197.042ZM198.042 19.6014C198.322 19.9814 198.562 20.3914 198.792 20.8014C199.072 21.2814 199.402 21.7314 199.612 22.2514C199.792 22.7014 199.942 23.1414 200.062 23.6114C200.162 23.9914 200.252 24.3514 200.422 24.7114C200.782 25.4314 201.162 26.3014 201.122 27.1214C201.072 28.0314 200.722 28.9614 200.352 29.7814C200.192 30.1614 199.912 30.5214 199.662 30.8514C199.522 31.0414 199.442 31.2714 199.332 31.4714C199.202 31.7014 199.032 31.9314 198.882 32.1414C198.602 32.5314 198.242 32.8814 197.912 33.2114C197.672 33.4614 197.442 33.7114 197.202 33.9514C197.202 33.1914 197.242 32.4314 197.182 31.6714C197.112 30.8214 197.462 30.0214 197.652 29.2014C197.742 28.8314 197.782 28.4714 197.882 28.1014C197.972 27.7514 197.962 27.4214 198.112 27.0814C198.422 26.3814 198.812 25.7214 198.852 24.9314C198.882 24.2314 199.052 23.5514 199.112 22.8514C199.142 22.4514 199.152 22.0814 199.032 21.6914C198.922 21.3214 198.732 20.9514 198.572 20.6014C198.392 20.2014 198.162 19.8414 197.932 19.4714C197.962 19.5214 198.002 19.5614 198.032 19.6114L198.042 19.6014ZM195.092 32.1114C194.752 31.7014 194.272 31.3514 193.852 31.0414C193.662 30.9014 193.462 30.7714 193.262 30.6414C193.282 30.6214 193.302 30.5914 193.322 30.5714C193.472 30.3214 193.382 29.9914 193.402 29.7114C193.452 28.9914 193.622 28.2614 193.782 27.5514C194.092 26.1514 194.622 24.7614 195.262 23.4914C195.562 22.9014 195.842 22.3214 195.952 21.6714C196.072 20.9914 196.182 20.2714 196.162 19.5814C196.162 19.2714 196.072 18.9914 196.022 18.6914C196.012 18.6114 196.012 18.5314 196.022 18.4514C196.172 18.8214 196.342 19.1814 196.522 19.5414C196.602 19.8014 196.682 20.0614 196.742 20.3414C196.822 20.6814 197.022 21.0414 196.992 21.3914C196.982 21.5714 196.922 21.7314 196.922 21.9114C196.922 21.9514 196.922 22.0014 196.932 22.0414C196.932 22.0814 196.932 22.1114 196.932 22.1314C196.912 22.1814 196.892 22.2214 196.892 22.2714C196.862 22.3714 196.822 22.4814 196.802 22.5814C196.752 22.7714 196.712 22.9414 196.692 23.1414C196.622 23.9514 196.572 24.8114 196.372 25.6114C196.192 26.3514 195.792 27.0114 195.672 27.7714C195.552 28.5414 195.542 29.3414 195.532 30.1214C195.532 30.9514 195.532 31.7614 195.732 32.5714C195.752 32.6514 195.782 32.7314 195.802 32.8214C195.802 32.9214 195.802 33.0114 195.792 33.1114C195.582 32.7514 195.342 32.4114 195.092 32.1214V32.1114ZM173.602 31.6814C173.982 31.3614 174.372 31.1314 174.802 30.9014C175.332 30.6114 175.862 30.4314 176.432 30.2114C177.282 29.8914 178.262 29.8114 179.152 29.9214C179.672 29.9814 180.182 30.0614 180.702 30.1414C181.112 30.2114 181.522 30.3614 181.942 30.4014C182.942 30.4914 183.892 30.4814 184.892 30.2814C185.952 30.0714 187.012 29.9814 188.092 30.0014C189.082 30.0214 190.032 30.0714 191.012 30.2814C191.492 30.3814 191.972 30.5514 192.422 30.7614C192.492 30.8514 192.612 30.9014 192.742 30.9214C193.222 31.1714 193.682 31.4714 194.092 31.8014C194.602 32.2114 195.042 32.6614 195.372 33.2314C195.552 33.5414 195.722 33.8614 195.842 34.1914C195.872 34.4714 195.912 34.7314 195.982 35.0014C195.902 35.0714 195.822 35.1514 195.742 35.2314C195.622 34.9414 195.472 34.6714 195.312 34.4314C195.122 34.1414 194.852 33.9114 194.602 33.6814C194.332 33.4514 194.072 33.3514 193.752 33.1914C193.592 33.1114 193.422 33.0314 193.262 32.9614C192.822 32.5614 192.322 32.2414 191.772 32.0314C191.162 31.7914 190.582 31.5714 189.932 31.4714C189.282 31.3714 188.622 31.3214 187.972 31.2214C186.872 31.0414 185.812 31.1114 184.752 31.4014C184.502 31.3914 184.262 31.3814 184.012 31.3614C183.572 31.3314 183.132 31.3814 182.692 31.3414C182.292 31.3014 181.922 31.3914 181.532 31.3814C181.112 31.3714 180.692 31.4314 180.262 31.4114C179.762 31.3914 179.262 31.3414 178.772 31.2914C178.272 31.2414 177.772 31.2214 177.272 31.1814C176.872 31.1514 176.472 31.1514 176.082 31.2114C175.162 31.3614 174.382 31.8014 173.612 32.2714C173.572 32.2914 173.532 32.3214 173.492 32.3414C173.292 32.3614 173.102 32.3914 172.922 32.4314C172.872 32.4414 172.812 32.4714 172.752 32.4914C173.022 32.1914 173.342 31.9014 173.622 31.6614L173.602 31.6814ZM185.832 43.3114C185.382 43.2514 184.982 43.2714 184.552 43.1214C184.112 42.9714 183.652 42.8214 183.222 42.6314C182.282 42.2114 181.412 41.6614 180.552 41.1014C180.192 40.8614 179.832 40.6314 179.482 40.3814C179.082 40.0914 178.762 39.7314 178.402 39.4014C177.672 38.7314 176.932 38.0714 176.412 37.2114C176.342 37.0914 176.262 36.9714 176.192 36.8614C176.252 36.9114 176.302 36.9614 176.362 37.0214C176.702 37.3714 177.022 37.7014 177.412 38.0014C177.762 38.2714 178.142 38.4914 178.482 38.7714C179.202 39.3714 180.102 39.6614 180.892 40.1514C181.662 40.6314 182.502 40.9614 183.372 41.2314C183.772 41.3514 184.142 41.5414 184.542 41.6714C184.952 41.7914 185.372 41.9314 185.792 42.0014C186.252 42.0714 186.742 42.1114 187.202 42.1114C187.542 42.1114 187.872 42.0114 188.202 41.9814C188.542 41.9514 188.902 41.8214 189.222 41.7014C189.662 41.5414 190.112 41.4714 190.562 41.3514C191.632 41.0714 192.522 40.4414 193.282 39.6614C193.612 39.3214 193.942 38.9514 194.232 38.5514C194.022 38.9914 193.772 39.4014 193.462 39.7914C192.902 40.5114 192.082 41.2014 191.272 41.6114C190.862 41.8214 190.472 42.0614 190.042 42.2614C189.592 42.4714 189.122 42.6314 188.662 42.8214C187.762 43.2014 186.782 43.4414 185.802 43.3114H185.832ZM180.892 56.1214C180.612 54.7714 180.802 53.2514 181.372 52.0014C181.952 50.7414 182.822 49.6114 183.562 48.4514C183.922 47.8914 184.382 47.3814 184.772 46.8314C184.942 46.6014 185.142 46.4014 185.292 46.1614C185.472 45.8614 185.642 45.6014 185.882 45.3414C186.282 44.9014 186.752 44.5614 187.172 44.1314C187.372 43.9314 187.602 43.7414 187.852 43.5914C188.062 43.4614 188.282 43.4214 188.452 43.2214C188.572 43.1814 188.692 43.1414 188.822 43.1014C189.272 42.9514 189.722 42.8314 190.162 42.6714C190.662 42.4814 191.142 42.2414 191.642 42.0314C192.552 41.6414 193.432 40.8814 194.042 40.1114C194.522 39.5014 194.902 38.8314 195.052 38.0814C195.132 38.0214 195.202 37.9414 195.262 37.8614C195.312 37.9214 195.352 37.9914 195.402 38.0614C195.402 38.1614 195.402 38.2414 195.392 38.3314C194.932 39.0714 194.492 39.8114 193.952 40.5014C193.352 41.2614 192.812 42.0414 192.042 42.6414C191.392 43.1514 190.632 43.4814 189.982 44.0014C189.232 44.5914 188.512 45.2114 187.772 45.8314C187.112 46.3814 186.392 46.8614 185.802 47.4914C185.222 48.1114 184.652 48.7314 184.112 49.3814C183.852 49.6914 183.562 49.9814 183.322 50.2914C183.032 50.6514 182.812 51.0814 182.572 51.4714C182.132 52.1814 181.712 53.0114 181.472 53.8114C181.202 54.7114 181.122 55.6014 181.102 56.5414C181.102 56.8714 181.122 57.2014 181.132 57.5214C181.042 57.0514 181.022 56.5714 180.922 56.1014L180.892 56.1214Z" fill="url(#paint2_radial_556_63)"/>
<defs>
<radialGradient id="paint0_radial_556_63" cx="0" cy="0" r="1" gradientUnits="userSpaceOnUse" gradientTransform="translate(180.034 144.012) rotate(-166.86) scale(118.93 118.93)">
<stop offset="0.14" stop-color="#B47B1D"/>
<stop offset="0.28" stop-color="#FFEFA2"/>
<stop offset="0.51" stop-color="#B47B1D"/>
<stop offset="0.79" stop-color="#FFEFA2"/>
<stop offset="1" stop-color="#B47B1D"/>
</radialGradient>
<radialGradient id="paint1_radial_556_63" cx="0" cy="0" r="1" gradientUnits="userSpaceOnUse" gradientTransform="translate(90.1989 53.9094) rotate(76.86) scale(118.93)">
<stop offset="0.14" stop-color="#B47B1D"/>
<stop offset="0.28" stop-color="#FFEFA2"/>
<stop offset="0.51" stop-color="#B47B1D"/>
<stop offset="0.79" stop-color="#FFEFA2"/>
<stop offset="1" stop-color="#B47B1D"/>
</radialGradient>
<radialGradient id="paint2_radial_556_63" cx="0" cy="0" r="1" gradientUnits="userSpaceOnUse" gradientTransform="translate(208.425 40.1657) rotate(128.48) scale(38.04)">
<stop offset="0.14" stop-color="#B47B1D"/>
<stop offset="0.28" stop-color="#FFEFA2"/>
<stop offset="0.51" stop-color="#B47B1D"/>
<stop offset="0.79" stop-color="#FFEFA2"/>
<stop offset="1" stop-color="#B47B1D"/>
</radialGradient>
</defs>
</svg>
