<svg width="203" height="427" viewBox="0 0 203 427" fill="none" xmlns="http://www.w3.org/2000/svg">
<path d="M-46.8682 186.135C-21.0355 193.226 -13.8303 193.122 -5.5303 193.804C-1.25961 194.157 -4.49743 192.985 -0.453822 192.16C11.0943 189.798 17.5595 187.687 30.3925 177.715C34.8171 174.272 39.5543 171.226 43.5933 167.281C45.3103 165.602 47.4453 164.421 49.5106 163.168C69.6578 150.941 79.4872 143.628 105.64 146.739C116.864 148.08 163.239 166.771 175.658 157.464C177.943 155.752 179.428 158.388 177.01 159.893C118.737 196.264 114.113 204.02 78.1721 206.358C53.9189 207.934 21.7112 196.494 21.2179 196.232C18.7064 194.922 16.7121 195.919 -3.89259 196.199C-6.24455 196.228 -8.58551 195.199 -11.2092 196.009C-2.07721 201.969 31.3853 210.148 55.8214 229.367C53.9012 230.455 27.4694 213.258 7.39197 206.185C7.2618 206.14 -24.8086 193.726 -25.1178 193.546C-29.0268 191.208 -63.8035 186.117 -63.4542 184.317C-63.1816 182.894 -61.6926 183.464 -60.6536 183.724C-51.6715 185.971 -56.3544 185.57 -47.3329 182.68C-32.4798 177.915 -9.0829 165.16 -0.937802 151.924C4.74823 142.685 17.9911 110.059 19.3748 104.956C20.459 100.972 21.008 103.217 24.8923 94.4677C31.2709 80.1069 51.7623 66.1306 67.0751 53.7299C82.2339 41.4546 95.8484 24.4706 100.118 19.8365C107.618 11.6946 108.476 6.01838 110.097 2.6219C115.15 -7.96556 107.944 27.9094 108.139 46.8193C109.011 132.861 23.9023 146.711 2.50458 159.561C-43.2971 187.059 -46.1852 183.387 -46.8682 186.135ZM89.9364 53.9179C88.5801 51.0256 91.838 35.7937 92.1589 32.5016C87.5076 36.8527 85.6452 58.3251 83.3337 67.2609C79.9184 80.4999 82.1488 73.6932 84.5345 70.8626C86.2342 68.8477 89.6325 58.2451 89.4498 55.6782C91.2543 57.8205 89.4293 59.9959 89.3782 62.4618C96.8534 54.5035 95.4115 33.5917 101.383 22.3601C102.437 20.3818 95.7755 26.2667 94.6457 29.6237C89.1967 45.7676 92.8887 44.1683 89.9364 53.9179ZM136.619 167.386C137.221 166.953 137.984 166.646 138.067 165.506C131.141 169.252 125.241 174.213 118.403 178.482C124.2 179.223 126.413 173.852 129.83 173.258C126.986 176.812 124.255 177.348 135.107 174.318C153.997 169.048 155.603 162.646 161.34 163.541C158.292 165.116 154.851 165.881 152.341 168.487C164.782 164.336 171.16 162.459 162.06 162.068C159.498 161.953 149.642 159.848 139.289 166.562C136.562 168.33 136.606 166.942 136.606 167.385L136.619 167.386ZM84.2767 150.575C79.513 150.717 54.8277 165.734 50.8485 168.267C58.2849 161.704 67.1528 157.354 75.6493 152.363C63.6159 151.915 25.4474 186.863 18.0175 189.12C14.6471 190.142 11.237 191.302 8.27337 193.566C14.1256 193.26 17.1174 196.859 33.1509 182.413C62.2721 156.181 33.2495 184.606 22.0713 192.879C33.5739 197.232 53.6161 174.076 59.3979 168.641C74.4456 154.486 82.1633 152.24 84.2767 150.575ZM21.9143 142.2C30.0072 133.657 31.8377 123.388 33.2688 112.944C33.834 121.866 31.0732 129.979 27.234 138.283C41.1657 124.946 42.9394 124.479 44.9613 117.83C47.5064 109.438 47.2878 101.656 48.6184 100.117C49.1345 104.964 47.7631 109.439 47.6196 114.02C54.6894 97.3357 51.4474 78.8587 59.7191 64.1202C60.5343 62.6632 60.5175 61.9425 59.1008 62.876C31.6726 80.8284 36.6696 101.43 33.4835 104.179C33.6308 96.4591 35.8759 89.5705 37.8861 82.5936C27.9891 92.4096 33.5063 108.892 21.9016 142.199L21.9143 142.2ZM59.7425 189.235C77.1198 183.881 77.5687 177.618 98.0492 161.028C99.0916 160.178 104.406 157.897 106.663 155.894C93.8581 160.015 95.0445 161.67 91.1304 163.054C95.5663 157.41 109.875 152.507 117.018 152.069C98.2992 144.634 80.8841 162.642 77.5592 162.834C85.0763 155.413 87.5645 155.18 102.191 148.98C79.1689 145.881 50.3418 181.874 41.3803 188.666C40.3163 189.475 38.9992 190.059 38.3668 191.612C49.095 189.487 50.2159 194.448 70.7421 180.129C67.9157 184.204 63.2876 185.984 59.7425 189.235ZM61.8483 89.3322C60.8831 85.3053 63.4738 85.3264 63.3753 78.0055C63.278 70.2289 66.6604 62.8212 69.6464 54.9557C53.4108 68.0387 56.9997 90.6271 51.1099 112.702C50.8065 113.858 49.501 114.771 50.1438 116.659C52.3739 112.895 55.8711 110.685 57.5639 106.776C61.8901 96.7693 63.2919 88.2603 59.8438 104.102C69.5149 92.7801 67.5202 82.0046 70.0075 78.2987C69.6492 84.302 69.0025 90.2373 66.86 95.9233C67.5136 95.5537 68.0687 95.2061 68.3629 94.7098C73.7063 85.622 80.6673 83.8756 84.4491 48.4721C85.2266 41.183 87.8442 41.5085 86.6202 38.1355C77.8322 49.4834 71.9782 48.2877 66.0818 67.7685C62.6757 79.0186 66.4016 77.2752 61.8553 89.3265L61.8483 89.3322ZM102.945 166.233C107.759 160.782 114.89 160.401 121.203 158.017C125.327 156.462 125.244 158.732 128.356 156.778C127.202 156.262 119.118 155.217 112.607 156.701C98.3238 159.965 92.0902 170.046 76.7276 183.129C72.169 187.008 70.9875 186.444 70.6308 188.063C101.087 170.568 93.1172 173.02 101.408 168.733C95.7045 175.608 75.5742 187.099 75.4578 187.171C88.7097 187.185 93.7097 181.547 98.1375 180.35C97.2115 182.014 95.1996 182.361 93.8288 184.55C102.257 182.004 108.982 177.14 116.678 174.538C113.179 177.531 97.1326 183.932 106.022 181.966C116.935 179.539 123.73 170.503 145.207 160.35C129.701 156.171 105.785 177.275 102.463 176.871C129.055 158.178 127.378 163.135 134.987 159.042C123.361 157.307 112.987 160.81 102.95 166.24L102.945 166.233ZM59.3071 110.029C68.8952 104.463 79.166 100.52 88.5585 94.8563C85.9029 99.5271 61.2777 108.761 56.8639 113.618C69.7206 106.704 77.7074 106.93 90.0411 97.8322C91.762 96.5576 92.8599 94.5902 94.6308 93.5197C97.5162 91.7737 97.456 88.8856 98.2601 86.272C96.208 87.7117 95.5597 90.6878 92.5746 91.0115C92.5985 90.7123 92.5454 90.4758 92.6345 90.3566C105.26 74.7733 101.993 78.3224 105.028 60.4745C103.994 61.3059 103.482 61.6065 103.125 62.0258C94.7718 71.8071 83.2451 76.2379 76.4485 86.8717C69.5755 97.626 59.6905 107.957 59.3255 110.037L59.3071 110.029ZM66.0109 118.353C66.511 115.509 70.1254 118.601 83.3557 108.445C85.6319 106.695 88.1493 105.097 89.3247 101.796C69.4972 112.516 51.8728 115.495 46.1514 124.133C64.6759 117.087 58.8581 120.535 58.1189 120.8C54.9821 121.923 42.2871 127.178 40.4467 128.935C25.1194 143.632 24.3779 142.78 34.0219 139.068C36.5734 138.083 43.6157 135.851 45.9006 136.04C42.4643 137.396 21.8503 143.907 33.143 141.532C48.8028 138.243 74.0318 123.307 81.7944 111.501C76.7982 114.315 71.9573 117.434 66.0121 118.34L66.0109 118.353ZM11.5484 150.184C13.1889 149.639 13.1652 147.91 14.2848 147.312C19.413 144.589 24.9043 127.711 25.5867 121.234C28.7888 90.6621 34.666 82.8291 26.7774 96.6375C14.4137 118.313 17.5527 135.907 13.6419 138.524C14.3477 132.575 18.967 114.17 15.5519 121.267C11.1124 130.492 6.48395 149.557 -3.05713 159.724C2.48544 156.394 11.4624 153.121 12.5866 142.286C12.6355 141.803 12.8395 141.311 13.7413 141.531C14.0567 144.561 12.0393 147.115 11.5554 150.178L11.5484 150.184ZM77.6713 202.815C75.8981 200.997 72.9437 201.587 73.2034 200.291C73.6378 198.095 92.9259 207.7 108.862 198.136C105.697 197.196 102.238 197.58 99.9716 197.015C84.5719 193.18 67.3141 186.909 52.7283 192.773C57.6967 194.854 62.7598 195.051 67.1575 197.317C60.8121 196.79 54.8071 194.552 48.4904 193.931C57.9664 196.942 67.0275 201.258 77.6782 202.809L77.6713 202.815ZM81.0508 189.232C81.0503 190.946 114.591 199.306 115.671 194.217C116.446 190.567 120.357 192.88 122.992 191.269C127.467 188.53 138.37 183.162 135.78 183.514C131.414 184.101 95.4935 182.121 108.581 185.019C116.672 186.816 102.808 183.222 85.7846 188.182C95.0799 190.442 103.983 191.507 112.718 193.466C101.967 193.534 91.6449 190.328 81.0578 189.226L81.0508 189.232ZM105.718 47.021C104.399 46.4176 102.143 51.0072 97.2922 54.6703C94.1365 57.0562 94.6383 58.5004 89.4201 67.1132C87.1768 70.8184 83.8734 75.2945 85.6216 74.0676C107.528 58.6698 105.3 54.7512 105.725 47.0153L105.718 47.021ZM39.9668 197.418C36.1554 196.585 32.7666 195.256 29.1472 195.316C43.7881 202.077 45.1719 198.746 49.198 200.499C53.9054 202.56 66.9933 205.33 70.4547 203.79C58.7855 200.447 48.3126 194.799 36.2724 194.229C36.7155 196.315 39.0074 195.612 39.9668 197.418ZM97.237 44.9597C102.103 38.1723 101.488 36.832 107.919 16.1349C111.252 5.41017 99.4234 23.0133 97.237 44.9597ZM158.253 169.111C135.935 178.562 117.849 177.803 139.123 178.9C149.395 179.431 151.309 172.778 158.253 169.111ZM106.905 27.6491C105.051 27.9022 106.784 32.5854 102.217 40.3406C101.093 42.2475 99.3002 47.4622 96.6212 50.59C95.1806 52.2656 94.4506 55.9843 97.0959 53.3151C107.496 42.8446 105.71 46.0253 106.905 27.6491ZM121.287 180.992C127.512 182.257 133.7 182.191 139.838 180.45C133.639 179.874 127.436 178.835 121.287 180.992ZM113.072 154.214C114.265 154.278 115.003 154.469 115.908 153.964C114.899 153.726 114.2 153.783 113.072 154.214ZM-73.7935 183.176C-75.9659 183.84 -77.6951 182.79 -80.0094 183.208C-70.5601 188 -10.5809 193.737 18.9454 249.287C32.9051 275.555 35.2185 326.55 35.4957 356.419C35.681 376.875 47.2524 399.541 42.1515 395.412C36.4693 390.813 39.726 378.251 8.46608 356.26C-32.2114 327.644 -50.4148 312.785 -67.5288 268.061C-69.4627 263.018 -71.7536 257.95 -72.1846 252.579C-72.8761 244.016 -74.3064 235.461 -73.2869 226.798C-71.1693 208.695 -76.4548 183.154 -94.5425 181.651C-101.626 181.061 -101.036 180.056 -112.439 179.525C-113.422 179.476 -115.08 179.685 -114.955 178.138C-114.808 176.247 -113.255 177.452 -112.351 177.461C-112.178 177.459 -78.2027 180.01 -73.7795 183.165L-73.7935 183.176ZM-44.1589 307.231C-42.8042 308.492 -39.714 314.412 -36.5546 316.231C-35.7511 311.788 -42.8818 310.84 -35.7597 275.092C-30.1992 247.213 -33.086 257.329 -31.684 252.363C-29.5276 261.922 -35.891 270.373 -37.6565 297.536C-38.3686 308.548 -33.8082 319.971 -32.1551 321.328C-32.277 319.935 -37.3925 305.631 -32.2446 282.518C-24.9838 249.897 -29.9377 231.276 -33.0125 229.319C-31.8231 234.363 -30.4425 239.357 -31.6727 244.591C-32.9407 244.121 -30.9853 245.534 -34.6506 228.195C-35.4927 224.219 -38.2815 221.783 -40.9148 218.953C-41.5081 220.311 -40.6819 221.467 -41.3448 222.626C-42.5771 220.6 -42.0234 218.05 -43.7719 216.305C-44.0392 219.892 -42.4232 223.26 -42.6104 226.816C-42.7359 229.319 -42.4468 245.017 -43.5622 235.191C-45.124 221.475 -41.4572 215.188 -54.667 204.44C-51.8143 225.111 -54.2485 224.367 -54.1823 222.449C-53.8139 212.358 -55.3104 209.393 -55.5671 205.721C-55.7672 202.947 -56.4076 202.047 -59.3991 200.534C-50.1718 221.697 -65.8636 248.218 -63.7273 267.725C-62.5508 278.468 -62.2189 267.661 -61.8099 265.463C-54.0016 223.199 -53.2505 231.363 -53.5231 232.343C-54.334 235.277 -60.9339 262.709 -61.0943 274.926C-61.1458 278.663 -52.1246 296.287 -48.854 300.428C-52.1056 282.553 -43.6093 249.519 -43.3833 246.911C-43.2865 245.829 -42.578 246.627 -42.1713 246.983C-42.3194 248.887 -54.0424 298.049 -44.1913 307.234L-44.1589 307.231ZM-48.828 195.274C-48.2419 195.993 -47.476 196.309 -46.5301 196.222C-48.6788 195.386 -59.6619 190.212 -60.5212 192.801C-60.8021 191.013 -61.902 191.164 -66.9277 190.027C-64.9795 193.032 -61.8902 191.364 -60.5015 192.796C-53.1624 194.157 -49.7371 196.645 -48.8153 195.275L-48.828 195.274ZM-67.6255 232.171C-69.2635 243.833 -68.8383 253.884 -66.5727 257.492C-66.4449 257.434 -48.8282 200.531 -68.487 192.557C-67.4673 196.237 -63.4057 204.477 -66.595 223.907C-66.9359 226.003 -66.5394 228.232 -67.5871 230.59C-69.398 225.283 -60.6363 192.86 -75.9486 187.847C-74.7054 190.272 -68.7402 199.232 -68.4855 205.773C-68.1652 214.009 -72.36 189.42 -79.9896 186.304C-80.3905 187.283 -74.2589 192.134 -72.5768 201.054C-69.0605 219.611 -71.9367 237.283 -70.2644 243.134C-69.3406 240.796 -69.8499 231.385 -67.6369 232.157L-67.6255 232.171ZM2.51968 291.151C-0.0104279 289.076 6.39076 286.9 -7.70495 264.379C-12.6976 256.397 -10.8402 260.676 -9.5668 270.209C-8.75946 276.3 -8.5163 304.098 -9.97264 279.34C-10.3954 272.179 -11.5989 255.688 -17.0102 250.95C-15.8476 268.476 -16.7178 257.751 -18.1149 251.78C-19.3781 246.388 -19.7193 245.955 -22.364 243.553C-19.5527 255.516 -20.1297 271.78 -22.1418 277.383C-21.3526 268.523 -20.2799 240.596 -27.8381 235.952C-28.0485 236.508 -23.3873 255.926 -28.7751 278.303C-32.7973 294.997 -35.5729 318.006 -22.8171 329.497C-28.9761 301.556 -21.0883 276.361 -22.394 284.745C-23.749 293.426 -25.2887 326.908 -19.3636 332.72C-11.3486 340.581 -7.89885 341.056 -2.81447 345.664C-2.42614 346.012 -1.99695 346.21 -1.14965 345.892C-11.6952 328.87 -10.6293 296.263 -8.49667 296.308C-7.94683 297.468 -11.7638 342.271 7.13761 352.145C-1.99189 341.159 1.71494 311.307 2.217 304.265C2.3984 301.716 4.16268 302.166 3.46969 306.216C-0.699228 330.688 7.2573 355.649 6.30387 344.922C3.25988 310.945 8.4169 294.642 3.21107 285.028C2.72086 286.698 3.27641 291.094 2.5184 291.164L2.51968 291.151ZM27.7083 285.223C28.0733 279.47 25.2337 272.787 23.5636 266.281C20.9955 256.288 -13.8515 241.253 -21.4473 239.892C-15.7502 246.181 -10.3528 251.817 -3.52313 255.924C-9.45373 254.534 -16.1847 247.048 -13.414 251.561C5.51777 282.343 21.806 279.882 28.4558 296.968C29.5807 299.862 29.7892 293.818 27.8901 289.76C24.2719 282.021 22.6773 277.808 19.1586 274.406C6.50294 262.18 5.89528 264.249 6.26232 262.528C9.47738 261.772 23.3705 274.515 27.6899 285.214L27.7083 285.223ZM8.32458 296.629C8.03314 296.972 7.80612 297.122 7.81294 297.244C9.01557 309.248 3.73543 352.214 14.8674 357.184C8.86981 339.427 12.0057 315.459 12.147 324.004C12.5443 348.32 13.2709 359.069 27.7145 368.345C26.7005 364.229 24.5471 360.845 25.1428 356.804C26.86 360.568 27.8182 364.6 29.4946 368.385C46.2941 406.209 25.2486 335.377 21.2348 329.767C20.7031 330.643 21.0602 331.553 21.2738 332.358C23.0139 338.807 23.0555 345.486 24.0999 352.025C24.3568 353.668 23.5254 354.463 23.2811 352.82C17.8267 316.157 17.2457 317.773 11.42 303.384C10.9326 305.786 11.5563 307.737 10.6594 309.494C9.7485 305.247 10.2006 300.788 8.32715 296.604L8.32458 296.629ZM-44.135 210.517C-41.4307 217.649 -34.79 219.567 -28.475 222.799C-30.734 223.114 -32.1076 222.229 -33.8957 222.078C-19.0839 235.763 -1.37062 236.021 17.4166 253.669C18.6685 252.019 13.0622 245.784 11.6556 244.401C3.40658 236.253 -13.9227 229.737 -22.5716 225.913C-25.4522 224.636 -33.0086 219.595 -5.77594 231.931C9.0918 238.67 13.5884 245.215 11.2581 240.599C9.91109 237.933 7.09213 236.617 5.50783 234.202C2.12745 229.055 -3.06915 226.123 -8.16724 223.169C-10.8829 221.595 -46.3427 208.237 -47.9398 208.164C-46.0311 209.405 -46.2948 211.753 -44.6268 212.899C-44.0413 212.189 -45.1014 211.503 -44.1337 210.504L-44.135 210.517ZM32.2248 330.82C32.4822 315.05 19.3817 305.694 12.0827 298.24C36.6779 352.355 31.6012 368.941 32.2248 330.82ZM-4.95286 223.37C-4.5059 221.746 -14.7749 213.835 -16.1541 212.814C-20.9762 209.227 -17.069 211.52 -47.5588 202.317C-55.9217 199.786 -58.6193 198.034 -51.2652 203.741C-41.4247 211.385 -17.3429 216.184 -4.95286 223.37ZM0.0112122 271.516C-3.17046 276.628 21.9969 294.902 30.8475 310.474C31.8113 305.842 27.0865 296.674 24.5838 292.618C18.7653 283.223 6.00763 277.701 0.0182109 271.511L0.0112122 271.516ZM18.3921 257.594C1.33299 238.981 -9.01386 241.902 -28.807 229.049C-22.9251 238.136 -25.974 236.81 -4.73877 245.061C3.50503 248.26 11.7126 251.5 18.3864 257.587L18.3921 257.594ZM31.3772 319.809C31.4302 318.274 31.6565 316.738 30.8997 315.466C28.796 311.971 27.3497 308.068 24.4873 305.028C24.4074 304.93 9.97152 286.778 7.6145 288.187C16.9507 307.326 17.8987 296.646 31.3829 319.816L31.3772 319.809ZM-26.6022 206.225C-27.3423 203.017 -48.9731 197.782 -60.8605 193.742C-59.7896 197.17 -26.7743 206.214 -26.6022 206.225ZM-66.9454 261.991C-66.5686 260.996 -66.6279 260.252 -67.7272 259.447C-67.5526 260.447 -67.8663 261.262 -66.9454 261.991ZM191.74 426.721C189.65 418.785 140.449 396.314 133.423 393.952C130.86 393.093 108.664 377.979 108.393 377.803C106.408 376.496 93.9511 364.715 90.4167 362.479C80.3743 356.131 67.5721 302.683 73.5548 285.579C74.1506 283.882 76.224 268.368 75.9247 263.787C74.9226 248.286 72.3677 242.023 59.3072 233.158C58.8273 232.826 55.795 231.021 56.6778 230.29C59.7657 227.749 63.5003 238.202 81.0186 241.65C125.763 250.469 186.201 252.511 199.697 315.125C209.209 359.25 187.619 405.394 192.804 424.269C193.067 425.22 192.958 426.043 191.746 426.728L191.74 426.721ZM157.225 318.65C153.529 319.716 129.954 296.31 137.02 305.736C146.869 318.875 161.588 335.689 175.267 344.97C190.328 355.188 195.087 373.326 196.387 373.292C197.268 370.045 199.527 358.716 198.02 354.711C189.998 333.37 185.452 332.565 178.206 324.018C188.27 331.421 194.189 341.411 198.573 352.675C199.72 350.982 199.025 349.415 199.267 347.983C202.015 331.011 178.01 311.392 177.727 309.887C186.975 316.719 194.235 325.196 198.713 336.232C200.305 333.313 198.043 330.81 197.661 329.571C192.536 312.64 170.264 300.632 169.558 297.337C188.671 307.713 195.323 321.359 198.516 326.962C197.928 304.726 185.913 278.958 164.118 272.364C144.304 266.371 146.317 267.784 145.063 266.416C151.215 266.892 165.323 270.357 179.091 278.517C176.394 273.524 170.53 270.844 164.076 266.956C145.187 255.569 133.244 261.446 89.4882 253.383C96.5973 259.418 124.062 263.01 131.659 264.172C143.982 266.062 115.675 264.835 96.5768 258.164C120.228 284.679 157.391 283.012 165.646 294.139C162.33 294.313 165.423 293.236 151.435 288.076C139.254 283.576 132.601 283.557 116.807 275.382C107.287 270.46 118.072 278.663 120.508 279.894C146.486 292.962 168.904 299.421 171.504 305.11C152.995 294.533 154.257 297.024 118.05 280.207C142.509 308.127 157.891 307.011 167.571 317.128C155.346 309.96 142.585 303.706 130.988 295.478C136.076 303.149 157.22 318.817 157.225 318.65ZM125.321 335.227C123.225 335.199 129.18 305.46 120.906 288.381C119.791 286.085 118.677 283.962 116.454 282.592C115.826 283.536 116.907 284.648 116.047 285.85C113.765 279.679 113.47 277.974 111.053 276.68C117.137 293.644 113.613 301.506 115.131 312.483C115.575 315.642 113.47 314.117 113.282 303.687C112.773 276.176 106.673 270.565 97.7624 263.119C98.9663 267.767 100.691 271.769 100.498 276.146C99.1656 276.183 97.7834 259.43 92.5831 259.194C103.632 290.434 92.7926 316.951 95.6485 301.569C98.0955 288.385 96.4104 259.046 84.4926 252.583C86.1246 254.971 87.3017 256.972 87.6835 259.283C92.8206 290.214 86.4908 294.977 86.8834 292.687C89.2378 278.833 88.338 261.943 80.8265 250.128C77.5332 244.945 83.151 255.751 83.6364 266.79C82.2184 265.836 82.017 256.175 77.4474 247.754C75.5596 244.281 73.9414 244.796 75.0303 246.589C82.8503 259.54 73.91 291.572 74.6774 300.842C76.7634 325.973 74.4005 310.474 82.3236 277.079C84.6696 282.3 72.3899 321.379 79.4959 331.053C80.7478 313.703 87.3002 295.413 84.5681 312.676C81.9122 329.503 76.7508 339.771 90.5887 358.947C93.9989 363.674 90.3222 354.992 91.6452 336.372C93.2071 314.445 97.6293 307.227 95.3098 318.71C92.849 330.891 92.0925 344.178 93.6599 357.015C94.7348 365.848 98.4501 364.905 103.719 370.412C104.99 371.743 114.624 380.533 116.076 379.443C111.385 361.845 111.044 327.598 114.884 322.709C115.286 324.444 111.988 376.785 120.718 382.979C131.925 390.942 125.469 386.251 124.371 376.19C122.915 362.819 124.404 363.459 124.762 368.726C125.093 373.561 127.127 387.114 131.137 389.848C131.383 390.02 144.129 396.985 146.256 396.837C137.608 373.943 140.672 347.715 141.198 356.518C142.466 377.745 141.525 375.447 146.643 393.013C148.296 398.682 150.397 399.103 154.68 401.043C163.467 405.022 161.855 404.774 160.745 399.712C149.434 348.579 160.181 343.677 137.692 310.189C137.25 317.461 142.924 336.893 140.461 345.928C139.202 345.312 140.487 306.36 127.84 296.389C128.211 297.543 132.137 308.959 130.89 308.973C129.437 308.433 131.041 306.787 126.124 295.526C120.697 283.097 128.391 295.964 125.988 332.387C125.928 333.357 126.153 334.433 125.316 335.22L125.321 335.227ZM151.579 331.982C151.206 333.253 155.625 345.503 156.206 355.158C156.591 361.488 160.452 401.081 165.883 404.358C166.186 403.272 163.8 398.002 162.331 385.143C161.989 382.124 163.331 382.627 163.43 383.606C164.019 389.642 165.817 405.962 171.232 408.705C175.017 410.62 176.905 412.822 179.014 412.653C176.345 401.378 178.38 390.931 175.59 384.009C169.423 368.686 170.9 370.769 169.719 370.263C168.871 387.423 173.574 371.107 159.544 346.539C162.216 359.816 160.431 362.169 162.444 375.424C158.27 365.761 162.8 345.704 151.579 331.982ZM159.995 341.463C167.134 355.749 163.36 346.762 173.712 362.777C170.869 361.131 169.669 358.088 167.348 355.855C166.7 358.131 169.161 359.679 173.606 372.374C178.263 385.688 185.481 387.171 189.879 399.88C190.083 400.46 189.938 401.382 190.93 401.471C199.28 378.685 178.063 358.414 160.008 341.464L159.995 341.463ZM193.618 387.182C196.878 381.995 193.703 370.771 190.419 365.243C181.711 350.603 173.987 347.342 167.607 341.645C158.144 333.193 156.609 331.495 153.059 328.654C153.081 337.296 185.663 356.508 193.618 387.182ZM78.0676 243.915C83.5728 255.326 125.852 256.05 139.692 257.228C138.952 252.877 79.2171 244.225 78.0676 243.915ZM178.302 384.479C188.241 413.885 190.05 424.205 190.218 417.239C190.222 417.072 190.615 405.598 190.177 404.346C186.514 393.753 179.635 384.628 178.302 384.479ZM186.32 417.386C185.392 413.491 177.995 388.716 178.372 394.178C179.305 407.637 178.562 414.769 186.32 417.386ZM-41.0643 243.598C-44.0981 255.734 -39.5086 245.092 -40.1709 241.18C-39.9524 241.177 -40.3405 240.7 -41.0643 243.598ZM-41.4593 250.342C-41.333 248.654 -41.2844 248.871 -42.296 248.973C-43.1301 250.364 -41.5739 251.916 -41.4593 250.342ZM50.5669 77.9213C49.059 81.8429 47.8522 85.8338 48.0172 90.0934C48.5699 85.9714 50.5878 82.1469 50.5669 77.9213ZM33.6338 104.849C32.9366 106.408 33.3939 107.469 33.5164 108.476C33.77 107.43 34.3718 106.368 33.6338 104.849ZM61.2044 176.271C41.656 192.847 58.2028 178.403 42.2049 190.092C58.0098 184.295 87.3105 154.14 61.2044 176.271ZM77.9256 174.541C79.4127 174.18 80.282 173.075 81.4088 172.343C79.3229 172.912 79.2263 172.979 77.9256 174.541ZM71.9792 65.1175C71.6837 67.5263 69.413 69.4123 70.4901 72.905C73.0117 64.1127 72.909 65.3153 71.9792 65.1175ZM134.138 169.571C135.641 168.929 136.308 168.304 136.621 167.303C136.618 167.713 135.383 167.356 134.138 169.571ZM-16.5315 283.008C-15.2162 280.036 -14.9013 276.994 -15.3824 273.889C-16.3124 273.82 -16.0164 272.483 -16.5315 283.008ZM3.13596 298.05C3.16584 295.729 3.88893 293.345 2.43518 291.162C2.90155 291.119 1.72625 290.178 3.13596 298.05ZM-16.8088 299.797C-16.5229 298.919 -16.6041 298.053 -17.0523 297.198C-17.3039 298.118 -17.2227 298.984 -16.8088 299.797ZM-15.9635 263.605C-15.8663 263.596 -15.7099 262.559 -16.3357 262.148C-16.5303 262.738 -16.6891 263.672 -15.9635 263.605ZM-40.0542 234.395C-40.8985 236.645 -40.6595 238.909 -40.0934 241.175C-40.7351 241.174 -38.7906 241.745 -40.0542 234.395ZM10.8452 310.193C10.418 311.812 10.7548 312.668 11.2282 313.506C10.6641 313.499 12.3037 314.039 10.8452 310.193ZM11.2282 313.506C11.577 318.548 12.4214 314.398 11.1253 313.508C11.1253 313.508 11.2212 313.511 11.2282 313.506ZM119.433 302.718C119.373 301.216 117.561 300.421 118.354 304.437C118.754 306.442 118.585 305.577 118.832 325.166C117.853 324.251 120.594 330.77 119.433 302.718ZM100.049 295.138C98.6321 296.829 97.092 319.997 97.3199 321.547C98.5936 321.581 100.485 296.845 100.049 295.138ZM131.671 329.445C132.331 326.098 132.57 322.791 131.673 319.548C130.681 319.587 130.819 318.099 131.671 329.445ZM124.839 343.464C125.034 340.718 126.159 338.041 125.316 335.22C124.412 335.211 124.392 339.586 124.839 343.464ZM96.7246 328.874C97.2019 326.446 97.6652 324.028 97.6343 321.548C96.2577 321.516 96.3968 327.044 96.7246 328.874ZM100.138 276.148C98.9822 288.501 101.943 279.805 100.505 276.14C100.382 276.147 100.267 276.148 100.138 276.148ZM119.418 337.743C119.4 335.706 119.382 333.669 119.371 331.627C118.759 333.676 118.275 335.726 119.418 337.743ZM83.625 270.89C83.8969 269.981 83.9954 269.073 83.421 268.154C83.1815 269.06 83.0056 269.973 83.625 270.89ZM124.66 348.459C124.813 347.833 125.328 347.192 124.753 346.401C124.169 347.227 124.35 347.849 124.66 348.459ZM117.473 290.97C117.356 291.741 117.359 292.345 117.887 293.464C118.004 292.308 118.226 291.638 117.473 290.97ZM131.334 310.803C131.197 310.192 131.482 309.47 130.838 308.981C131.102 308.975 129.786 309.99 131.334 310.803ZM119.166 327.376C119.309 326.608 120.231 325.739 118.727 325.194C119.148 325.154 118.174 325.959 119.166 327.376ZM166.174 325.272C167.185 326.697 168.382 327.924 170.416 329.261C169.089 327.162 167.87 325.952 166.174 325.272ZM161.317 321.2C159.846 319.823 158.734 318.958 157.221 318.746C157.247 317.734 157.312 320.758 161.317 321.2ZM181.914 338.281C182.683 337.724 181.387 336.52 180.837 336.502C180.497 337.571 181.742 338.398 181.914 338.281ZM170.683 388.546C170.847 387.048 171.138 385.89 169.824 384.42C169.815 385.981 170.101 387.356 170.683 388.546ZM175.831 365.747C177.618 367.74 178.862 369.395 180.868 370.755C179.064 367.342 178.588 366.844 175.831 365.747Z" fill="url(#paint0_linear_210_3076)"/>
<defs>
<linearGradient id="paint0_linear_210_3076" x1="-33.2752" y1="329.995" x2="218.929" y2="171.286" gradientUnits="userSpaceOnUse">
<stop stop-color="#D7A844"/>
<stop offset="0.25" stop-color="#F3D490"/>
<stop offset="0.32" stop-color="#E6C47E"/>
<stop offset="0.46" stop-color="#C79A52"/>
<stop offset="0.6" stop-color="#A46D21"/>
<stop offset="0.84" stop-color="#DDC67C"/>
<stop offset="0.87" stop-color="#E6D48A"/>
<stop offset="1" stop-color="#E9C780"/>
</linearGradient>
</defs>
</svg>
