<svg width="273" height="96" viewBox="0 0 273 96" fill="none" xmlns="http://www.w3.org/2000/svg">
<path d="M225.324 95.3953H45.2335V95.3297C38.6704 95.0166 32.5019 93.4389 27.6541 90.8088C24.6336 89.1726 22.2252 87.1586 20.6388 84.9495C15.0204 84.0392 9.95038 82.1079 6.25395 79.4553C2.22035 76.5607 0 72.9196 0 69.2011V26.1862C0 22.4677 2.2219 18.8256 6.2555 15.9319C9.95349 13.2793 15.0281 11.3481 20.6543 10.4378C22.2407 8.2367 24.6475 6.22362 27.665 4.58024C33.0939 1.62629 40.1946 0 47.6605 0H225.338C232.798 0 239.903 1.62629 245.346 4.57934C248.366 6.21553 250.775 8.2295 252.363 10.4387C257.981 11.349 263.051 13.2802 266.748 15.9328C270.78 18.8265 273 22.4686 273 26.1862V69.21C273 72.9286 270.778 76.5706 266.744 79.4643C263.047 82.1169 257.972 84.0482 252.346 84.9585C250.759 87.1595 248.352 89.1726 245.335 90.816C239.906 93.7699 232.799 95.3962 225.324 95.3962V95.3953ZM50.0875 92.5853H225.324C231.559 92.5853 237.484 91.2298 242.008 88.7678C244.835 87.2288 246.939 85.3866 248.258 83.2926L248.71 82.5748L249.996 82.4039C255.066 81.7311 259.673 80.0598 262.966 77.6977C266.305 75.3023 268.144 72.2872 268.144 69.2091V26.1853C268.144 23.1072 266.306 20.0921 262.967 17.6958C259.676 15.3337 255.076 13.6625 250.01 12.9905L248.724 12.8196L248.273 12.1009C246.954 10.0006 244.852 8.15934 242.029 6.6293C237.488 4.16557 231.561 2.80913 225.339 2.80913H47.6605C41.4345 2.80913 35.5147 4.16467 30.9901 6.6266C28.1637 8.16564 26.0599 10.0078 24.7408 12.1018L24.2886 12.8196L23.0037 12.9905C17.9337 13.6634 13.3267 15.3346 10.0343 17.6967C6.69522 20.0921 4.85555 23.1072 4.85555 26.1853V69.2001C4.85555 72.2782 6.69367 75.2934 10.0327 77.6896C13.3236 80.0517 17.9244 81.723 22.9897 82.3949L24.2762 82.5658L24.7268 83.2845C26.0459 85.3848 28.1482 87.2261 30.9714 88.7561C35.5131 91.2199 41.4392 92.5763 47.6605 92.5763H50.0875V92.5844V92.5853Z" fill="url(#paint0_linear_713_30854)"/>
<path d="M222.998 90.9245H49.1455V90.9073C43.485 90.7899 38.1242 89.5095 33.9696 87.2714C30.9174 85.6332 28.6833 83.556 27.4894 81.2492C16.673 80.2471 8.58594 74.8041 8.58594 68.4556V26.9315C8.58594 20.584 16.673 15.1409 27.4894 14.1389C28.6662 11.8493 30.8987 9.77288 33.9696 8.11665C38.3337 5.76648 44.0268 4.47168 50.0025 4.47168H223C228.974 4.47168 234.668 5.76648 239.032 8.11665C242.085 9.75481 244.317 11.8321 245.513 14.1389C256.329 15.1409 264.416 20.584 264.416 26.9324V68.4647C264.416 74.8122 256.329 80.2552 245.513 81.2573C244.336 83.5469 242.103 85.6233 239.032 87.2795C234.668 89.6306 228.975 90.9245 223 90.9245H222.998ZM50.8579 89.9288H223C228.542 89.9288 233.822 88.7289 237.87 86.5495C240.846 84.9447 242.971 82.9153 244.016 80.6817L244.165 80.3628L244.729 80.3185C254.977 79.5206 262.704 74.4246 262.704 68.4656V26.9333C262.704 20.9743 254.975 15.8782 244.729 15.0804L244.167 15.037L244.016 14.719C242.951 12.4664 240.826 10.437 237.87 8.85034C233.822 6.67005 228.541 5.47012 223 5.47012H50.0009C44.4584 5.47012 39.1783 6.67005 35.1309 8.84944C32.1547 10.4542 30.0293 12.4836 28.9845 14.7172L28.8354 15.0361L28.2719 15.0804C18.0237 15.8782 10.2968 20.9743 10.2968 26.9333V68.4574C10.2968 74.4164 18.0252 79.5125 28.2719 80.3104L28.8339 80.3537L28.9845 80.6718C30.0495 82.9244 32.1749 84.9538 35.1309 86.5404C39.1783 88.7207 44.46 89.9206 50.0009 89.9206H50.8563V89.9288H50.8579Z" fill="url(#paint1_linear_713_30854)"/>
<path d="M222.799 87.9432H50.2004C45.4622 87.9432 40.9517 86.9197 37.4992 85.0616C34.2572 83.317 32.2328 80.9945 31.7433 78.4793H31.3421C21.6334 78.4793 13.7354 73.9521 13.7354 68.387V27.0088C13.7354 21.4437 21.6334 16.9166 31.3421 16.9166H31.7433C32.2328 14.4014 34.2572 12.0788 37.4992 10.3342C40.9517 8.47618 45.4638 7.45264 50.2004 7.45264H222.799C227.537 7.45264 232.047 8.47618 235.5 10.3342C238.742 12.0788 240.766 14.4014 241.256 16.9166H241.657C251.366 16.9166 259.264 21.4437 259.264 27.0088V68.387C259.264 73.9521 251.366 78.4793 241.657 78.4793H241.256C240.766 80.9945 238.742 83.317 235.5 85.0616C232.047 86.9197 227.535 87.9432 222.799 87.9432ZM31.3406 17.9095C22.5736 17.9095 15.4423 21.9919 15.4423 27.0088V68.387C15.4423 73.4048 22.5751 77.4863 31.3406 77.4863H33.3186L33.3728 77.9482C33.9707 82.9956 41.3622 86.9494 50.1989 86.9494H222.797C231.634 86.9494 239.025 82.9956 239.623 77.9482L239.677 77.4863H241.657C250.424 77.4863 257.555 73.4039 257.555 68.387V27.0088C257.555 21.991 250.422 17.9095 241.657 17.9095H239.677L239.623 17.4477C239.025 12.4002 231.634 8.44647 222.797 8.44647H50.2004C41.3638 8.44647 33.9722 12.4002 33.3743 17.4477L33.3201 17.9095H31.3421H31.3406Z" fill="url(#paint2_linear_713_30854)"/>
<defs>
<linearGradient id="paint0_linear_713_30854" x1="0" y1="47.6977" x2="273" y2="47.6977" gradientUnits="userSpaceOnUse">
<stop stop-color="#FBCF00"/>
<stop offset="0.25" stop-color="#FFFCD1"/>
<stop offset="0.3" stop-color="#FAF4C0"/>
<stop offset="0.38" stop-color="#EFDD93"/>
<stop offset="0.5" stop-color="#DCBA4B"/>
<stop offset="0.6" stop-color="#CB9B0C"/>
<stop offset="0.8" stop-color="#E8CD67"/>
<stop offset="0.87" stop-color="#F3E18B"/>
<stop offset="1" stop-color="#FFFCD1"/>
</linearGradient>
<linearGradient id="paint1_linear_713_30854" x1="8.58438" y1="47.6981" x2="264.415" y2="47.6981" gradientUnits="userSpaceOnUse">
<stop stop-color="#FBCF00"/>
<stop offset="0.25" stop-color="#FFFCD1"/>
<stop offset="0.3" stop-color="#FAF4C0"/>
<stop offset="0.38" stop-color="#EFDD93"/>
<stop offset="0.5" stop-color="#DCBA4B"/>
<stop offset="0.6" stop-color="#CB9B0C"/>
<stop offset="0.8" stop-color="#E8CD67"/>
<stop offset="0.87" stop-color="#F3E18B"/>
<stop offset="1" stop-color="#FFFCD1"/>
</linearGradient>
<linearGradient id="paint2_linear_713_30854" x1="13.7338" y1="47.6975" x2="259.265" y2="47.6975" gradientUnits="userSpaceOnUse">
<stop stop-color="#FBCF00"/>
<stop offset="0.25" stop-color="#FFFCD1"/>
<stop offset="0.3" stop-color="#FAF4C0"/>
<stop offset="0.38" stop-color="#EFDD93"/>
<stop offset="0.5" stop-color="#DCBA4B"/>
<stop offset="0.6" stop-color="#CB9B0C"/>
<stop offset="0.8" stop-color="#E8CD67"/>
<stop offset="0.87" stop-color="#F3E18B"/>
<stop offset="1" stop-color="#FFFCD1"/>
</linearGradient>
</defs>
</svg>
