<svg width="303" height="312" viewBox="0 0 303 312" fill="none" xmlns="http://www.w3.org/2000/svg">
<path d="M353.902 65.2185C334.689 87.8156 331.418 95.095 326.846 103.104C324.491 107.224 327.183 104.525 326.117 108.97C323.076 121.667 322.165 129.146 326.154 146.704C327.535 152.76 328.371 158.943 330.436 164.848C331.316 167.359 331.5 170.055 331.788 172.716C334.614 198.672 337.344 211.968 321.972 236.753C315.37 247.388 274.899 285.156 278.416 301.987C279.062 305.083 275.723 305.336 275.346 302.203C266.166 226.658 260.554 218.378 275.045 181.213C284.826 156.134 311.387 129.18 311.881 128.808C314.371 126.902 314.306 124.433 323.677 103.624C324.75 101.25 326.878 99.3838 327.295 96.3708C317.04 102.738 293.161 132.482 262.437 147.986C262.246 145.548 291.876 127.092 308.375 110.263C308.482 110.153 335.955 83.7945 336.28 83.5684C340.456 80.7427 361.854 48.2318 363.495 49.427C364.794 50.3682 363.526 51.5952 362.778 52.5157C356.316 60.475 358.913 55.9641 357.586 66.3737C355.406 83.5152 357.239 112.98 366.699 127.365C373.301 137.407 399.82 166.006 404.289 169.789C407.777 172.746 405.269 172.244 412.224 180.247C423.639 193.387 428.058 220.509 433.322 241.695C438.532 262.668 449.189 284.3 451.836 290.759C456.489 302.106 461.78 305.631 464.427 308.852C472.679 318.89 440.073 294.825 421.017 286.147C334.313 246.648 360.291 154.739 357.426 127.236C351.303 68.3688 356.338 67.1933 353.902 65.2185ZM422.434 264.547C425.97 264.543 439.721 274.96 442.872 276.827C440.687 270.117 420.024 258.172 412.144 251.66C400.466 242.02 406.248 247.452 407.969 251.175C409.194 253.826 418.236 262.211 420.896 263.233C417.902 264.038 416.575 261.186 414.126 259.978C418.606 271.214 440.255 279.579 448.722 290.842C450.213 292.828 447.431 283.382 444.594 280.673C430.954 267.629 430.829 272.084 422.434 264.547ZM286.762 258.151C286.914 258.958 286.865 259.868 287.969 260.487C287.457 251.778 285.245 243.529 284.167 234.663C280.708 240.134 285.058 244.875 284.053 248.583C281.821 244.061 282.563 241.069 280.518 253.382C276.954 274.811 282.623 279.426 279.038 284.763C278.886 280.966 279.731 277.154 278.293 273.412C276.628 287.846 275.523 295.126 280.178 286.178C281.493 283.66 288.223 274.757 286.338 261.217C285.842 257.65 287.214 258.347 286.769 258.139L286.762 258.151ZM328.133 213.514C330.222 208.667 326.724 176.848 326.048 171.666C329.147 182.208 329.355 193.149 330.381 204.017C336.467 192.151 319.296 137.449 320.513 128.934C321.066 125.071 321.501 121.105 320.618 117.068C318.184 123.085 313.173 124.399 320.15 147.267C332.818 188.801 317.905 146.338 314.844 131.238C305.089 140.738 318.925 171.717 321.668 180.07C328.815 201.813 327.453 210.612 328.133 213.514ZM365.758 154.868C370.535 166.998 379.977 173.654 389.782 179.991C380.569 176.372 373.725 169.794 367.194 162.044C374.045 182.284 373.683 184.283 379.403 189.432C386.628 195.924 394.536 199.356 395.456 201.414C390.353 199.657 386.507 196.181 381.98 193.888C395.401 208.811 415.452 214.228 426.359 229.445C427.438 230.947 428.169 231.268 427.896 229.408C422.74 193.459 399.737 188.807 398.472 184.319C406.145 188.089 412.003 193.575 418.059 198.866C412.85 184.328 393.734 182.13 365.765 154.856L365.758 154.868ZM300.861 170.75C298.091 190.701 304.162 194.091 311.207 222.428C311.571 223.873 311.369 230.276 312.321 233.481C314.186 218.698 311.97 219.111 312.416 214.534C315.998 221.634 314.214 238.294 311.307 245.668C327.532 230.371 317.629 204.445 318.994 201.018C322.916 212.044 321.984 214.65 321.35 232.238C335.243 210.589 312.648 164.77 310.034 152.59C309.721 151.142 309.752 149.546 308.491 148.183C305.596 159.946 300.096 158.743 304.842 186.061C302.078 181.313 302.461 175.833 300.861 170.75ZM400.063 219.744C404.554 220.665 403.319 223.255 410.708 226.591C418.553 230.143 424.398 237.013 430.888 243.7C425.372 221.268 401.035 214.271 381.655 198.002C380.637 197.154 380.333 195.416 378.138 195.175C380.869 199.179 381.447 203.726 384.574 207.259C392.584 216.296 400.462 221.696 386.189 210.802C393.013 225.82 404.755 228.874 407.307 233.109C401.454 229.933 395.804 226.499 391.105 221.681C391.169 222.51 391.258 223.23 391.618 223.758C398.229 233.385 396.72 241.19 430.456 261.598C437.403 265.798 435.85 268.273 439.806 268.627C432.542 254.483 436.483 249.169 419.707 234.111C410.019 225.414 410.023 229.971 400.065 219.754L400.063 219.744ZM303.693 224.898C306.905 232.288 303.947 239.622 303.381 247.076C303.008 251.945 300.77 250.797 301.272 254.836C302.33 253.92 307.165 246.298 308.726 239.068C312.145 223.203 304.954 212.216 299.029 190.661C297.274 184.266 298.393 183.344 296.936 182.226C300.215 221 301.49 211.851 301.906 222.183C297.682 213.233 295.587 187.64 295.57 187.489C289.348 200.782 292.66 208.445 291.786 213.45C290.551 211.74 291.146 209.558 289.592 207.155C288.198 216.808 289.926 225.84 288.93 234.784C287.568 229.867 288.665 210.761 286.473 220.604C283.795 232.695 289.674 243.754 289.796 270.071C301.251 256.471 291.288 222.568 293.249 219.423C299.54 254.881 295.354 250.872 295.895 260.429C303.082 249.575 304.428 237.521 303.683 224.901L303.693 224.898ZM380.505 207.479C381.596 219.713 380.74 231.871 382.02 243.954C378.579 239.097 380.854 210.052 378.05 203.344C378.962 219.49 374.993 227.399 378.341 244.046C378.813 246.371 380.272 248.396 380.516 250.675C380.915 254.39 383.84 255.685 386.085 257.718C385.602 254.983 382.921 252.936 383.995 249.789C384.284 249.953 384.546 250.011 384.623 250.156C394.338 270.138 392.309 265.194 408.788 276.615C408.439 275.187 408.377 274.533 408.124 273.978C402.227 261.005 403.182 247.358 395.701 235.548C388.134 223.604 382.404 208.837 380.488 207.494L380.505 207.479ZM369.006 210.303C371.624 212.14 366.831 214.316 370.818 232.359C371.508 235.465 371.931 238.741 374.691 241.469C373.228 216.541 378.496 197.457 372.512 187.661C370.902 209.558 370.168 202.101 370.249 201.235C370.592 197.56 371.268 182.354 370.369 179.683C362.808 157.405 364.011 157.061 363.216 168.481C363.008 171.503 361.948 179.618 360.688 181.823C360.938 177.738 364.063 153.995 361.156 166.443C357.119 183.701 360.28 216.028 368.485 229.358C368.003 223.024 367.143 216.702 369.019 210.311L369.006 210.303ZM362.594 140.712C362.372 142.614 364.117 143.401 364.193 144.805C364.522 151.23 378.877 164.66 385.054 168.384C414.216 185.943 419.319 195.517 409.165 181.121C393.217 158.542 374.101 153.437 373.308 148.284C378.944 151.784 395.239 165.056 389.722 158.299C382.549 149.515 365.596 135.924 359.868 121.578C360.611 128.703 359.689 139.247 370.029 145.46C370.491 145.735 370.889 146.171 370.245 146.973C367.059 145.868 365.443 142.645 362.597 140.722L362.594 140.712ZM278.833 182.372C281.487 181.446 282.279 178.204 283.457 179.073C285.456 180.539 266.787 195.389 268.914 215.87C271.34 213.134 272.575 209.482 274.204 207.473C285.264 193.818 299.637 179.442 300.589 162.053C296.175 166.063 293.605 171.051 289.272 174.401C292.773 168.281 297.831 163.305 301.412 157.257C293.954 165.354 285.381 172.422 278.836 182.382L278.833 182.372ZM290.883 192.135C289.164 191.33 265.067 221.067 269.665 224.539C272.963 227.029 268.811 229.869 269.193 233.269C269.843 239.045 270.119 252.505 270.98 249.741C272.437 245.084 291.249 209.966 282.211 221.74C276.619 229.016 286.718 216.789 289.718 197.378C283.097 205.646 277.858 214.081 271.802 221.928C276.769 211.107 284.82 202.252 290.885 192.145L290.883 192.135ZM421.948 283.623C423.171 282.583 419.625 278.165 418.223 271.578C417.309 267.292 415.625 267.118 409.431 257.839C406.766 253.85 403.824 248.434 404.236 250.764C409.417 279.973 414.391 279.576 421.951 283.633L421.948 283.623ZM301.918 147.064C304.539 143.63 307.459 140.853 309.094 137.193C295.455 148.713 298.148 151.665 294.503 154.882C290.231 158.64 281.322 170.474 281.245 174.67C290.065 164.529 300.635 156.669 306.848 144.854C304.547 144.319 304.179 146.949 301.918 147.064ZM427.989 276.079C432.517 284.148 434.149 284.159 451.895 300.325C461.089 308.702 448.976 288.572 427.989 276.079ZM274.898 279.052C275.874 252.221 285.107 234.427 274.041 255.261C268.696 265.321 274.473 270.362 274.898 279.052ZM440.821 293.905C441.436 291.925 435.927 291.466 430.288 283.245C428.902 281.222 424.512 276.975 422.63 272.819C421.624 270.587 418.237 268.11 419.675 272.017C425.304 287.367 422.951 284.082 440.821 293.905ZM280.289 236.383C276.103 242.036 273.272 248.277 272.142 255.254C275.624 249.303 279.572 243.565 280.289 236.383ZM310.995 240.704C310.371 241.871 309.834 242.522 309.916 243.667C310.627 242.766 310.898 242.038 310.995 240.704ZM369.483 39.5864C369.835 37.0949 371.698 35.8523 372.363 33.3336C363.13 40.5678 329.279 98.0675 259.734 101.632C226.849 103.315 174.619 81.7078 144.533 67.9704C123.93 58.5577 95.7753 59.5339 102.306 56.3524C109.581 52.8082 120.654 61.9711 157.354 40.9195C205.109 13.5255 228.542 2.24014 281.412 6.04177C287.377 6.46779 293.533 6.54663 299.122 8.63468C308.034 11.9586 317.284 14.5374 325.495 19.6259C342.659 30.2453 370.752 36.926 380.733 19.4797C384.642 12.6478 385.374 13.7112 391.248 2.51753C391.758 1.55375 392.325 -0.208064 393.818 0.643023C395.646 1.67785 393.71 2.67082 393.278 3.57382C393.198 3.74859 374.724 36.6473 369.488 39.6058L369.483 39.5864ZM231.19 11.1123C229.29 11.8796 221.905 12.2031 218.601 14.5203C222.68 17.4114 226.971 10.7001 259.489 34.6222C284.845 53.2841 276.052 45.6404 280.376 49.3775C269.778 47.0558 264.283 36.7043 237.867 22.1868C227.156 16.3048 213.563 15.5212 211.428 16.5436C212.881 17.0746 229.624 18.653 250.394 34.6649C279.711 57.2587 300.706 61.0245 304.11 58.8575C298.493 57.6839 292.838 56.7261 288.165 53.0357C289.23 51.9836 286.897 53.2829 306.005 57.7409C310.387 58.7615 314.136 57.1056 318.208 55.7912C317.124 54.5586 315.577 54.8451 314.726 53.6363C317.336 53.3504 319.633 55.1023 322.202 54.1664C318.731 52.2153 314.595 52.2565 311.116 50.4C308.665 49.0995 292.785 42.0237 303.162 45.5148C317.65 50.3836 322.239 57.0137 339.207 48.8005C317.138 41.9636 319.024 39.8696 320.917 40.8364C330.866 45.9412 334.54 45.8304 338.343 47.2959C341.219 48.3968 342.422 48.1764 345.34 45.8841C319.793 45.2138 300.544 17.0215 279.979 10.0122C268.653 6.15165 279.336 11.5559 281.349 12.9978C320.08 40.6657 311.54 37.5885 310.685 36.8551C308.122 34.6647 283.701 15.1692 271.523 9.27529C267.799 7.47013 245.897 8.25343 240.212 9.59258C259.662 14.7169 288.814 38.7444 291.324 40.1951C292.364 40.7996 291.232 41.1363 290.684 41.3774C288.844 40.3353 245.029 5.50217 231.202 11.0783L231.19 11.1123ZM345.664 58.9611C344.668 59.2118 343.993 59.8323 343.637 60.8225C345.482 59.0584 355.816 50.4641 353.622 48.387C355.547 48.9438 355.911 47.7693 359.405 43.2592C355.479 43.8046 355.704 47.6872 353.617 48.4088C348.815 55.1355 344.715 57.4057 345.657 58.9732L345.664 58.9611ZM317.463 22.7833C306.534 15.6673 296.255 11.378 291.575 11.9587C291.573 12.1139 340.392 56.4941 357.598 40.5072C353.43 39.804 343.263 40.0135 325.27 27.6954C323.327 26.3698 320.905 25.7216 319.032 23.5639C325.203 24.237 353.617 48.2439 365.818 35.2297C362.803 35.3393 351.022 37.1209 344.342 34.3072C335.932 30.7641 362.558 38.0925 369.258 31.8984C368.464 31.0364 360.727 34.9137 350.992 32.4158C330.733 27.2371 314.357 16.0584 307.704 14.9909C309.617 17.0151 319.294 20.9199 317.483 22.7785L317.463 22.7833ZM225.441 65.5038C228.707 63.9386 227.891 71.3834 257.081 67.8053C267.426 66.5404 262.264 66.3968 252.106 63.2011C245.619 61.1535 217.625 48.3534 243.138 58.5093C250.519 61.4455 267.622 67.9759 274.909 64.7688C256.787 57.7115 267.951 61.8707 274.594 63.2705C280.594 64.5332 281.188 64.3939 284.836 62.8667C271.52 60.0744 255.479 51.8639 250.802 47.2155C259.319 52.1651 286.826 66.346 295.023 60.94C294.564 60.4678 272.905 56.0338 252.987 40.1271C238.127 28.257 216.35 14.6747 198.85 22.0836C229.759 29.014 251.333 48.7522 243.536 43.5078C235.465 38.0747 202.604 20.8182 194 24.0373C182.361 28.392 180.269 31.6311 173.265 34.5709C172.734 34.7974 172.335 35.1352 172.256 36.1346C194.269 33.5394 226.473 49.9094 225.429 52.0286C224.008 52.036 180.86 27.182 162.104 41.5175C177.398 37.5104 205.602 55.2384 212.429 59.0463C214.901 60.4244 213.623 61.9837 209.886 59.3879C187.295 43.7213 158.533 39.9934 169.738 44.07C205.242 56.9586 219.176 69.7836 231.258 69.071C229.813 67.7954 225.144 66.2902 225.429 65.4966L225.441 65.5038ZM219.587 93.5635C225.185 96.6289 233.219 96.9155 240.526 98.2923C251.752 100.404 283.155 72.4887 288.078 65.5046C279.102 68.2709 270.921 71.043 263.603 75.9697C267.775 70.6702 278.436 67.428 272.611 68.0908C232.87 72.6455 227.708 90.1463 207.457 88.8021C204.027 88.5729 209.991 91.6183 214.951 91.6168C224.408 91.6171 229.38 91.9939 234.441 90.0592C252.631 83.0954 250.841 81.5148 252.395 82.6908C251.647 86.272 232.358 94.2346 219.604 93.5489L219.587 93.5635ZM217.237 68.7562C217.03 68.303 216.985 68.0048 216.859 67.9541C204.257 63.5283 163.638 38.0683 153.438 46.9074C174.057 49.2211 196.627 63.6145 187.99 59.7468C163.416 48.7355 152.296 44.421 136.226 54.5632C140.829 55.4767 145.232 54.9038 149.006 57.3976C144.427 57.3548 139.933 56.4241 135.351 56.3304C89.547 55.4412 170.447 67.5584 177.953 66.1626C177.323 65.2179 176.244 65.1494 175.337 64.9861C168.053 63.7063 161.335 60.6137 154.288 58.5937C152.519 58.0802 152.112 56.8731 153.873 57.3987C193.2 69.1286 191.851 67.7873 209.012 68.6932C206.831 67.0769 204.582 66.7874 203.241 65.0629C207.926 66.1412 212.187 68.6875 217.261 68.7707L217.237 68.7562ZM328.178 56.5181C319.758 55.8854 314.724 61.6497 308.523 66.4702C309.266 64.0556 310.797 63.0925 311.786 61.3687C291.122 69.8116 282.565 87.4663 256.065 98.0392C257.133 100.07 266.013 97.3692 268.058 96.6065C280.095 92.1517 294.748 77.8185 302.635 70.9336C305.265 68.6418 313.861 63.4242 288.731 84.9646C275.007 96.7227 266.337 98.1642 272.058 97.9916C275.363 97.8912 278.003 95.6794 281.167 95.2227C287.913 94.2455 293.288 90.4063 298.639 86.6764C301.49 84.6898 331.498 55.3723 332.32 53.8041C330.181 55.137 327.95 53.7706 326.019 54.9066C326.457 55.8275 327.641 55.0857 328.19 56.5254L328.178 56.5181ZM171.741 76.7094C187.437 84.3676 202.959 75.6113 213.854 71.7842C148.057 71.0735 133.8 58.1958 171.741 76.7094ZM296.923 89.8105C298.341 91.0207 311.087 84.4279 312.756 83.5227C318.613 80.3666 314.483 83.2116 337.996 56.9325C344.452 49.7275 347.473 47.8425 338.304 52.5445C326.028 58.8333 309.933 80.7482 296.923 89.8105ZM246.308 72.1997C242.672 66.6084 212.555 83.29 192.791 84.865C196.985 88.0057 208.393 87.566 213.633 86.9576C225.782 85.527 237.296 75.3153 246.311 72.2094L246.308 72.1997ZM251.661 97.1788C278.321 88.7932 280.238 77.039 302.401 63.2068C290.531 64.8455 293.29 62.4079 275.067 79.847C267.997 86.619 260.903 93.3352 251.671 97.1763L251.661 97.1788ZM183.189 81.0136C184.704 81.787 186.139 82.7352 187.769 82.5723C192.26 82.1011 196.851 82.481 201.241 81.035C201.377 81.0008 226.345 75.0315 226.037 72.0052C202.468 72.3937 212.735 78.3565 183.18 81.016L183.189 81.0136ZM324.269 76.1268C327.833 76.8893 343.217 57.6387 352.837 47.605C348.898 47.0711 324.361 75.9593 324.269 76.1268ZM287.227 9.47549C288.048 10.3205 288.823 10.6102 290.146 9.88507C289.061 9.5911 288.39 8.89377 287.227 9.47549ZM0.830712 191.78C9.7686 193.406 55.3549 154.575 61.0149 148.633C63.0775 146.463 88.6333 131.281 88.9362 131.092C91.1772 129.713 108.829 122.74 112.727 120.242C123.798 113.143 183.401 125.375 197.753 139.405C199.176 140.8 213.764 150.16 218.499 152.009C234.515 158.277 241.994 158.652 257.003 149.705C257.56 149.379 260.792 147.183 261.112 148.412C262.213 152.703 249.98 151.546 238.315 167.509C208.509 208.274 178.15 267.967 109.028 252.13C60.3171 240.97 24.1512 197.651 2.79189 193.998C1.7147 193.815 0.940131 193.32 0.821005 191.782L0.830712 191.78ZM125.389 207.853C126.051 203.644 160.571 190.968 147.806 193.637C130.015 197.355 106.256 204.237 90.5398 213.609C73.2361 223.928 52.8152 220.193 52.2403 221.513C55.0846 223.922 65.3889 231.504 70.1117 231.872C95.2734 233.836 98.2104 229.652 110.176 226.39C98.0368 233.016 85.2453 234.268 71.8946 233.382C73.0549 235.328 74.9515 235.366 76.275 236.28C92.0103 247.002 122.932 232.118 124.574 232.54C113.39 238.616 101.487 241.923 88.3209 241.238C90.5017 244.205 94.0723 243.11 95.4939 243.309C114.875 246.11 137.353 229.393 140.988 230.231C121.627 244.543 104.824 244.815 97.7095 245.391C120.288 255.234 151.759 255.268 168.582 236.49C183.875 219.418 181.515 220.775 183.474 220.158C180.116 226.109 170.032 238.642 155.398 248.628C161.669 248.266 167.103 243.638 174.027 238.986C194.296 225.373 193.995 210.63 222.58 170.503C213.197 174.805 196.728 200.681 192.004 207.759C184.336 219.24 198.827 191.408 214.464 175.373C176.791 186.666 161.055 224.743 146.028 227.806C147.407 224.396 147.037 228.006 158.765 216.389C168.985 206.277 172.121 199.609 187.719 187.595C197.114 180.351 183.836 187.326 181.46 189.193C156.184 209.13 139.204 228.597 132.28 228.536C151.559 214.925 148.47 215.023 182.297 186.579C142.837 198.024 136.751 213.984 122.069 218.95C134.985 210.046 147.235 200.174 160.92 192.396C150.843 193.903 125.224 207.771 125.389 207.853ZM123.708 168.058C124.718 165.968 151.755 185.898 172.761 185.609C175.586 185.567 178.237 185.446 180.652 183.858C180 182.785 178.379 183.348 177.576 181.921C184.834 182.527 186.683 183.03 189.112 181.212C169.248 179.357 163.014 172.131 151.293 168.504C147.917 167.467 150.432 166.071 160.981 170.777C188.812 183.174 197.297 179.686 208.939 174.238C203.713 173.265 198.891 173.118 194.592 170.87C195.179 169.516 212.629 175.99 215.302 170.882C178.794 167.311 157.276 143.99 171.366 154.074C183.443 162.716 213.658 174.792 225.723 165.865C222.563 166.382 220.005 166.624 217.508 165.923C184.08 156.564 182.267 147.977 184.38 149.445C197.172 158.309 214.533 165.332 229.902 163.337C236.643 162.465 223.173 163.032 211.875 158.339C213.496 157.364 223.28 161.695 233.866 161.06C238.233 160.795 238.475 158.93 236.166 159.181C219.514 160.952 191.576 136.949 181.919 133.37C155.737 123.671 172.388 128.572 202.17 152.193C195.835 152.098 162.393 121.437 149.361 124.029C166.176 133.427 181.451 148.585 165.417 137.743C149.784 127.181 141.903 117.183 116.189 122.072C109.851 123.277 120.281 123.661 138.336 133.726C159.596 145.582 164.763 153.407 154.333 145.691C143.268 137.505 130.297 130.512 116.688 126.061C107.326 122.995 106.53 127.165 98.5384 129.869C96.609 130.52 83.2793 136.064 83.6927 138.033C103.541 141.582 138.048 157.31 141.153 163.458C139.224 163.047 88.274 135.177 77.9717 141.031C64.7352 148.541 72.4646 144.264 83.0698 147.883C97.1623 152.697 95.8232 153.89 90.3722 151.777C85.3676 149.841 70.8224 145.523 66.2021 148.265C65.9138 148.43 52.9573 157.953 52.1099 160.157C79.1224 162.222 103.993 177.603 94.9178 174C73.0329 165.313 75.7787 165.446 55.764 162.341C49.3035 161.338 47.8977 163.249 43.9455 166.637C35.8377 173.588 36.8416 172.088 42.4391 173.349C99.0209 185.991 98.9034 199.076 143.026 192.222C135.939 188.366 113.792 184.942 105.883 178.23C107.092 177.255 145.556 196.823 161.481 188.811C160.149 188.641 146.861 187.224 147.431 185.966C148.654 184.761 149.553 187.144 163.15 187.493C178.159 187.879 161.65 189.562 126.244 170.06C125.3 169.545 124.116 169.265 123.718 168.056L123.708 168.058ZM114.663 195.932C113.562 194.961 99.2066 193.648 89.2508 189.7C82.722 187.116 41.203 172.412 35.3721 176.325C36.3194 177.138 42.7225 177.216 56.3077 181.776C59.4965 182.85 58.3633 183.96 57.3343 183.601C51.005 181.359 33.794 175.505 28.5068 179.652C24.8133 182.552 21.7201 183.414 20.9018 185.61C33.46 188.222 42.9845 195.166 51.234 195.615C69.4914 196.616 66.7105 197.12 67.7711 196.172C50.9573 187.27 65.119 199.645 96.3313 197.095C81.7632 193.545 80.2398 190.65 66.0028 186.45C77.65 186.795 95.6442 200.753 114.663 195.932ZM101.211 199.928C83.5386 200.389 94.3201 200.819 73.4088 203.693C76.3908 201.612 80.0049 201.836 83.3327 200.554C81.353 198.836 78.6469 200.58 63.8326 199.083C48.2978 197.509 43.4296 204.057 28.6224 202.506C27.9456 202.44 27.0885 201.862 26.5348 202.816C45.4766 221.887 75.7461 210.107 101.204 199.941L101.211 199.928ZM39.6168 212.215C43.2916 217.92 56.0357 220.001 63.1189 219.299C81.8806 217.43 88.7698 211.209 97.4727 207.48C110.383 201.949 112.804 201.205 117.316 198.976C108.639 194.943 74.1071 218.625 39.6168 212.215ZM237.425 163.484C223.402 163.654 202.871 205.744 195.206 219.08C199.916 220.379 236.576 164.492 237.425 163.484ZM49.5019 198.113C15.3534 194.288 4.15494 191.262 11.0636 194.699C11.2287 194.781 22.5531 200.56 24.0135 200.708C36.3536 202.003 48.7281 199.381 49.5019 198.113ZM12.7421 190.718C17.0827 191.615 45.3966 195.817 39.7416 193.632C25.8057 188.253 19.0001 184.161 12.7421 190.718ZM293.551 44.0791C282.8 35.3401 291.323 44.9391 295.558 46.1104C295.458 46.3313 296.118 46.1652 293.551 44.0791ZM286.981 40.5157C288.615 41.4344 288.375 41.3815 288.747 40.3185C287.742 38.8287 285.457 39.6622 286.981 40.5157ZM416.792 213.777C413.565 210.424 410.128 207.34 405.778 205.507C409.654 207.995 412.544 211.815 416.792 213.777ZM397.718 184.149C396.481 182.717 395.202 182.678 394.135 182.329C395.065 183.074 395.848 184.176 397.718 184.149ZM313.179 178.3C305.711 150.904 312.446 174.287 308.217 152.748C306.628 171.329 323.146 214.884 313.179 178.3ZM307.083 195.902C306.749 197.564 307.45 198.955 307.656 200.429C308.062 198.069 308.04 197.94 307.083 195.902ZM419.603 241.273C417.326 239.846 416.498 236.683 412.49 236.125C420.127 242.781 418.969 242.113 419.603 241.273ZM285.732 254.636C285.673 256.445 285.987 257.408 286.845 258.192C286.435 257.996 287.371 256.925 285.732 254.636ZM242.542 50.2035C244.906 52.9182 247.81 54.6617 251.149 55.6357C251.654 54.735 252.857 55.6593 242.542 50.2035ZM218.245 62.8924C220.558 64.0112 222.611 65.8557 225.482 65.4213C225.306 65.9091 226.801 65.1716 218.245 62.8924ZM225.824 42.0499C226.57 42.7487 227.477 43.0738 228.544 43.025C227.739 42.3408 226.833 42.0158 225.824 42.0499ZM261.736 59.8783C261.7 59.9803 262.666 60.6237 263.371 60.1883C262.871 59.7162 262.009 59.1187 261.736 59.8783ZM302.308 49.4115C300.447 47.5084 298.064 46.6856 295.526 46.1905C295.828 45.5472 294.344 47.2306 302.308 49.4115ZM202.442 64.9236C201.019 63.7353 200.003 63.6716 198.941 63.7535C199.211 63.1904 197.902 64.5824 202.442 64.9236ZM198.941 63.7535C193.72 61.7376 197.487 64.5322 198.986 63.6492C198.986 63.6492 198.938 63.7438 198.941 63.7535ZM159.072 177.404C160.606 178.049 162.253 176.602 157.854 175.514C155.655 174.975 156.602 175.211 136.839 166.267C138.215 165.714 130.393 165.405 159.072 177.404ZM175.765 161.505C174.732 159.29 152.217 146.873 150.555 146.374C149.924 147.636 173.848 161.142 175.765 161.505ZM126.533 177.143C129.581 179.377 132.785 181.168 136.459 181.79C136.884 180.775 138.311 181.612 126.533 177.143ZM115.673 163.709C118.336 165.194 120.494 167.579 123.718 168.056C124.151 167.153 119.772 165.08 115.673 163.709ZM143.476 142.341C145.688 143.96 147.896 145.559 150.398 146.692C151.075 145.325 145.465 142.871 143.476 142.341ZM194.769 170.506C182.92 163.549 190.255 170.601 194.604 170.877C194.655 170.751 194.708 170.634 194.769 170.506ZM123.95 160.954C126.002 161.891 128.053 162.829 130.106 163.776C128.338 162.2 126.509 160.753 123.95 160.954ZM207.768 156.404C208.552 157.103 209.417 157.628 210.607 157.483C209.811 156.817 208.978 156.212 207.768 156.404ZM110.757 161.183C111.313 161.631 111.715 162.448 112.777 162.242C112.222 161.268 111.514 161.158 110.757 161.183ZM171.782 180.946C171.064 180.468 170.457 180.187 169.087 180.192C170.191 180.852 170.76 181.39 171.782 180.946ZM145.398 185.55C146.075 185.7 146.665 186.324 147.458 185.908C147.339 186.175 146.938 184.379 145.398 185.55ZM134.475 165.563C135.179 166.066 135.618 167.399 136.87 166.146C136.713 166.587 136.361 165.232 134.475 165.563ZM114.565 213.725C112.662 214.07 110.871 214.696 108.577 216.11C111.305 215.763 113.088 215.107 114.565 213.725ZM120.915 210.764C122.984 209.933 124.373 209.223 125.295 207.805C126.297 208.305 123.234 206.952 120.915 210.764ZM94.1442 223.416C94.3425 224.449 96.1577 223.713 96.4332 223.169C95.5198 222.327 94.1074 223.188 94.1442 223.416ZM48.9927 188.558C50.4179 189.427 51.4429 190.262 53.5324 189.632C51.9708 188.891 50.4575 188.533 48.9927 188.558ZM69.4373 204.425C66.6012 205.284 64.3586 205.756 62.0545 207.131C66.3228 206.922 67.0451 206.678 69.4373 204.425Z" fill="url(#paint0_linear_210_3089)"/>
<defs>
<linearGradient id="paint0_linear_210_3089" x1="203.247" y1="11.3014" x2="244.209" y2="338.88" gradientUnits="userSpaceOnUse">
<stop stop-color="#D7A844"/>
<stop offset="0.25" stop-color="#F3D490"/>
<stop offset="0.32" stop-color="#E6C47E"/>
<stop offset="0.46" stop-color="#C79A52"/>
<stop offset="0.6" stop-color="#A46D21"/>
<stop offset="0.84" stop-color="#DDC67C"/>
<stop offset="0.87" stop-color="#E6D48A"/>
<stop offset="1" stop-color="#E9C780"/>
</linearGradient>
</defs>
</svg>
