<svg width="176" height="140" viewBox="0 0 176 140" fill="none" xmlns="http://www.w3.org/2000/svg">
<path d="M62.8921 91.5462C53.8945 96.0202 44.0219 99.5862 33.8687 99.5862C25.8947 99.5862 17.0291 97.7702 11.2674 91.8599C7.58576 88.0957 5.19191 82.6146 3.98672 77.5462C3.04569 73.5675 2.99616 69.4567 3.70606 65.4449C5.37351 56.1666 10.7225 47.6643 16.5669 40.4167C22.4112 33.1691 29.4607 27.3908 36.5762 21.8602C42.8663 16.9734 49.8497 12.8956 57.0973 9.5937C67.0855 5.03712 78.2128 2.04892 89.2576 3.68335C94.1939 4.40976 98.5028 7.03475 102.069 10.4522C105.371 13.622 107.121 17.3366 108.375 21.6951C111.215 31.5677 109.217 42.3648 104.776 51.4945C101.805 57.5864 97.5783 62.9685 93.2198 68.1194C89.7529 72.1972 85.9887 75.9613 81.8119 79.3127C80.1609 80.65 82.5053 82.9613 84.1397 81.6406C88.0689 78.4873 91.6349 74.9873 94.9368 71.1736C99.1137 66.3364 103.241 61.2515 106.345 55.6548C110.885 47.4497 114.055 36.9167 112.932 27.4403C112.354 22.6196 111 17.5017 108.574 13.2588C106.031 8.78474 101.557 5.13618 97.0665 2.75883C92.576 0.381479 87.6397 -0.031255 82.7034 0.00176371C76.8591 0.0347824 71.1468 1.00883 65.5832 2.77534C55.9087 5.84608 46.6634 10.6668 38.3427 16.4616C30.7154 21.7776 23.3192 28.0677 16.9796 34.886C10.2603 42.1171 3.97021 51.3954 1.31221 60.9874C-1.3458 70.5793 0.107021 80.1877 5.0103 88.8387C9.91358 97.4896 18.1518 101.254 27.397 102.475C37.1871 103.763 46.6469 101.799 55.7931 98.282C58.7813 97.1264 61.7035 95.8221 64.5596 94.4023C66.4582 93.4613 64.7907 90.6052 62.8921 91.5462Z" fill="#535353"/>
<path d="M55.9081 70.6946C48.7595 75.0201 41.0332 77.7276 32.9106 79.6097C29.295 80.4517 25.5804 81.1616 21.8493 81.1946C19.2243 81.2111 16.913 80.5838 14.4531 79.7418C12.2738 78.9989 10.1111 78.0413 8.52622 76.3409C6.26444 73.9305 5.80217 70.5296 5.95076 67.3433C6.31396 59.5839 9.99555 52.2537 14.354 46.0131C19.6205 38.4849 26.3563 31.9637 33.4554 26.1689C40.5544 20.3741 47.9176 15.3718 56.0897 11.7727C60.118 10.0062 64.2783 8.53689 68.5047 7.34822C71.9222 6.37416 75.5377 5.36709 79.1203 5.25153C83.2146 5.11945 87.474 5.9119 91.2877 7.43076C93.8961 8.47085 95.5966 9.77509 96.7688 12.3506C101.094 21.8269 95.2169 32.1453 89.9834 39.9047C84.75 47.6641 78.7571 54.5815 71.3113 60.2442C69.6439 61.5154 71.2783 64.3881 72.9788 63.1003C79.9953 57.7843 85.6745 51.5768 90.8419 44.4282C96.6037 36.4707 102.696 26.7962 101.309 16.5274C100.896 13.4072 99.8065 10.1383 97.7428 7.69491C95.6792 5.25153 91.948 4.01332 88.8938 3.18786C84.6509 2.0322 80.1934 1.60296 75.8349 2.29635C71.4764 2.98974 67.6298 4.09587 63.651 5.40011C53.9105 8.60293 45.0449 13.4237 36.7903 19.4826C28.5356 25.5415 21.4365 31.8811 15.229 39.4754C9.7314 46.1947 4.91067 53.9707 3.24322 62.6216C1.92247 69.4399 2.54983 77.0177 9.00499 80.947C15.0474 84.6286 21.9814 84.9753 28.7832 83.8526C38.8539 82.2017 48.8256 78.8833 57.559 73.5838C59.3751 72.4777 57.7241 69.6215 55.8916 70.7277L55.9081 70.6946Z" fill="#535353"/>
<path d="M17.5562 81.6568C17.3581 79.0318 17.3251 76.2417 18.2331 73.7323C19.1411 71.2229 20.3463 68.763 21.5845 66.3857C25.4807 58.8739 30.3015 51.8079 36.3769 45.881C48.1316 34.4235 62.7424 25.492 78.8885 22.1075C82.7187 21.2986 86.9616 20.4896 90.8908 21.117C93.2847 21.4967 96.3719 22.124 98.4356 23.4943C100.202 24.683 101.853 21.8269 100.103 20.6382C98.254 19.4 95.7281 18.8387 93.6149 18.3269C90.0323 17.4519 86.5324 17.5675 82.8838 18.0627C74.6951 19.1689 66.523 21.6288 59.1763 25.4424C42.8651 33.8787 28.8321 46.3433 19.9006 62.4894C18.1506 65.6592 16.5492 68.9116 15.2449 72.2795C14.0893 75.2512 13.9902 78.5035 14.2379 81.6403C14.4029 83.7535 17.7048 83.77 17.5397 81.6403L17.5562 81.6568Z" fill="#535353"/>
<path d="M93.695 35.7608C88.9238 35.3811 83.4097 35.0014 78.7705 36.5037C74.1314 38.0061 70.0866 40.4825 66.5041 43.5697C59.0914 49.9588 54.7989 60.3102 54.6999 70.0838C54.6669 73.6168 55.8555 77.2984 56.8956 80.6167C58.6456 86.2134 60.9569 91.711 64.0607 96.6969C69.1951 104.935 76.5913 112.018 84.037 118.126C93.4309 125.852 104.129 132.572 115.966 135.791C126.202 138.581 137.659 140.975 148.176 138.383C157.157 136.171 166.567 130.359 171.025 122.121C175.482 113.883 176.704 103.631 173.303 94.5672C168.879 82.8125 159.683 72.9234 150.553 64.5531C141.424 56.1829 130.709 49.414 119.45 43.8174C116.66 42.4306 113.836 41.1263 110.947 39.9377C108.983 39.1122 108.141 42.315 110.072 43.124C131.501 52.072 152.056 66.3692 165.081 85.9327C168.268 90.7205 170.942 96.053 171.817 101.798C172.461 106.008 171.867 110.152 170.645 114.197C169.275 118.737 167.244 122.848 163.794 126.183C160.343 129.517 156.232 131.895 151.957 133.678C143.636 137.145 134.539 136.435 125.872 134.734C119.862 133.562 113.869 132.06 108.24 129.6C102.957 127.289 97.9379 124.334 93.1997 121.032C85.0606 115.352 77.5158 108.551 71.1597 100.907C64.8036 93.2629 60.8084 84.1332 58.6291 74.6073C57.0112 67.5578 59.0914 59.6829 62.5584 53.4588C66.6692 46.0626 75.0064 39.7561 83.6243 39.0296C86.9757 38.749 90.3271 38.8315 93.662 39.0957C95.7752 39.2608 95.7752 35.9589 93.662 35.7938L93.695 35.7608Z" fill="#535353"/>
<path d="M109.563 44.7421C127.03 50.9991 142.499 63.1005 155.013 76.5721C160.957 82.9778 166.438 90.506 168.667 99.0909C169.789 103.4 169.558 109.195 165.348 111.688C158.827 115.518 152.157 117.4 144.563 115.996C139.99 115.155 135.516 113.553 131.141 112.018C126.997 110.565 122.919 108.93 118.973 107.032C110.785 103.07 103.273 97.9187 96.4876 91.8763C89.3061 85.4872 82.6363 78.2726 77.7825 69.9188C75.917 66.716 74.3321 63.3481 73.2259 59.8151C72.1198 56.2821 71.1623 52.6831 72.4995 49.2326C73.7707 45.9472 76.7094 43.5204 79.8297 42.051C83.7259 40.2185 88.5466 40.7798 92.6905 41.143C94.8037 41.3246 94.7872 38.0228 92.6905 37.8411C88.6127 37.4945 83.8249 36.9992 79.8792 38.4685C76.8745 39.5911 74.0184 41.4567 71.9547 43.9001C66.9028 49.8765 68.5703 57.3552 71.2448 64.0085C74.5632 72.2797 79.8627 79.6098 85.8886 86.131C93.1527 93.9895 101.523 101.006 110.768 106.405C118.99 111.209 127.921 114.61 136.985 117.416C146.049 120.223 154.32 120.85 162.773 116.822C165.777 115.386 169.129 113.834 170.829 110.813C172.398 108.039 172.678 104.638 172.381 101.518C171.737 94.6499 168.023 87.881 164.093 82.3834C157.77 73.5179 149.417 65.7255 140.898 58.9896C131.785 51.7916 121.4 45.485 110.438 41.5558C108.44 40.8459 107.565 44.0322 109.563 44.7421Z" fill="#535353"/>
<path d="M101.405 61.6309C120.556 69.2583 137.808 81.4752 148.639 99.3218C151.66 104.291 155.028 110.812 154.367 116.822C154.136 118.935 157.438 118.918 157.669 116.822C158.264 111.324 155.705 105.562 153.245 100.791C150.785 96.0199 147.367 91.4138 143.834 87.1709C137.33 79.3455 129.653 72.8078 120.886 67.6238C114.959 64.1073 108.669 60.9871 102.264 58.4446C100.283 57.6522 99.4242 60.855 101.389 61.6309H101.405Z" fill="#535353"/>
<path d="M72.266 59.3857C73.2401 59.1711 74.2472 59.0225 75.2377 58.8904L74.792 58.9565C75.7165 58.8244 76.6575 58.7254 77.5821 58.6428C78.0278 58.6098 78.424 58.4777 78.7542 58.164C79.0349 57.8834 79.2495 57.4046 79.233 56.9919C79.2 56.1664 78.5066 55.2584 77.5821 55.3409C75.5184 55.5225 73.4052 55.7537 71.3745 56.1994C70.5326 56.381 69.9547 57.4046 70.2189 58.2301C70.4995 59.1216 71.3415 59.5838 72.2495 59.3857H72.266Z" fill="#535353"/>
</svg>
