<svg width="1027" height="610" viewBox="0 0 1027 610" fill="none" xmlns="http://www.w3.org/2000/svg">
<path d="M990.117 235.555C978.669 134.937 839.272 147.5 839.272 147.5C840.88 115.631 811.777 64.4939 694.103 64.4939C593.074 64.4939 536.075 46.0503 516.775 0C497.482 46.0503 440.476 64.4939 339.454 64.4939C221.781 64.4939 192.684 115.631 194.286 147.5C194.286 147.5 54.8957 134.937 43.4479 235.555C38.761 276.736 36.061 296.017 0 305C36.061 313.983 38.761 333.264 43.4479 374.444C54.8957 475.069 194.286 462.5 194.286 462.5C192.684 494.369 221.781 545.506 339.461 545.506C440.483 545.506 497.482 563.95 516.775 610C536.075 563.95 593.074 545.506 694.103 545.506C811.777 545.506 840.88 494.369 839.272 462.5C839.272 462.5 978.661 475.069 990.117 374.444C994.818 333.066 992.365 313.896 1027 305.006C992.358 296.098 994.818 276.928 990.117 235.555Z" fill="#FFF4F4"/>
</svg>
