<svg width="1082" height="650" viewBox="0 0 1082 650" fill="none" xmlns="http://www.w3.org/2000/svg">
<path d="M536.172 629.675C519.127 589.037 467.531 570.911 368.884 570.911C296.49 570.911 259.492 551.545 241.205 535.293C226.592 522.31 217.731 505.862 216.093 489.137C214.404 489.174 212.528 489.199 210.485 489.199C193 489.199 159.156 487.282 128.891 474.434C91.6328 458.619 70.59 431.738 66.354 394.522C61.5335 352.17 58.8418 339.636 29.7457 332.398L0 325L29.7457 317.602C58.8418 310.364 61.5263 297.83 66.354 255.478C70.5972 218.262 91.64 191.381 128.905 175.566C159.17 162.724 193.015 160.807 210.5 160.807C212.535 160.807 214.411 160.832 216.093 160.869C217.731 144.144 226.6 127.69 241.205 114.707C259.492 98.4616 296.49 79.0888 368.876 79.0888C467.531 79.0888 519.127 60.9632 536.172 20.3313L544.702 0L553.232 20.3313C570.284 60.9694 621.88 79.0949 720.535 79.0949C792.929 79.0949 829.92 98.4677 848.213 114.713C862.826 127.696 871.688 144.144 873.326 160.869C875.007 160.832 876.883 160.807 878.918 160.807C896.404 160.807 930.255 162.724 960.521 175.566C997.786 191.381 1018.83 218.262 1023.06 255.478C1023.61 260.215 1024.05 264.657 1024.46 268.829C1027.83 302.518 1029.69 311.581 1053.24 317.627L1082 325.012L1053.24 332.392C1029.7 338.431 1027.83 347.494 1024.46 381.189C1024.05 385.355 1023.61 389.797 1023.06 394.522C1018.83 431.738 997.786 458.619 960.521 474.434C930.263 487.276 896.418 489.193 878.933 489.193C876.891 489.193 875.014 489.168 873.326 489.131C871.688 505.85 862.826 522.304 848.213 535.287C829.927 551.538 792.929 570.905 720.535 570.905C621.88 570.905 570.284 589.031 553.232 629.669L544.702 650L536.172 629.669V629.675Z" fill="url(#paint0_linear_291_12)"/>
<defs>
<linearGradient id="paint0_linear_291_12" x1="0" y1="325.006" x2="1082" y2="325.006" gradientUnits="userSpaceOnUse">
<stop stop-color="#FBD6AA"/>
<stop offset="0.05" stop-color="#F1B590"/>
<stop offset="0.12" stop-color="#E79576"/>
<stop offset="0.18" stop-color="#E07D63"/>
<stop offset="0.24" stop-color="#DC6E57"/>
<stop offset="0.29" stop-color="#DB6A54"/>
<stop offset="0.33" stop-color="#DD725B"/>
<stop offset="0.39" stop-color="#E28A71"/>
<stop offset="0.46" stop-color="#ECB294"/>
<stop offset="0.55" stop-color="#F9E8C4"/>
<stop offset="0.58" stop-color="#FDF8D3"/>
<stop offset="0.75" stop-color="#F9B795"/>
<stop offset="0.8" stop-color="#F9A585"/>
<stop offset="1" stop-color="#FDF4DE"/>
</linearGradient>
</defs>
</svg>
