<svg width="299" height="141" viewBox="0 0 299 141" fill="none" xmlns="http://www.w3.org/2000/svg">
<path d="M295.595 13.7459C285.07 72.6306 238.04 119.245 178.74 128.358C174.142 129.05 169.544 129.521 164.919 129.743C170.735 122.818 180.983 109.717 174.003 101.824C166.553 93.4037 155.225 106.2 153.092 113.567C150.627 110.05 146.971 106.56 142.816 105.674C138.384 104.704 135.255 108.388 135.421 112.598C135.67 119.633 142.096 126.059 149.242 129.743C141.819 129.3 134.451 128.302 127.195 126.696C128.718 110.576 117.39 98.7493 106.56 88.3074C106.532 88.252 106.477 88.2243 106.422 88.1689C106.255 88.0027 106.062 87.8365 105.895 87.6703C105.314 87.1164 104.372 87.5318 104.344 88.3074C104.095 93.1267 104.261 98.0292 105.037 102.765C100.19 98.7493 95.038 95.3702 89.4154 92.5451C88.6399 92.1573 87.9198 92.7943 88.0582 93.5976C89.2769 101.824 92.4344 109.967 97.5862 116.559C95.5642 115.589 93.57 114.592 91.5758 113.512C84.7068 109.801 78.1703 105.535 72.0214 100.771C73.4063 93.4037 73.6002 85.7315 70.6089 78.7241C67.0636 70.4425 60.2777 63.8782 54.0458 57.6186C53.5749 57.1477 52.7994 57.5078 52.7717 58.1449C52.1624 68.4483 52.9102 78.8625 57.231 87.6426C47.5646 77.6992 40.7233 66.2048 32.4972 55.2089C32.608 55.1812 32.7188 55.0981 32.7742 54.9874C41.1388 41.6095 44.601 25.6835 40.6402 10.2006C40.5017 9.64664 39.7816 9.45277 39.3938 9.86823C35.4608 13.9951 32.4972 18.6483 30.5307 23.6892C27.1239 15.2692 22.2491 7.45855 16.6543 0.340305C16.1557 -0.296737 15.1586 0.146411 14.9647 0.783453C11.8626 10.616 11.8072 21.1411 15.6571 30.6967C11.1425 28.0654 6.24002 25.905 1.55915 23.8554C0.949809 23.5784 -0.102694 23.8554 0.00809618 24.7417C2.1408 40.9724 15.0201 54.0179 31.5832 55.015C31.5832 55.0704 31.5832 55.0981 31.5832 55.1535C34.2975 63.352 38.9784 71.218 44.6564 78.4748C39.1169 75.6496 32.9403 74.2648 26.653 74.2094C25.8498 74.2094 25.5174 75.0403 25.7944 75.6773C29.035 82.9617 33.7713 89.3322 40.0032 94.29C34.4637 94.3731 28.8688 94.844 23.4678 95.2317C22.7477 95.2871 22.3599 96.118 22.8862 96.672C23.3016 97.1151 23.7448 97.5029 24.188 97.9184C24.2434 98.1954 24.4372 98.4169 24.7696 98.4723C38.1475 110.77 57.8403 114.121 74.8466 107.862C75.1235 107.751 75.262 107.557 75.3174 107.335C89.36 117.417 105.203 124.979 121.904 129.355C105.009 127.721 88.0305 126.668 71.8275 132.762C71.0797 133.039 70.6919 134.23 71.5783 134.645C85.8978 141.293 114.786 146.444 124.979 130.13C128.773 131.045 132.596 131.792 136.473 132.346C184.251 139.409 233.636 121.738 265.35 85.2052C282.66 65.2631 294.321 40.6955 298.974 14.6876C299.362 12.4995 296.038 11.5855 295.623 13.7736L295.595 13.7459ZM16.3496 3.24854C21.5013 10.1175 25.5728 17.3465 29.3674 25.0741C29.4782 25.2957 29.6444 25.4065 29.8659 25.4342C28.5365 29.4226 27.8163 33.6049 27.7886 37.9257C24.0772 26.5698 20.1718 15.2969 16.6266 3.88557C16.5712 3.69169 16.3496 3.66399 16.2388 3.77478C16.2942 3.6086 16.3219 3.41473 16.3496 3.24854ZM16.1557 4.13486C18.7316 16.3217 22.166 28.5363 26.9854 40.0307C24.4649 36.8732 21.3074 34.2143 17.7622 31.9431C17.7622 31.9154 17.7622 31.86 17.7622 31.8323C14.6323 22.526 13.8291 13.4966 16.1557 4.13486ZM30.3645 50.5835C21.9722 41.5541 12.3335 33.5495 2.39008 26.2928C14.3 30.6967 27.484 37.4826 30.3645 50.5835ZM2.75014 27.7054C12.5827 35.5714 21.6675 44.1023 30.7522 52.8546C30.7522 53.0208 30.8076 53.187 30.8353 53.3809C16.765 50.6112 6.35081 41.471 2.75014 27.7054ZM30.5861 45.9857C30.226 45.1271 29.8105 44.2684 29.3674 43.4652C29.4228 43.3544 29.4782 43.2436 29.4505 43.0774C28.9242 37.1502 29.3674 31.306 31.2785 25.6281C32.2756 22.6921 35.7655 13.6905 38.1198 13.3027C35.1007 23.9939 32.4695 34.9898 30.5861 45.9857ZM31.8048 49.6971C31.8048 49.6971 31.8878 49.5586 31.8878 49.4756C34.1867 37.5103 36.4302 25.6281 39.0615 13.7459C39.5877 14.4106 39.9755 15.8509 40.1971 18.399C41.1665 30.5582 38.3136 42.6343 32.4418 53.2978C32.3033 52.0514 32.0817 50.8604 31.8048 49.7248V49.6971ZM58.1173 64.4322C61.9673 68.7807 65.7064 73.24 68.1161 78.5579C70.6089 84.0973 70.9966 89.8307 70.6643 95.8411C70.5535 97.7522 70.3873 98.8601 70.1934 99.3586C69.8056 99.054 69.3902 98.7216 69.0024 98.3892C68.2546 96.5058 67.4237 93.0713 66.7866 91.4095C63.0198 81.8539 59.5576 72.2152 56.3447 62.4657C56.8432 62.9642 57.3972 63.6012 58.1173 64.4045V64.4322ZM54.1843 66.4264C54.1012 63.6289 54.0458 61.9948 54.4059 61.4685C58.422 73.6277 62.909 85.593 67.8391 97.4198C65.651 95.5918 63.4906 93.7084 61.4133 91.7695C56.4832 84.4297 54.4336 75.982 54.1843 66.4541V66.4264ZM28.1764 76.2036C35.4608 76.5083 41.8312 78.7794 48.0078 82.6017C53.6857 89.1937 60.0838 95.2317 66.4819 100.494C65.1802 99.6356 63.823 98.9155 62.4381 98.2507C62.5766 97.8907 62.5212 97.4475 62.1057 97.1982C51.0268 89.9138 39.6708 82.9341 28.2041 76.259C28.2041 76.259 28.2041 76.2313 28.2041 76.2036H28.1764ZM29.1458 78.087C38.646 84.125 48.1185 90.2185 57.5634 96.3396C52.6332 94.8439 47.343 94.3177 41.9974 94.2623C41.9974 94.1238 41.9143 93.9853 41.8035 93.8469C36.5964 89.3045 32.331 84.0974 29.1458 78.087ZM41.7481 95.5918C48.3401 95.5918 54.7936 96.3396 60.8317 99.0263C61.5518 99.3309 69.4733 103.458 69.0024 104.233C68.3377 105.314 60.3054 103.43 59.0867 103.236C48.0908 101.519 37.1227 97.1982 25.9883 96.949C26.6253 95.758 39.6985 95.5641 41.7481 95.5641V95.5918ZM41.7204 106.089C40.3079 105.591 29.949 101.491 26.8469 98.5C35.0454 98.8878 42.9945 101.741 51.0268 103.347C57.2033 104.593 63.4352 105.452 69.7225 106.117C69.8056 106.892 70.5535 107.446 71.329 107.086C71.6614 106.948 71.8275 106.671 71.966 106.394C72.2153 106.588 72.4369 106.754 72.6862 106.837C62.4935 109.69 51.7469 109.634 41.6927 106.061L41.7204 106.089ZM73.711 106.588C73.711 106.366 73.6279 106.089 73.3509 106.145C72.797 106.228 72.3815 105.674 71.9383 105.231C71.9106 105.147 71.8829 105.064 71.8275 105.009C71.3567 104.51 70.8304 104.067 70.3596 103.596C70.9135 104.012 71.4398 104.455 71.9937 104.87C72.7139 105.424 73.4617 105.951 74.1818 106.477C74.0433 106.532 73.8772 106.56 73.7387 106.588H73.711ZM105.286 104.15C106.311 109.413 108.167 114.398 111.103 118.719C104.621 110.964 98.1124 103.236 91.3542 95.7303C95.7858 98.1954 99.9958 100.993 103.957 104.233C104.4 104.593 104.954 104.455 105.286 104.15ZM90.4402 96.1734C97.3092 105.064 104.566 113.706 111.767 122.348C108.083 121.073 104.455 119.633 100.882 118.027C95.7858 111.407 92.1574 104.372 90.4402 96.1734ZM96.9768 129.549C103.486 129.327 112.293 128.607 118.581 130.518C118.747 130.574 118.858 130.601 118.969 130.657C116.504 131.321 113.983 131.792 111.435 132.014C107.446 132.485 103.403 132.54 99.4142 132.706C91.2988 133.066 83.1835 133.399 75.0681 133.648C82.131 131.044 89.3877 129.798 96.9768 129.549ZM78.5026 135.061C92.9884 134.673 108.582 135.587 122.265 131.128C111.601 141.32 92.4067 139.631 78.5026 135.061ZM118.027 124.342C111.047 117.999 107.28 109.164 106.283 99.6079C106.2 98.6939 105.341 92.1296 105.978 91.1879C110.272 102.904 115.285 117.002 124.037 125.948C122.015 125.45 120.021 124.923 118.027 124.342ZM125.201 124.951C124.12 125.034 121.101 119.439 120.575 118.525C115.645 110.216 111.629 101.381 108.139 92.3512C108.194 92.4066 108.25 92.4343 108.277 92.4897C112.293 95.204 116.365 100.937 118.969 104.787C122.015 109.302 124.203 114.232 125.117 119.633C125.145 119.855 126.364 124.868 125.201 124.951ZM160.072 129.937C159.407 129.937 158.742 129.964 158.105 129.992C152.787 127.832 147.94 125.45 143.869 121.018C141.653 118.608 133.787 107.751 143.73 108.526C147.414 108.803 151.181 112.93 153.092 115.672C153.424 116.143 154.061 115.922 154.144 115.479C154.394 115.395 154.587 115.202 154.698 114.897C156.028 111.407 157.883 108.25 160.792 105.84L163.229 104.15C165.362 102.295 167.356 102.544 169.267 104.87C172.923 107.003 173.034 107.031 172.092 110.659C170.347 117.528 165.002 123.4 160.542 128.663C160.21 129.05 160.072 129.493 160.044 129.909L160.072 129.937Z" fill="#B08A22"/>
</svg>
