<svg width="299" height="141" viewBox="0 0 299 141" fill="none" xmlns="http://www.w3.org/2000/svg">
<path d="M3.41369 127.254C13.9387 68.3693 60.969 21.7545 120.269 12.6421C124.867 11.9496 129.465 11.4788 134.09 11.2572C128.274 18.1816 118.026 31.2824 125.005 39.1762C132.456 47.5962 143.784 34.8 145.917 27.4325C148.382 30.9501 152.038 34.44 156.193 35.3263C160.624 36.2957 163.754 32.6119 163.588 28.4019C163.339 21.3668 156.913 14.941 149.767 11.2572C157.19 11.7004 164.557 12.6975 171.814 14.3039C170.291 30.4238 181.619 42.2506 192.449 52.6926C192.476 52.748 192.532 52.7757 192.587 52.831C192.753 52.9972 192.947 53.1634 193.113 53.3296C193.695 53.8835 194.637 53.4681 194.664 52.6926C194.914 47.8732 194.748 42.9708 193.972 38.2345C198.819 42.2506 203.971 45.6297 209.593 48.4548C210.369 48.8426 211.089 48.2056 210.951 47.4024C209.732 39.1762 206.574 31.0332 201.423 24.4412C203.445 25.4106 205.439 26.4077 207.433 27.4879C214.302 31.1994 220.839 35.4648 226.987 40.2287C225.603 47.5962 225.409 55.2684 228.4 62.2759C231.945 70.5574 238.731 77.1217 244.963 83.3813C245.434 83.8522 246.209 83.4921 246.237 82.8551C246.846 72.5516 246.099 62.1374 241.778 53.3573C251.444 63.3007 258.285 74.7951 266.512 85.791C266.401 85.8187 266.29 85.9018 266.235 86.0126C257.87 99.3904 254.408 115.316 258.369 130.799C258.507 131.353 259.227 131.547 259.615 131.132C263.548 127.005 266.512 122.352 268.478 117.311C271.885 125.731 276.76 133.541 282.355 140.66C282.853 141.297 283.85 140.854 284.044 140.216C287.146 130.384 287.202 119.859 283.352 110.303C287.866 112.934 292.769 115.095 297.45 117.145C298.059 117.421 299.111 117.145 299.001 116.258C296.868 100.027 283.989 86.982 267.426 85.9849C267.426 85.9295 267.426 85.9018 267.426 85.8464C264.711 77.6479 260.03 69.7819 254.352 62.5252C259.892 65.3503 266.068 66.7352 272.356 66.7906C273.159 66.7906 273.491 65.9596 273.214 65.3226C269.974 58.0105 265.238 51.6678 259.006 46.7099C264.545 46.6268 270.14 46.156 275.541 45.7682C276.261 45.7128 276.649 44.8819 276.123 44.3279C275.707 43.8848 275.264 43.497 274.821 43.0816C274.765 42.8046 274.572 42.583 274.239 42.5276C260.861 30.2299 241.168 26.8786 224.162 33.1382C223.885 33.249 223.747 33.4428 223.691 33.6644C209.649 23.5826 193.806 16.0212 177.104 11.645C194 13.2791 210.978 14.3316 227.181 8.23818C227.929 7.9612 228.317 6.77021 227.431 6.35475C213.111 -0.292635 184.223 -5.44436 174.03 10.8694C170.235 9.95542 166.413 9.20759 162.535 8.65364C114.813 1.61849 65.4005 19.2618 33.687 55.8224C16.3761 75.7645 4.71547 100.332 0.0899948 126.34C-0.297769 128.528 3.02592 129.442 3.44138 127.254H3.41369ZM282.687 137.751C277.535 130.882 273.464 123.653 269.669 115.926C269.558 115.704 269.392 115.593 269.171 115.566C270.5 111.577 271.22 107.395 271.248 103.074C274.959 114.43 278.865 125.703 282.41 137.114C282.465 137.308 282.687 137.336 282.798 137.225C282.742 137.391 282.715 137.585 282.687 137.751ZM282.881 136.893C280.305 124.706 276.87 112.491 272.051 100.997C274.572 104.154 277.729 106.813 281.274 109.085C281.274 109.112 281.274 109.168 281.274 109.195C284.404 118.502 285.207 127.531 282.881 136.893ZM268.644 90.4165C277.037 99.4458 286.675 107.45 296.619 114.707C284.709 110.303 271.525 103.517 268.644 90.4165ZM296.286 113.295C286.454 105.428 277.369 96.8977 268.284 88.1453C268.284 87.9791 268.229 87.8129 268.201 87.619C282.271 90.3888 292.686 99.5289 296.286 113.295ZM268.423 95.0143C268.783 95.8729 269.198 96.7315 269.641 97.5347C269.586 97.6455 269.531 97.7563 269.558 97.9225C270.085 103.85 269.641 109.694 267.73 115.372C266.733 118.308 263.243 127.309 260.889 127.697C263.908 117.006 266.539 106.01 268.423 95.0143ZM267.232 91.3028C267.232 91.3028 267.149 91.4413 267.149 91.5244C264.85 103.49 262.606 115.372 259.975 127.254C259.449 126.589 259.061 125.149 258.839 122.601C257.87 110.442 260.723 98.3656 266.595 87.7021C266.733 88.9485 266.955 90.1395 267.232 91.2751V91.3028ZM240.891 76.5954C237.042 72.2469 233.302 67.7877 230.893 62.4698C228.4 56.9303 228.012 51.1969 228.345 45.1866C228.455 43.2754 228.622 42.1675 228.815 41.669C229.203 41.9737 229.619 42.306 230.006 42.6384C230.754 44.5218 231.585 47.9563 232.222 49.6181C235.989 59.1738 239.451 68.8125 242.664 78.562C242.166 78.0634 241.612 77.4264 240.891 76.6231V76.5954ZM244.852 74.5735C244.935 77.371 244.991 79.0051 244.631 79.5314C240.615 67.3722 236.128 55.4069 231.197 43.5801C233.385 45.4081 235.546 47.2916 237.623 49.2304C242.553 56.5702 244.603 65.0179 244.852 74.5458V74.5735ZM270.832 64.7963C263.548 64.4917 257.178 62.2205 251.001 58.3982C245.323 51.8062 238.925 45.7682 232.527 40.5057C233.829 41.3643 235.186 42.0844 236.571 42.7492C236.432 43.1092 236.488 43.5524 236.903 43.8017C247.982 51.0861 259.338 58.0659 270.805 64.7409C270.805 64.7409 270.805 64.7686 270.805 64.7963H270.832ZM269.891 62.9129C260.39 56.8749 250.918 50.7814 241.473 44.6603C246.403 46.156 251.693 46.6822 257.039 46.7376C257.039 46.8761 257.122 47.0146 257.233 47.1531C262.44 51.6955 266.705 56.9026 269.891 62.9129ZM257.261 45.4081C250.669 45.4081 244.215 44.6603 238.177 41.9737C237.457 41.669 229.536 37.5421 230.006 36.7665C230.671 35.6863 238.703 37.5698 239.922 37.7636C250.918 39.4809 261.886 43.8017 273.021 44.051C272.383 45.242 259.31 45.4358 257.261 45.4358V45.4081ZM257.316 34.9108C258.729 35.4094 269.087 39.5086 272.19 42.4999C263.991 42.1121 256.042 39.2593 248.01 37.6529C241.833 36.4065 235.601 35.5478 229.314 34.8831C229.231 34.1076 228.483 33.5536 227.707 33.9137C227.375 34.0522 227.209 34.3292 227.07 34.6061C226.821 34.4123 226.6 34.2461 226.35 34.163C236.543 31.3101 247.29 31.3655 257.344 34.9385L257.316 34.9108ZM225.326 34.4123C225.326 34.6338 225.409 34.9108 225.686 34.8554C226.24 34.7723 226.655 35.3263 227.098 35.7694C227.126 35.8525 227.154 35.9356 227.209 35.991C227.68 36.4896 228.206 36.9327 228.677 37.4036C228.123 36.9881 227.597 36.545 227.043 36.1295C226.323 35.5755 225.575 35.0493 224.855 34.523C224.993 34.4676 225.159 34.44 225.298 34.4123H225.326ZM193.723 36.8773C192.698 31.6148 190.842 26.6293 187.906 22.3085C194.387 30.0638 200.896 37.7913 207.655 45.2973C203.223 42.8323 199.013 40.0348 195.052 36.7942C194.609 36.4342 194.055 36.5727 193.723 36.8773ZM208.596 44.8265C201.727 35.9356 194.471 27.294 187.269 18.6524C190.953 19.9265 194.581 21.3668 198.154 22.9455C203.251 29.5652 206.879 36.6003 208.596 44.7988V44.8265ZM202.06 11.4511C195.551 11.6727 186.743 12.3928 180.456 10.4817C180.289 10.4263 180.179 10.3709 180.068 10.3432C182.533 9.67844 185.053 9.23528 187.602 8.98601C191.59 8.51515 195.634 8.45975 199.622 8.29357C207.738 7.9335 215.853 7.60113 223.968 7.35186C216.906 9.95542 209.649 11.2018 202.06 11.4511ZM220.534 5.93929C206.048 6.32705 190.454 5.41304 176.772 9.87232C187.435 -0.320333 206.63 1.36921 220.534 5.93929ZM180.982 16.6582C187.962 23.0009 191.729 31.8364 192.726 41.392C192.809 42.306 193.667 48.8703 193.03 49.812C188.737 38.096 183.724 23.998 174.972 15.0517C176.993 15.5503 178.988 16.0765 180.982 16.6582ZM173.808 16.0489C174.889 15.9658 177.908 21.5606 178.434 22.4747C183.364 30.7839 187.38 39.6194 190.87 48.6487C190.815 48.5933 190.759 48.5656 190.731 48.5102C186.715 45.7959 182.644 40.0625 180.04 36.2126C176.993 31.6979 174.805 26.7678 173.891 21.3668C173.864 21.1452 172.645 16.1319 173.808 16.0489ZM138.937 11.0633C139.602 11.0633 140.267 11.0356 140.904 11.0079C146.222 13.1683 151.069 15.5503 155.14 19.9819C157.356 22.3916 165.222 33.249 155.279 32.4734C151.595 32.1965 147.828 28.0695 145.917 25.3275C145.585 24.8566 144.948 25.0782 144.864 25.5214C144.615 25.6045 144.421 25.7984 144.311 26.103C142.981 29.5929 141.125 32.7504 138.217 35.1601L135.78 36.8496C133.647 38.7054 131.653 38.4561 129.742 36.1295C126.086 33.9968 125.975 33.9691 126.917 30.3407C128.661 23.4718 134.007 17.5999 138.466 12.3374C138.799 11.9496 138.937 11.5065 138.965 11.091L138.937 11.0633Z" fill="#B08A22"/>
</svg>
