<svg width="103" height="80" viewBox="0 0 103 80" fill="none" xmlns="http://www.w3.org/2000/svg">
<path d="M49.5928 79.9954H43.1936C42.9834 79.9955 42.7754 79.9542 42.5812 79.8739C42.387 79.7935 42.2106 79.6757 42.0621 79.5271C41.9135 79.3785 41.7956 79.2021 41.7153 79.0079C41.6349 78.8138 41.5936 78.6057 41.5938 78.3956V46.3993C41.594 45.9751 41.7626 45.5683 42.0625 45.2682L45.2605 42.0686C45.5663 41.7796 45.971 41.6187 46.3916 41.6187C46.8123 41.6187 47.217 41.7796 47.5228 42.0686L50.724 45.2682C50.8726 45.4167 50.9905 45.593 51.0709 45.7871C51.1513 45.9812 51.1927 46.1892 51.1926 46.3993V78.3956C51.1928 78.6057 51.1515 78.8138 51.0711 79.0079C50.9907 79.2021 50.8729 79.3785 50.7243 79.5271C50.5757 79.6757 50.3993 79.7935 50.2052 79.8739C50.011 79.9542 49.8029 79.9955 49.5928 79.9954ZM44.7934 76.7958H47.993V47.0617L46.3916 45.4619L44.7934 47.0617V76.7958Z" fill="#474747"/>
<path d="M49.5928 62.3974H43.1936C42.7693 62.3974 42.3623 62.2288 42.0623 61.9288C41.7623 61.6288 41.5938 61.2219 41.5938 60.7976C41.5938 60.3733 41.7623 59.9664 42.0623 59.6663C42.3623 59.3663 42.7693 59.1978 43.1936 59.1978H49.5928C50.0171 59.1978 50.424 59.3663 50.7241 59.6663C51.0241 59.9664 51.1926 60.3733 51.1926 60.7976C51.1926 61.2219 51.0241 61.6288 50.7241 61.9288C50.424 62.2288 50.0171 62.3974 49.5928 62.3974Z" fill="#474747"/>
<path d="M49.5928 67.1969H43.1936C42.7693 67.1969 42.3623 67.0284 42.0623 66.7284C41.7623 66.4283 41.5938 66.0214 41.5938 65.5971C41.5938 65.1728 41.7623 64.7659 42.0623 64.4659C42.3623 64.1659 42.7693 63.9973 43.1936 63.9973H49.5928C50.0171 63.9973 50.424 64.1659 50.7241 64.4659C51.0241 64.7659 51.1926 65.1728 51.1926 65.5971C51.1926 66.0214 51.0241 66.4283 50.7241 66.7284C50.424 67.0284 50.0171 67.1969 49.5928 67.1969Z" fill="#474747"/>
<path d="M60.794 79.9954H54.3947C54.1846 79.9955 53.9765 79.9542 53.7824 79.8739C53.5882 79.7935 53.4118 79.6757 53.2632 79.5271C53.1146 79.3785 52.9968 79.2021 52.9165 79.0079C52.8361 78.8138 52.7948 78.6057 52.7949 78.3956V46.3993C52.7952 45.9751 52.9638 45.5683 53.2637 45.2682L56.4617 42.0686C56.7674 41.7796 57.1721 41.6187 57.5928 41.6187C58.0135 41.6187 58.4182 41.7796 58.7239 42.0686L61.9252 45.2682C62.0738 45.4167 62.1916 45.593 62.272 45.7871C62.3525 45.9812 62.3938 46.1892 62.3938 46.3993V78.3956C62.3939 78.6057 62.3526 78.8138 62.2723 79.0079C62.1919 79.2021 62.0741 79.3785 61.9255 79.5271C61.7769 79.6757 61.6005 79.7935 61.4064 79.8739C61.2122 79.9542 61.0041 79.9955 60.794 79.9954ZM55.9946 76.7958H59.1942V47.0617L57.5928 45.4619L55.9946 47.0617V76.7958Z" fill="#474747"/>
<path d="M60.794 62.3974H54.3947C53.9704 62.3974 53.5635 62.2288 53.2635 61.9288C52.9635 61.6288 52.7949 61.2219 52.7949 60.7976C52.7949 60.3733 52.9635 59.9664 53.2635 59.6663C53.5635 59.3663 53.9704 59.1978 54.3947 59.1978H60.794C61.2183 59.1978 61.6252 59.3663 61.9252 59.6663C62.2253 59.9664 62.3938 60.3733 62.3938 60.7976C62.3938 61.2219 62.2253 61.6288 61.9252 61.9288C61.6252 62.2288 61.2183 62.3974 60.794 62.3974Z" fill="#474747"/>
<path d="M60.794 67.1969H54.3947C53.9704 67.1969 53.5635 67.0284 53.2635 66.7284C52.9635 66.4283 52.7949 66.0214 52.7949 65.5971C52.7949 65.1728 52.9635 64.7659 53.2635 64.4659C53.5635 64.1659 53.9704 63.9973 54.3947 63.9973H60.794C61.2183 63.9973 61.6252 64.1659 61.9252 64.4659C62.2253 64.7659 62.3938 65.1728 62.3938 65.5971C62.3938 66.0214 62.2253 66.4283 61.9252 66.7284C61.6252 67.0284 61.2183 67.1969 60.794 67.1969Z" fill="#474747"/>
<path d="M65.592 79.9952C65.3819 79.9953 65.1738 79.954 64.9796 79.8737C64.7855 79.7933 64.6091 79.6755 64.4605 79.5269C64.3119 79.3783 64.1941 79.2019 64.1137 79.0078C64.0334 78.8136 63.9921 78.6055 63.9922 78.3954V46.3991C63.9922 45.9748 64.1607 45.5679 64.4608 45.2679C64.7608 44.9679 65.1677 44.7993 65.592 44.7993C66.0163 44.7993 66.4232 44.9679 66.7232 45.2679C67.0233 45.5679 67.1918 45.9748 67.1918 46.3991V78.3954C67.1919 78.6055 67.1506 78.8136 67.0703 79.0078C66.9899 79.2019 66.8721 79.3783 66.7235 79.5269C66.5749 79.6755 66.3985 79.7933 66.2044 79.8737C66.0102 79.954 65.8021 79.9953 65.592 79.9952Z" fill="#474747"/>
<path d="M38.3947 79.9952C38.1846 79.9953 37.9765 79.954 37.7824 79.8737C37.5882 79.7933 37.4118 79.6755 37.2632 79.5269C37.1146 79.3783 36.9968 79.2019 36.9165 79.0078C36.8361 78.8136 36.7948 78.6055 36.7949 78.3954V46.3991C36.7949 45.9748 36.9635 45.5679 37.2635 45.2679C37.5635 44.9679 37.9704 44.7993 38.3947 44.7993C38.819 44.7993 39.226 44.9679 39.526 45.2679C39.826 45.5679 39.9946 45.9748 39.9946 46.3991V78.3954C39.9947 78.6055 39.9534 78.8136 39.873 79.0078C39.7927 79.2019 39.6748 79.3783 39.5262 79.5269C39.3777 79.6755 39.2013 79.7933 39.0071 79.8737C38.8129 79.954 38.6049 79.9953 38.3947 79.9952Z" fill="#474747"/>
<path d="M100.788 79.9828H1.59981C1.17552 79.9828 0.768598 79.8143 0.468575 79.5143C0.168551 79.2142 0 78.8073 0 78.383C0 77.9587 0.168551 77.5518 0.468575 77.2518C0.768598 76.9518 1.17552 76.7832 1.59981 76.7832H100.788C101.213 76.7832 101.619 76.9518 101.92 77.2518C102.22 77.5518 102.388 77.9587 102.388 78.383C102.388 78.8073 102.22 79.2142 101.92 79.5143C101.619 79.8143 101.213 79.9828 100.788 79.9828Z" fill="#474747"/>
<path d="M85.2508 67.5186C84.9753 67.519 84.7043 67.4482 84.4642 67.313C84.2241 67.1777 84.0231 66.9827 83.8807 66.7468L49.8284 10.4205C49.6101 10.0576 49.5447 9.62294 49.6465 9.21185C49.7482 8.80076 50.0088 8.4468 50.3712 8.22758C50.7335 8.00836 51.168 7.94177 51.5794 8.04242C51.9907 8.14306 52.3454 8.40273 52.5656 8.76448L86.6179 65.0907C86.7645 65.3333 86.8441 65.6104 86.8485 65.8938C86.853 66.1772 86.782 66.4567 86.6429 66.7036C86.5039 66.9506 86.3017 67.1562 86.0571 67.2994C85.8125 67.4426 85.5343 67.5182 85.2508 67.5186Z" fill="#474747"/>
<path d="M9.6018 79.9827C9.31838 79.9824 9.04013 79.9067 8.79553 79.7635C8.55094 79.6203 8.34877 79.4147 8.20971 79.1678C8.07065 78.9208 7.99969 78.6413 8.0041 78.3579C8.0085 78.0745 8.08811 77.7974 8.23478 77.5549L49.8221 8.76447C50.0423 8.40273 50.397 8.14306 50.8084 8.04242C51.2197 7.94177 51.6542 8.00836 52.0165 8.22758C52.3789 8.4468 52.6395 8.80076 52.7412 9.21185C52.843 9.62294 52.7776 10.0576 52.5593 10.4205L10.9719 79.2109C10.8295 79.4468 10.6285 79.6419 10.3884 79.7771C10.1483 79.9124 9.87735 79.9832 9.6018 79.9827Z" fill="#474747"/>
<path d="M57.9674 22.3896H44.4221C43.9978 22.3896 43.5909 22.221 43.2908 21.921C42.9908 21.621 42.8223 21.2141 42.8223 20.7898C42.8223 20.3655 42.9908 19.9585 43.2908 19.6585C43.5909 19.3585 43.9978 19.1899 44.4221 19.1899H57.9674C58.3917 19.1899 58.7986 19.3585 59.0986 19.6585C59.3986 19.9585 59.5672 20.3655 59.5672 20.7898C59.5672 21.2141 59.3986 21.621 59.0986 21.921C58.7986 22.221 58.3917 22.3896 57.9674 22.3896Z" fill="#474747"/>
<path d="M25.6848 53.3669C25.4092 53.3674 25.1382 53.2966 24.8981 53.1613C24.658 53.0261 24.457 52.8311 24.3146 52.5952L11.399 31.2289C11.1794 30.8659 11.1129 30.4306 11.2143 30.0186C11.3157 29.6067 11.5766 29.2519 11.9395 29.0323C12.3025 28.8127 12.7378 28.7462 13.1498 28.8476C13.5617 28.949 13.9165 29.2099 14.1361 29.5728L27.0518 50.9391C27.1985 51.1816 27.2781 51.4588 27.2825 51.7422C27.2869 52.0256 27.216 52.305 27.0769 52.552C26.9378 52.799 26.7357 53.0046 26.4911 53.1477C26.2465 53.2909 25.9682 53.3666 25.6848 53.3669Z" fill="#474747"/>
<path d="M1.5979 50.4657C1.31447 50.4654 1.03623 50.3897 0.791628 50.2465C0.547032 50.1033 0.344863 49.8978 0.205804 49.6508C0.0667453 49.4038 -0.00421125 49.1243 0.000193248 48.8409C0.00459775 48.5576 0.0842053 48.2804 0.230872 48.0379L11.3936 29.5728C11.5024 29.3931 11.6455 29.2366 11.8147 29.1121C11.9839 28.9877 12.176 28.8978 12.38 28.8476C12.584 28.7974 12.7958 28.7879 13.0035 28.8196C13.2112 28.8513 13.4105 28.9235 13.5903 29.0323C13.77 29.141 13.9265 29.2841 14.051 29.4533C14.1754 29.6226 14.2653 29.8146 14.3155 30.0186C14.3657 30.2226 14.3752 30.4345 14.3435 30.6421C14.3119 30.8498 14.2396 31.0492 14.1308 31.2289L2.96807 49.694C2.82566 49.9299 2.62464 50.1249 2.38455 50.2602C2.14446 50.3954 1.87346 50.4662 1.5979 50.4657Z" fill="#474747"/>
<path d="M19.5377 43.1982H5.99239C5.5681 43.1982 5.16118 43.0296 4.86115 42.7296C4.56113 42.4296 4.39258 42.0226 4.39258 41.5983C4.39258 41.1741 4.56113 40.7671 4.86115 40.4671C5.16118 40.1671 5.5681 39.9985 5.99239 39.9985H19.5377C19.962 39.9985 20.3689 40.1671 20.6689 40.4671C20.969 40.7671 21.1375 41.1741 21.1375 41.5983C21.1375 42.0226 20.969 42.4296 20.6689 42.7296C20.3689 43.0296 19.962 43.1982 19.5377 43.1982Z" fill="#474747"/>
<path d="M91.1858 80C90.9756 80.0001 90.7675 79.9588 90.5734 79.8784C90.3792 79.7981 90.2028 79.6802 90.0542 79.5317C89.9057 79.3831 89.7878 79.2067 89.7075 79.0125C89.6271 78.8184 89.5858 78.6103 89.5859 78.4002V72.0134C89.5859 71.5891 89.7545 71.1822 90.0545 70.8822C90.3545 70.5821 90.7615 70.4136 91.1858 70.4136C91.61 70.4136 92.017 70.5821 92.317 70.8822C92.617 71.1822 92.7856 71.5891 92.7856 72.0134V78.4002C92.7857 78.6103 92.7444 78.8184 92.664 79.0125C92.5837 79.2067 92.4658 79.3831 92.3173 79.5317C92.1687 79.6802 91.9923 79.7981 91.7981 79.8784C91.604 79.9588 91.3959 80.0001 91.1858 80Z" fill="#474747"/>
<path d="M99.1854 73.5963H83.1841C82.9299 73.5962 82.6793 73.5356 82.4532 73.4195C82.227 73.3034 82.0318 73.135 81.8837 72.9284C81.7356 72.7218 81.6388 72.4829 81.6014 72.2314C81.564 71.98 81.587 71.7232 81.6686 71.4824L86.0134 58.6714C86.0807 58.4722 86.1866 58.2881 86.3251 58.1298C86.4636 57.9715 86.6319 57.842 86.8205 57.7488C87.009 57.6556 87.2141 57.6005 87.424 57.5866C87.6338 57.5728 87.8444 57.6004 88.0436 57.6679C88.2428 57.7355 88.4267 57.8417 88.5848 57.9804C88.7429 58.1191 88.8721 58.2876 88.9651 58.4762C89.058 58.6649 89.1129 58.8701 89.1265 59.0799C89.1401 59.2898 89.1122 59.5004 89.0443 59.6994L85.4167 70.3966H96.9529L93.322 59.6916C93.254 59.4925 93.2259 59.2819 93.2393 59.0718C93.2528 58.8618 93.3076 58.6565 93.4005 58.4677C93.4934 58.2789 93.6226 58.1102 93.7808 57.9714C93.939 57.8326 94.123 57.7264 94.3223 57.6588C94.5216 57.5912 94.7323 57.5636 94.9423 57.5775C95.1523 57.5914 95.3574 57.6466 95.5461 57.74C95.7347 57.8333 95.903 57.9629 96.0415 58.1214C96.1799 58.2799 96.2858 58.4642 96.3529 58.6636L100.701 71.4824C100.782 71.7232 100.805 71.98 100.768 72.2314C100.731 72.4829 100.634 72.7218 100.486 72.9284C100.338 73.135 100.142 73.3034 99.9163 73.4195C99.6902 73.5356 99.4396 73.5962 99.1854 73.5963Z" fill="#474747"/>
<path d="M97.5844 60.7853H84.7859C84.5193 60.7855 84.2569 60.7189 84.0225 60.5918C83.7882 60.4647 83.5893 60.281 83.444 60.0575C83.2987 59.8339 83.2116 59.5776 83.1905 59.3118C83.1695 59.046 83.2152 58.7792 83.3236 58.5356L89.7228 44.1357C89.8487 43.8529 90.0537 43.6127 90.3133 43.4441C90.5728 43.2755 90.8757 43.1858 91.1852 43.1858C91.4947 43.1858 91.7975 43.2755 92.057 43.4441C92.3166 43.6127 92.5217 43.8529 92.6475 44.1357L99.0467 58.5356C99.1551 58.7792 99.2008 59.046 99.1798 59.3118C99.1588 59.5776 99.0716 59.8339 98.9263 60.0575C98.781 60.281 98.5822 60.4647 98.3478 60.5918C98.1134 60.7189 97.851 60.7855 97.5844 60.7853ZM87.2481 57.5857H95.1222L91.1852 48.7258L87.2481 57.5857Z" fill="#474747"/>
<path d="M84.7945 20.7911C83.5295 20.7911 82.2929 20.416 81.241 19.7132C80.1892 19.0104 79.3694 18.0115 78.8853 16.8428C78.4012 15.674 78.2745 14.388 78.5213 13.1473C78.7681 11.9066 79.3773 10.7669 80.2718 9.87241C81.1663 8.9779 82.3059 8.36873 83.5466 8.12193C84.7874 7.87513 86.0734 8.00179 87.2421 8.48588C88.4108 8.96997 89.4098 9.78976 90.1126 10.8416C90.8154 11.8934 91.1905 13.13 91.1906 14.395C91.1884 16.0907 90.5138 17.7163 89.3148 18.9154C88.1158 20.1144 86.4902 20.789 84.7945 20.7911ZM84.7945 11.1985C84.1623 11.1985 83.5443 11.386 83.0187 11.7372C82.493 12.0884 82.0833 12.5876 81.8414 13.1717C81.5995 13.7558 81.5362 14.3985 81.6595 15.0185C81.7828 15.6385 82.0872 16.2081 82.5343 16.6551C82.9813 17.1022 83.5508 17.4066 84.1709 17.5299C84.7909 17.6533 85.4336 17.59 86.0177 17.3481C86.6017 17.1062 87.101 16.6965 87.4522 16.1708C87.8034 15.6452 87.9909 15.0272 87.9909 14.395C87.9899 13.5476 87.6528 12.7352 87.0536 12.1359C86.4543 11.5367 85.6419 11.1996 84.7945 11.1985Z" fill="#474747"/>
<path d="M84.7971 6.39926C84.587 6.39938 84.3789 6.35808 84.1847 6.27773C83.9906 6.19737 83.8142 6.07953 83.6656 5.93095C83.517 5.78237 83.3992 5.60596 83.3188 5.41181C83.2384 5.21766 83.1971 5.00957 83.1973 4.79944V1.59981C83.1973 1.17552 83.3658 0.768598 83.6658 0.468575C83.9659 0.168552 84.3728 0 84.7971 0C85.2214 0 85.6283 0.168552 85.9283 0.468575C86.2283 0.768598 86.3969 1.17552 86.3969 1.59981V4.79944C86.397 5.00957 86.3557 5.21765 86.2754 5.41181C86.195 5.60596 86.0772 5.78237 85.9286 5.93095C85.78 6.07953 85.6036 6.19737 85.4094 6.27772C85.2153 6.35808 85.0072 6.39938 84.7971 6.39926Z" fill="#474747"/>
<path d="M84.7971 28.7967C84.587 28.7968 84.3789 28.7555 84.1847 28.6752C83.9906 28.5948 83.8142 28.477 83.6656 28.3284C83.517 28.1798 83.3992 28.0034 83.3188 27.8093C83.2384 27.6151 83.1971 27.407 83.1973 27.1969V23.9973C83.1973 23.573 83.3658 23.1661 83.6658 22.866C83.9659 22.566 84.3728 22.3975 84.7971 22.3975C85.2214 22.3975 85.6283 22.566 85.9283 22.866C86.2283 23.1661 86.3969 23.573 86.3969 23.9973V27.1969C86.397 27.407 86.3557 27.6151 86.2754 27.8093C86.195 28.0034 86.0772 28.1798 85.9286 28.3284C85.78 28.477 85.6036 28.5948 85.4094 28.6752C85.2153 28.7555 85.0072 28.7968 84.7971 28.7967Z" fill="#474747"/>
<path d="M79.9987 7.68493C79.7175 7.68541 79.4412 7.61171 79.1977 7.47126C78.9541 7.33082 78.7518 7.1286 78.6114 6.88502L77.0116 4.11504C76.9064 3.93305 76.8381 3.73213 76.8106 3.52374C76.7831 3.31535 76.797 3.10359 76.8513 2.90055C76.9057 2.69751 76.9995 2.50717 77.1275 2.34041C77.2554 2.17365 77.415 2.03373 77.597 1.92865C77.7791 1.82357 77.98 1.75539 78.1884 1.728C78.3968 1.70061 78.6086 1.71455 78.8116 1.76902C79.0146 1.82349 79.2049 1.91743 79.3716 2.04547C79.5383 2.1735 79.6781 2.33313 79.7831 2.51523L81.3829 5.28521C81.5234 5.52831 81.5973 5.80408 81.5974 6.08482C81.5975 6.36556 81.5237 6.64137 81.3834 6.88455C81.2431 7.12773 81.0413 7.32971 80.7983 7.47021C80.5552 7.6107 80.2795 7.68475 79.9987 7.68493Z" fill="#474747"/>
<path d="M91.196 27.0814C90.9148 27.0819 90.6385 27.0082 90.3949 26.8677C90.1513 26.7273 89.9491 26.5251 89.8087 26.2815L88.2088 23.5115C88.1037 23.3295 88.0354 23.1286 88.0079 22.9202C87.9804 22.7118 87.9942 22.5001 88.0486 22.297C88.103 22.094 88.1968 21.9037 88.3248 21.7369C88.4527 21.5701 88.6123 21.4302 88.7943 21.3251C88.9763 21.2201 89.1773 21.1519 89.3857 21.1245C89.5941 21.0971 89.8059 21.111 90.0089 21.1655C90.2119 21.22 90.4022 21.3139 90.5689 21.442C90.7356 21.57 90.8754 21.7296 90.9804 21.9117L92.5802 24.6817C92.7206 24.9248 92.7946 25.2006 92.7947 25.4813C92.7947 25.762 92.7209 26.0379 92.5807 26.281C92.4404 26.5242 92.2386 26.7262 91.9955 26.8667C91.7525 27.0072 91.4767 27.0812 91.196 27.0814Z" fill="#474747"/>
<path d="M76.4826 11.1992C76.2023 11.1994 75.9269 11.1256 75.6843 10.9852L72.9127 9.38534C72.5454 9.17308 72.2775 8.82364 72.1677 8.41385C72.058 8.00407 72.1155 7.56748 72.3276 7.20007C72.5397 6.83266 72.889 6.56451 73.2987 6.45457C73.7084 6.34463 74.145 6.4019 74.5126 6.61379L77.2841 8.21361C77.5894 8.3897 77.8279 8.66165 77.9628 8.98724C78.0976 9.31282 78.1212 9.67382 78.0298 10.0142C77.9384 10.3545 77.7372 10.6552 77.4575 10.8695C77.1777 11.0838 76.835 11.1997 76.4826 11.1992Z" fill="#474747"/>
<path d="M95.8774 22.3973C95.5971 22.3975 95.3217 22.3237 95.0791 22.1832L92.3106 20.5834C92.1285 20.4784 91.9689 20.3386 91.8409 20.1719C91.7128 20.0052 91.6189 19.8149 91.5644 19.6119C91.51 19.4089 91.496 19.1971 91.5234 18.9887C91.5508 18.7803 91.619 18.5794 91.7241 18.3973C91.8291 18.2153 91.9691 18.0557 92.1358 17.9278C92.3026 17.7998 92.4929 17.706 92.696 17.6516C92.899 17.5973 93.1108 17.5834 93.3191 17.6109C93.5275 17.6384 93.7285 17.7067 93.9105 17.8119L96.6789 19.4117C96.9841 19.5878 97.2227 19.8597 97.3576 20.1853C97.4924 20.5109 97.516 20.8719 97.4246 21.2123C97.3332 21.5526 97.132 21.8533 96.8523 22.0676C96.5725 22.2818 96.2298 22.3977 95.8774 22.3973Z" fill="#474747"/>
<path d="M75.1998 15.998H72.0002C71.5759 15.998 71.169 15.8294 70.869 15.5294C70.5689 15.2294 70.4004 14.8225 70.4004 14.3982C70.4004 13.9739 70.5689 13.5669 70.869 13.2669C71.169 12.9669 71.5759 12.7983 72.0002 12.7983H75.1998C75.6241 12.7983 76.0311 12.9669 76.3311 13.2669C76.6311 13.5669 76.7996 13.9739 76.7996 14.3982C76.7996 14.8225 76.6311 15.2294 76.3311 15.5294C76.0311 15.8294 75.6241 15.998 75.1998 15.998Z" fill="#474747"/>
<path d="M97.5951 15.998H94.3986C93.9743 15.998 93.5674 15.8294 93.2674 15.5294C92.9674 15.2294 92.7988 14.8225 92.7988 14.3982C92.7988 13.9739 92.9674 13.5669 93.2674 13.2669C93.5674 12.9669 93.9743 12.7983 94.3986 12.7983H97.5951C98.0194 12.7983 98.4263 12.9669 98.7263 13.2669C99.0263 13.5669 99.1949 13.9739 99.1949 14.3982C99.1949 14.8225 99.0263 15.2294 98.7263 15.5294C98.4263 15.8294 98.0194 15.998 97.5951 15.998Z" fill="#474747"/>
<path d="M73.7152 22.3979C73.3628 22.3984 73.0201 22.2825 72.7403 22.0682C72.4606 21.8539 72.2594 21.5533 72.168 21.2129C72.0766 20.8726 72.1002 20.5116 72.235 20.186C72.3699 19.8604 72.6084 19.5884 72.9137 19.4123L75.6837 17.8125C76.0512 17.6006 76.4878 17.5434 76.8975 17.6533C77.3073 17.7632 77.6566 18.0314 77.8687 18.3988C78.0807 18.7662 78.1382 19.2028 78.0285 19.6126C77.9188 20.0224 77.6508 20.3718 77.2835 20.5841L74.5135 22.1839C74.2709 22.3243 73.9955 22.3982 73.7152 22.3979Z" fill="#474747"/>
<path d="M93.1136 11.1976C92.7612 11.1981 92.4185 11.0822 92.1388 10.8679C91.859 10.6536 91.6578 10.3529 91.5664 10.0126C91.4751 9.67223 91.4986 9.31122 91.6335 8.98564C91.7683 8.66005 92.0069 8.3881 92.3121 8.21201L95.0806 6.61379C95.4481 6.4019 95.8847 6.34463 96.2944 6.45457C96.7042 6.56451 97.0535 6.83266 97.2655 7.20007C97.4776 7.56748 97.5351 8.00407 97.4254 8.41385C97.3157 8.82364 97.0477 9.17308 96.6804 9.38534L93.912 10.9836C93.6694 11.124 93.394 11.1978 93.1136 11.1976Z" fill="#474747"/>
<path d="M78.3994 27.0816C78.1187 27.0814 77.843 27.0073 77.5999 26.8669C77.3568 26.7264 77.155 26.5244 77.0148 26.2812C76.8745 26.038 76.8007 25.7622 76.8008 25.4815C76.8009 25.2007 76.8748 24.925 77.0152 24.6819L78.6134 21.9103C78.8257 21.543 79.1752 21.275 79.5849 21.1653C79.9947 21.0556 80.4313 21.1131 80.7987 21.3251C81.1661 21.5372 81.4343 21.8865 81.5442 22.2962C81.6542 22.706 81.5969 23.1426 81.385 23.5101L79.7868 26.2817C79.6461 26.525 79.4438 26.7271 79.2003 26.8675C78.9567 27.0079 78.6805 27.0817 78.3994 27.0816Z" fill="#474747"/>
<path d="M89.5986 7.68181C89.3179 7.68163 89.0422 7.60757 88.7991 7.46708C88.5561 7.32659 88.3543 7.1246 88.214 6.88142C88.0737 6.63825 87.9999 6.36243 88 6.0817C88.0001 5.80096 88.074 5.52519 88.2144 5.28209L89.8127 2.51523C89.9176 2.33313 90.0575 2.1735 90.2242 2.04547C90.3909 1.91743 90.5812 1.82349 90.7842 1.76902C90.9872 1.71455 91.1989 1.70061 91.4073 1.728C91.6157 1.75539 91.8167 1.82357 91.9987 1.92865C92.1808 2.03373 92.3403 2.17365 92.4683 2.34041C92.5962 2.50717 92.6901 2.69751 92.7445 2.90055C92.7988 3.10359 92.8127 3.31535 92.7852 3.52374C92.7577 3.73213 92.6894 3.93305 92.5842 4.11504L90.986 6.8819C90.8455 7.12548 90.6433 7.3277 90.3997 7.46814C90.1561 7.60859 89.8798 7.68229 89.5986 7.68181Z" fill="#474747"/>
<path d="M16.0047 19.1901C14.7391 19.1901 13.5018 18.8148 12.4495 18.1116C11.3971 17.4085 10.5769 16.4091 10.0926 15.2398C9.60824 14.0704 9.48151 12.7838 9.72843 11.5424C9.97535 10.3011 10.5848 9.16086 11.4798 8.2659C12.3747 7.37095 13.515 6.76148 14.7563 6.51456C15.9976 6.26765 17.2843 6.39437 18.4536 6.87872C19.6229 7.36306 20.6224 8.18327 21.3255 9.23562C22.0287 10.288 22.404 11.5252 22.404 12.7909C22.404 13.2152 22.2354 13.6221 21.9354 13.9221C21.6354 14.2221 21.2285 14.3907 20.8042 14.3907C20.3799 14.3907 19.973 14.2221 19.6729 13.9221C19.3729 13.6221 19.2044 13.2152 19.2044 12.7909C19.2044 12.158 19.0167 11.5394 18.6651 11.0132C18.3135 10.4871 17.8138 10.077 17.2292 9.83479C16.6445 9.59262 16.0012 9.52925 15.3805 9.65271C14.7598 9.77617 14.1897 10.0809 13.7422 10.5284C13.2948 10.9759 12.99 11.546 12.8666 12.1666C12.7431 12.7873 12.8065 13.4307 13.0487 14.0153C13.2908 14.6 13.7009 15.0997 14.2271 15.4513C14.7533 15.8028 15.3719 15.9905 16.0047 15.9905C16.429 15.9905 16.8359 16.159 17.136 16.4591C17.436 16.7591 17.6045 17.166 17.6045 17.5903C17.6045 18.0146 17.436 18.4215 17.136 18.7215C16.8359 19.0216 16.429 19.1901 16.0047 19.1901Z" fill="#474747"/>
<path d="M26.4045 19.19C25.9802 19.19 25.5733 19.0214 25.2733 18.7214C24.9732 18.4214 24.8047 18.0145 24.8047 17.5902C24.8047 17.1659 24.9732 16.759 25.2733 16.4589C25.5733 16.1589 25.9802 15.9904 26.4045 15.9904C26.6167 15.9904 26.8201 15.9061 26.9701 15.7561C27.1201 15.6061 27.2044 15.4026 27.2044 15.1905C27.2044 14.9783 27.1201 14.7748 26.9701 14.6248C26.8201 14.4748 26.6167 14.3905 26.4045 14.3905C25.9802 14.3905 25.5733 14.222 25.2733 13.922C24.9732 13.6219 24.8047 13.215 24.8047 12.7907C24.8047 12.3664 24.9732 11.9595 25.2733 11.6595C25.5733 11.3595 25.9802 11.1909 26.4045 11.1909C27.4652 11.1909 28.4825 11.6123 29.2326 12.3624C29.9827 13.1124 30.404 14.1297 30.404 15.1905C30.404 16.2512 29.9827 17.2685 29.2326 18.0186C28.4825 18.7686 27.4652 19.19 26.4045 19.19Z" fill="#474747"/>
<path d="M26.4049 19.1899H16.0061C15.5818 19.1899 15.1748 19.0213 14.8748 18.7213C14.5748 18.4213 14.4062 18.0143 14.4062 17.59C14.4062 17.1658 14.5748 16.7588 14.8748 16.4588C15.1748 16.1588 15.5818 15.9902 16.0061 15.9902H26.4049C26.8292 15.9902 27.2361 16.1588 27.5361 16.4588C27.8361 16.7588 28.0047 17.1658 28.0047 17.59C28.0047 18.0143 27.8361 18.4213 27.5361 18.7213C27.2361 19.0213 26.8292 19.1899 26.4049 19.1899Z" fill="#474747"/>
<path d="M26.4042 14.3905H20.8049C20.3806 14.3905 19.9737 14.222 19.6737 13.922C19.3736 13.6219 19.2051 13.215 19.2051 12.7907C19.2051 12.3664 19.3736 11.9595 19.6737 11.6595C19.9737 11.3595 20.3806 11.1909 20.8049 11.1909H26.4042C26.8285 11.1909 27.2355 11.3595 27.5355 11.6595C27.8355 11.9595 28.0041 12.3664 28.0041 12.7907C28.0041 13.215 27.8355 13.6219 27.5355 13.922C27.2355 14.222 26.8285 14.3905 26.4042 14.3905Z" fill="#474747"/>
<path d="M39.9948 75.196H36.7951C36.3708 75.196 35.9639 75.0274 35.6639 74.7274C35.3639 74.4274 35.1953 74.0204 35.1953 73.5962C35.1953 73.1719 35.3639 72.7649 35.6639 72.4649C35.9639 72.1649 36.3708 71.9963 36.7951 71.9963H39.9948C40.4191 71.9963 40.826 72.1649 41.126 72.4649C41.426 72.7649 41.5946 73.1719 41.5946 73.5962C41.5946 74.0204 41.426 74.4274 41.126 74.7274C40.826 75.0274 40.4191 75.196 39.9948 75.196Z" fill="#474747"/>
<path d="M67.192 75.196H63.9924C63.5681 75.196 63.1612 75.0274 62.8612 74.7274C62.5611 74.4274 62.3926 74.0204 62.3926 73.5962C62.3926 73.1719 62.5611 72.7649 62.8612 72.4649C63.1612 72.1649 63.5681 71.9963 63.9924 71.9963H67.192C67.6163 71.9963 68.0232 72.1649 68.3233 72.4649C68.6233 72.7649 68.7918 73.1719 68.7918 73.5962C68.7918 74.0204 68.6233 74.4274 68.3233 74.7274C68.0232 75.0274 67.6163 75.196 67.192 75.196Z" fill="#474747"/>
</svg>
